<svg id="Capa_1" data-name="Capa 1" xmlns="http://www.w3.org/2000/svg" viewBox="0 0 1000 1000"><defs><style>.cls-1{fill:#fff;}.cls-2{fill:#cccdcf;opacity:0.4;}.cls-2,.cls-7{isolation:isolate;}.cls-3{fill:#eaf4f7;}.cls-15,.cls-4,.cls-5,.cls-6{fill:none;stroke:#363a5a;}.cls-4{stroke-miterlimit:10;}.cls-15,.cls-4{stroke-width:6px;}.cls-10,.cls-11,.cls-15,.cls-5,.cls-6{stroke-linecap:round;stroke-linejoin:round;}.cls-10,.cls-11,.cls-5,.cls-6{stroke-width:4px;}.cls-6{stroke-dasharray:10.18 15.26;}.cls-7,.cls-8{fill:#3dc0cb;}.cls-7{opacity:0.22;}.cls-9{fill:#64c7cf;}.cls-10{fill:#87d5f7;stroke:#259ad6;}.cls-11{fill:#fddcbf;stroke:#ecb072;}.cls-12{fill:#ee4637;}.cls-13{fill:#cd3c27;}.cls-14{fill:#f07378;}</style></defs><rect class="cls-1" width="1000" height="1000"/><path class="cls-2" d="M793.43,662.59,655.74,749.42a57,57,0,0,1-47.81,6.05L457,707a56.94,56.94,0,0,0-48.07,6.22l-110.5,70.54a25.81,25.81,0,0,1-35.6-8,25.37,25.37,0,0,1-3-6.7L164.46,434.63a25.8,25.8,0,0,1,11-28.89l139.16-87.95a62.38,62.38,0,0,1,52.4-6.66l146.11,47a62.38,62.38,0,0,0,52.57-6.76l104.64-66.59A25.82,25.82,0,0,1,709,299.45l95.35,334.29A25.79,25.79,0,0,1,793.43,662.59Z"/><path class="cls-1" d="M798.81,627.11,681.23,701.93a62.38,62.38,0,0,1-52.57,6.76l-146.12-47a62.38,62.38,0,0,0-52.4,6.65L303.8,748.22a25.81,25.81,0,0,1-35.6-8,26.19,26.19,0,0,1-3-6.7L169.83,399.15a25.81,25.81,0,0,1,11-28.9L320,282.3a62.34,62.34,0,0,1,52.4-6.65l146.13,47a62.35,62.35,0,0,0,52.56-6.75l104.64-66.59A25.8,25.8,0,0,1,714.41,264l95.36,334.29A25.83,25.83,0,0,1,798.81,627.11Z"/><path class="cls-3" d="M468.51,623.93l-21.86-61.69L343.33,597.61,311,504l-84.15,16.74,59,206.84a4.34,4.34,0,0,0,4.19,3.13,4.1,4.1,0,0,0,2.25-.68l120.11-75.91C411.9,653.52,468.51,623.93,468.51,623.93Z"/><path class="cls-4" d="M798.81,627.11,681.23,701.93a62.38,62.38,0,0,1-52.57,6.76l-146.12-47a62.38,62.38,0,0,0-52.4,6.65L303.8,748.22a25.81,25.81,0,0,1-35.6-8,26.19,26.19,0,0,1-3-6.7L169.83,399.15a25.81,25.81,0,0,1,11-28.9L320,282.3a62.34,62.34,0,0,1,52.4-6.65l146.13,47a62.35,62.35,0,0,0,52.56-6.75l104.64-66.59A25.8,25.8,0,0,1,714.41,264l95.36,334.29A25.83,25.83,0,0,1,798.81,627.11Z"/><path class="cls-5" d="M360.07,585.58s1.79-.47,4.81-1.35"/><path class="cls-6" d="M379.42,579.57c21.23-7.39,52.39-20.94,52.76-37,.5-21.3-102.73-127.87-47.23-134.31,185.29-21.51,102.27,132.6,186.77,129.16,35.7-1.46-30.32-50.54,71.69-86,15.12-5.26,7.6-43.72,2.53-63.82"/><path class="cls-5" d="M644,380.23c-.84-3-1.4-4.8-1.4-4.8"/><circle class="cls-7" cx="353.61" cy="588.18" r="48.19"/><circle class="cls-8" cx="353.61" cy="588.18" r="27.95"/><path class="cls-9" d="M353.61,560.23a27.91,27.91,0,0,0-22.16,10.93,27.94,27.94,0,0,1,37.86,40.13,27.94,27.94,0,0,0-15.7-51.06Z"/><circle class="cls-4" cx="353.61" cy="588.18" r="27.95"/><path class="cls-10" d="M366.35,338.84,446.5,354l-18.41-32.35-66.34-23.14a30.89,30.89,0,0,0-23.64,1.35L192.34,388.43a4.34,4.34,0,0,0-1.84,4.82L214,475.66l64.09-15.85L266.33,412.6Z"/><polygon class="cls-11" points="493.37 542.93 539.11 554.45 561.22 605.13 511.95 597.05 493.37 542.93"/><path class="cls-3" d="M643.43,391.11c-37.16,0-67.28-10.78-67.28-24.07S606.27,343,643.43,343,710.7,353.75,710.7,367,680.58,391.11,643.43,391.11Z"/><polygon class="cls-11" points="664.54 527.49 748.47 490.95 781.62 591.96 645.72 669.19 620.81 598.89 673.95 569 664.54 527.49"/><path class="cls-12" d="M742.48,249.68c0-57.8-46.91-104.34-103.76-101.64-50.9,2.42-94.29,45.78-94.29,98.12,0,75.72,99,134.1,99,134.1S742.48,321.88,742.48,249.68Z"/><path class="cls-13" d="M679.59,351a44.19,44.19,0,0,1-54.6-.18c-29.3-23.2-71.68-65.33-71.68-114.86a96.24,96.24,0,0,1,19.81-58.17c-17.58,17.74-28.69,41.93-28.69,68.41,0,75.72,99,134.1,99,134.1s40.37-23.8,69.57-59.8A282.15,282.15,0,0,1,679.59,351Z"/><path class="cls-14" d="M638.72,148a98,98,0,0,0-49.9,16.72,96.69,96.69,0,0,1,37.23-9.48c56.85-2.7,103.77,43.84,103.77,101.64,0,56.61-60.9,104.72-87.2,122.86l.8.49s99.06-58.39,99.06-130.59C742.48,191.88,695.57,145.34,638.72,148Z"/><path class="cls-1" d="M643.43,288.61a40.76,40.76,0,1,1,40.75-40.76h0A40.77,40.77,0,0,1,643.43,288.61Z"/><path class="cls-4" d="M643.43,288.61a40.76,40.76,0,1,1,40.75-40.76h0A40.77,40.77,0,0,1,643.43,288.61Z"/><path class="cls-15" d="M742.48,249.68c0-57.8-46.91-104.34-103.76-101.64-50.9,2.42-94.29,45.78-94.29,98.12,0,75.72,99,134.1,99,134.1S742.48,321.88,742.48,249.68Z"/><path class="cls-12" d="M420.92,937.59a2.26,2.26,0,0,0,2.42-2.1,1.85,1.85,0,0,0,0-.23,2.09,2.09,0,0,0-1.93-2.21,1.45,1.45,0,0,0-.36,0,2.2,2.2,0,0,0-2.41,2c0,.05,0,.11,0,.17v.06a2.29,2.29,0,0,0,2.23,2.33Z"/><path class="cls-12" d="M476.41,941.87c-.13-.78,1.18-.91,1-1.56-.13-.9-.92-.9-1.44-.84-2.95.33-3.53,1.3-3.8,3.18a4,4,0,0,0,1.31,2.91A21.78,21.78,0,0,1,473,950a.93.93,0,0,0-.52.58,57,57,0,0,1-1.77,6.29,3.11,3.11,0,0,0-.65,1.23v.33c-.66,1.23-1.38,2.13-2.23,2.13-.39,0-.52-1-.52-2.4,0-2.4,1.24-9.07,1.24-10.5,0-1.88.33-3.5.33-5,0-.65-.46-.84-1.05-.84s-.72.32-1.18.32c-1.9,0-2.16,1-2.16,2.59,0,.65,0,9.85-.13,11-.13,2-1.24,4.34-3.33,4.34-1.9,0-2.82-2.59-2.82-5.38a31.89,31.89,0,0,1,.79-6.8c.2-.64,1-3.63,1-4,0-.72-.06-.91-.85-.91-3,.06-3.6.32-4.05,1.94a35.73,35.73,0,0,0-1,8v.84c-.72,2.2-1.5,4.67-3.54,4.8-1.37.07-1.83-3.37-1.83-6.93,0-7.07,2-13.94,2.29-21,.06-.65-.39-1.1-1.18-1.1a9.34,9.34,0,0,1-1.83.06c-.79,0-1.11.33-1.18,1.1-.65,7.07-2.09,15.69-2.09,22.56v.13c-.72,2.26-1.5,5.18-3.67,5.31-1.37.07-1.83-3.37-1.83-6.93,0-7.07,2-13.94,2.29-21,.07-.65-.39-1.1-1.18-1.1-1,0-1.37-.07-1.9-.07-.78,0-1.11.32-1.17,1.1-.66,7.07-2.1,15.69-2.1,22.56v.12c-.72,2.27-1.5,5.19-3.66,5.32-1.38.06-1.83-3.37-1.83-6.94,0-7.06,2-13.93,2.29-21,.06-.64-.4-1.1-1.18-1.1-1.11,0-1.44-.06-2-.06-.79,0-1.12.32-1.18,1.1-.66,7.06-2.1,15.68-2.1,22.55v1C425,956.52,424,959,422.75,959c-.58-.06-1-.9-1-2.85,0-3.56.32-8.49.65-12.25.07-.45-.13-.91-.65-.91s-1.9-.19-2.42-.19c-.79,0-1.12.45-1.12,1.3v1.3c.07,4.34-.39,7.78-.39,11.86,0,2.92,1.57,4.93,3.53,4.93s3.73-1.75,4.85-3.83c.59,2.2,1.7,4.15,3.92,4.15s4.13-2.27,5.5-4.8c.53,2.46,1.64,4.8,4.06,4.8,2.09,0,4.12-2.27,5.5-4.8.52,2.46,1.64,4.8,4.06,4.8,2,0,4.05-2.2,5.43-4.6.72,2.92,2.35,5.12,5.43,5.12,2.55,0,3.27-1,4.91-3.37.52,1.3.72,3.76,2.22,3.76,2.1,0,3.86-2.4,5-5.12a8.29,8.29,0,0,0,6.54,3.63c3.54,0,6.55-2.53,6.29-6.35C484.72,950.36,477,944.79,476.41,941.87Zm.92,17.43c-1.05,0-2.68-.64-2.75-2-.07-.78,1.77-1.17,2.42-1.56s.66-.58.66-.78c-.07-.45-.72-.78-1.44-.78a4.51,4.51,0,0,0-2.43.85c.2-.91,1.57-5.58,1.9-7.85a14.91,14.91,0,0,1,5.17,9.34c.2,2.52-2.68,2.78-3.53,2.78Z"/><path class="cls-12" d="M536,937.59a2.25,2.25,0,0,0,2.41-2.1,1.85,1.85,0,0,0,0-.23,2.08,2.08,0,0,0-1.93-2.21,1.45,1.45,0,0,0-.36,0,2.2,2.2,0,0,0-2.41,2,.91.91,0,0,0,0,.17v.06a2.27,2.27,0,0,0,2.22,2.33Z"/><path class="cls-12" d="M573.78,963.13c-1.18-.78-2-2-1.83-7.07.13-3.24.78-7.71.78-10.89,0-1.42-.65-3-2.49-3-2.29,0-5.62,4.66-6.67,6.74.13-1.23.52-4.86.59-6.09s.06-1.3-2.1-1.3c-1.44,0-1.57.26-1.57.77,0,3-.26,6.42-.52,9.86-.79,1.68-1.83,3.37-3.34,3.37a3,3,0,0,1-1.3-.33,10.08,10.08,0,0,0,1.11-4.34,3.12,3.12,0,0,0-3-3.24h-.15a3.7,3.7,0,0,0-3.87,3.54,2.57,2.57,0,0,0,0,.48c0,1.81,1.9,3.89,3.33,4.86a5,5,0,0,1-4.51,2.72c-2.82,0-3.8-5.12-3.8-7,0-3.63,1.31-7.71,5.62-7.71,2.95,0,2.95,1.94,4.19,1.94.13,0,.53-.19.53-.39,0-2.14-3.4-3.89-5.17-3.89-6,0-10.21,4.73-10.21,10.63a11.09,11.09,0,0,0,.59,3.57c-.59,1.49-1.31,2.65-2.23,2.65-.58,0-1-.84-1-2.78,0-3.57.32-8.49.65-12.25.07-.46-.13-.91-.65-.91s-1.9-.19-2.42-.19c-.79,0-1.12.45-1.12,1.3v1.3c0,2.27-.13,4.21-.2,6.15a1.38,1.38,0,0,0-.2.33c-.72,1.94-1.63,7.32-3.8,7.32-.65,0-2-.91-2-3.43,0-4.09,1.38-12.25,1.57-13.68,2.1-.45,3.93-.32,6.42-1,1.11-.32.45-1.62-.79-1.49a35.15,35.15,0,0,1-5.43,0c.07-2.14.59-3.5.59-5.7v-.2c0-.58-.26-1-.85-1-1.18,0-3,.39-3,2s-.33,3.17-.26,4.86c-1.18.06-2.23-.26-3.4-.26-.85,0-1,1.55-1,2.14s.07,1.1.46,1.1a29.19,29.19,0,0,0,3.73-.33c-.33,4.28-.85,6.68-1.18,9.66,0,.19-.07.45-.07.71-.72,2.27-2.09,5.77-3.2,5.77a1.45,1.45,0,0,1-1.1-1.23,42.51,42.51,0,0,1,1.18-10.3,10.46,10.46,0,0,0,.65-2.53c0-.84-1.37-1.3-2.09-1.3-1.18,0-1.11.65-1.57,1.69-.85-.65-1.05-1.82-3.34-1.82-4.18,0-6.74,6.74-6.74,11,0,.71-.06,1.1-.06,1.49,0,2.4-1.38,5.38-2.82,5.38-1.24,0-1.63-3.37-1.63-4.8a31.49,31.49,0,0,1,1.7-8.43,6.23,6.23,0,0,0,.91-2.27c0-.9-1-2.4-2.09-2.4s-1.9.65-3.14.65c-2,0-3.27-1.23-4.38-1.23a1,1,0,0,0-1.12.93v.17c0,1.75,1.9,1.43,1.44,3.63s-1.83,7.71-2.61,9.85a.46.46,0,0,0-.07.32,1.75,1.75,0,0,0,.13.65c-.46.78-1,1.3-1.64,1.3s-2-.9-2-3.43c0-4.08,1.37-12.25,1.57-13.68,2.09-.45,3.92-.32,6.41-1,1.11-.33.46-1.62-.79-1.49a35.15,35.15,0,0,1-5.43,0c.07-2.14.59-3.5.59-5.7,0-.59-.26-1-.85-1-1.18,0-3,.39-3,2s-.33,3.17-.26,4.86c-1.18.06-2.22-.26-3.4-.26-.85,0-1.05,1.56-1.05,2.14s.07,1.1.46,1.1a29.19,29.19,0,0,0,3.73-.33c-.33,4.28-.85,6.68-1.18,9.66a54.79,54.79,0,0,0-.46,5.57c0,2.79,2.42,5.06,4.45,5.06,3.6,0,6.55-7.26,6.55-10.24v-.39c.39-1.75.65-3.5,1-5,.06-.19.26-.78.78-.78,1.18,0,1.31.85,1.31,1.75,0,2.4-.85,6.68-.85,9.2s.65,5.51,3.53,5.51a6.35,6.35,0,0,0,5.5-3.63c.79,1.88,2.1,3.37,3.93,3.37s3.27-1.3,4.32-2.53c.26.65.65,2.4,2.55,2.4s3.14-1.49,4.19-3.37a4.91,4.91,0,0,0,4.25,3.76c2,0,3.93-2.4,5.1-5,.13,2.72,1.64,4.54,3.54,4.54s3.6-1.56,4.71-3.5A6.62,6.62,0,0,0,547,962c3.6,0,5.76-2.33,7.66-5.12a9.48,9.48,0,0,0,1.83.32,4.85,4.85,0,0,0,3.47-2c-.13,2.08-.26,4.09-.26,5.9,0,.65.13.91.59,1a5.91,5.91,0,0,0,1.83.07c.65,0,.78.06.92-.78.06-.58.45-7.52.45-8,0-1.42,3.47-7.45,5.17-7.45.33,0,.59.58.59,1,0,3.11-1,8.17-1,11.41,0,3.43,1.7,4.6,2.42,5a6.43,6.43,0,0,0,2.81.71C573.78,963.78,574.23,963.39,573.78,963.13Zm-57.45-6.61c-.07.9-1.7,3.24-3,3.24s-2-3.89-1.9-6.48c.07-3,1.57-8.49,3-8.49,1.9,0,2.16,4.53,2.16,6,0,1.62-.19,4.15-.32,5.77Zm37.56-2.14a4.21,4.21,0,0,1-1.38-3.11c0-.59.2-1.88,1-1.88s1,1.42,1,2A11.36,11.36,0,0,1,553.89,954.38Z"/><path class="cls-12" d="M588.83,955.48c-.33-5.12-8.12-10.69-8.64-13.61-.13-.78,1.18-.91,1-1.56-.13-.9-.92-.9-1.44-.84-2.95.32-3.54,1.3-3.8,3.18a4,4,0,0,0,1.31,2.91c.07,2.27-1.18,8.56-2.62,11a5.38,5.38,0,0,0-.85,1.49c-.13.78.46,1.17,1,.65s.4-.65.85-1c1.05,2.4,4.32,4.08,6.81,4.08C586.08,961.83,589,959.3,588.83,955.48Zm-7.72,3.82c-1.05,0-2.69-.64-2.75-2-.07-.77,1.76-1.16,2.42-1.55s.65-.58.65-.78c-.06-.45-.72-.78-1.44-.78a4.51,4.51,0,0,0-2.42.85c.2-.91,1.57-5.58,1.9-7.85a14.88,14.88,0,0,1,5.17,9.34c.2,2.52-2.68,2.78-3.53,2.78Z"/><path class="cls-12" d="M63.2,959.2c0,2.5-1.2,3.7-2.6,3.7a1.93,1.93,0,0,1-2.1-1.4,2.19,2.19,0,0,1-1.8.8,2.81,2.81,0,0,1,0-5.6,2.16,2.16,0,0,1,1.6.7v-.5h1.6v3.9c0,.8.3,1.4,1,1.4.9,0,1.7-.9,1.7-3a5.23,5.23,0,0,0-5.16-5.3H57.2a5.55,5.55,0,0,0-5.6,5.5v.2a5.62,5.62,0,0,0,5.54,5.71h.36a11.86,11.86,0,0,0,2.9-.4v.6a8.15,8.15,0,0,1-2.9.4,6.2,6.2,0,1,1-.3-12.4,5.6,5.6,0,0,1,6,5.17C63.2,958.85,63.2,959,63.2,959.2Zm-4.9.3A1.35,1.35,0,0,0,57,958.1h0a1.24,1.24,0,0,0-1.31,1.16,1.93,1.93,0,0,0,0,.24,1.26,1.26,0,0,0,1.22,1.3H57C57.8,960.9,58.3,960.3,58.3,959.5Z"/><path class="cls-12" d="M69.4,955.1v2A2.25,2.25,0,0,0,66.82,959a2,2,0,0,0,0,.55v4.3H64.9v-8.6h1.9v1.4A2.65,2.65,0,0,1,69.4,955.1Z"/><path class="cls-12" d="M74.6,962.3a2.63,2.63,0,0,0,2.2-1.1l1.5.9a4.35,4.35,0,0,1-3.8,1.9,4.41,4.41,0,0,1-4.69-4.12c0-.12,0-.25,0-.38A4.36,4.36,0,0,1,74,955h.28a4.31,4.31,0,0,1,4.3,4.32v.18a2.18,2.18,0,0,1-.1.8H71.7A2.83,2.83,0,0,0,74.6,962.3Zm2.3-3.5a2.38,2.38,0,0,0-2.5-2.1,2.51,2.51,0,0,0-2.6,2.1Z"/><path class="cls-12" d="M88.9,955.2v8.6H87v-1.2a3.7,3.7,0,0,1-3,1.5,4.45,4.45,0,0,1-4.3-4.5,4.32,4.32,0,0,1,4.13-4.5H84a3.6,3.6,0,0,1,3,1.4v-1.2h1.9Zm-1.8,4.3a2.7,2.7,0,1,0-2.7,2.7,2.57,2.57,0,0,0,2.7-2.44Z"/><path class="cls-12" d="M91.1,951.3H93v12.5H91.1Z"/><path class="cls-12" d="M102.9,955.2l-3.3,8.6H97.5l-3.3-8.6h2l2.4,6.5,2.4-6.5Z"/><path class="cls-12" d="M104.2,955.2h1.9v8.9c0,2.4-1.2,3.5-3.5,3.3v-1.8c1.1.1,1.7-.3,1.7-1.5v-8.9Zm-.2-2.4a1.2,1.2,0,1,1,1.2,1.2A1.2,1.2,0,0,1,104,952.8Z"/><path class="cls-12" d="M116,955.2l-3.3,8.8c-.8,2.2-2.2,3.3-4.2,3.2v-1.7a2.07,2.07,0,0,0,2.3-1.7l.1-.2-3.6-8.4h2l2.6,6.2,2.2-6.2Z"/><path class="cls-12" d="M58.9,938.7a3.65,3.65,0,0,1-3.46,3.8H52.3v-7.6h3a3.63,3.63,0,0,1,3.6,3.66Zm-1,0a2.73,2.73,0,0,0-2.54-2.9H53.3v5.7h2A2.58,2.58,0,0,0,57.91,939,2.26,2.26,0,0,0,57.9,938.7Z"/><path class="cls-12" d="M67,941.6v1H62.4V935h4.5v1H63.4v2.3h3.2v.9H63.4v2.4Z"/><path class="cls-12" d="M70,940.8l.9-.5a2,2,0,0,0,2,1.4c1.1,0,1.6-.5,1.6-1.2s-.7-1-1.8-1.4-2.4-.8-2.4-2.2a2.21,2.21,0,0,1,2.21-2.21h.19a2.66,2.66,0,0,1,2.6,1.7l-.8.5a1.74,1.74,0,0,0-1.7-1.2c-.8,0-1.4.4-1.4,1.1s.5,1,1.6,1.3c1.3.4,2.6.8,2.6,2.3a2.32,2.32,0,0,1-2.45,2.21H73A2.84,2.84,0,0,1,70,940.8Z"/><path class="cls-12" d="M80,934.9v7.6H79v-7.6Z"/><path class="cls-12" d="M91.3,939.2a3.47,3.47,0,0,1-3.43,3.51H87.6a3.89,3.89,0,0,1-4-3.77v-.23a4,4,0,0,1,7.3-2.2l-.9.5a2.77,2.77,0,0,0-2.4-1.4,3,3,0,0,0,0,6,2.5,2.5,0,0,0,2.7-2H87.5v-.9h3.8Z"/><path class="cls-12" d="M100.6,934.9v7.6h-.8l-3.9-5.7v5.7h-1v-7.6h.8l3.9,5.7v-5.7Z"/><path class="cls-12" d="M109.1,941.6v1h-4.6V935H109v1h-3.5v2.3h3.2v.9h-3.2v2.4Z"/><path class="cls-12" d="M119.2,938.7a3.65,3.65,0,0,1-3.46,3.8H112.6v-7.6h3a3.7,3.7,0,0,1,3.6,3.8Zm-1,0a2.73,2.73,0,0,0-2.54-2.9H113.6v5.7h2a2.58,2.58,0,0,0,2.61-2.54A2.26,2.26,0,0,0,118.2,938.7Z"/><path class="cls-12" d="M133.2,940.4a2.22,2.22,0,0,1-2.2,2.2h-3.3V935h3a2.05,2.05,0,0,1,2.1,2v.1a1.94,1.94,0,0,1-.8,1.6A1.65,1.65,0,0,1,133.2,940.4Zm-4.5-4.6v2.3h2a1.13,1.13,0,0,0,1.1-1.17v0a1.2,1.2,0,0,0-1.1-1.2h-2Zm3.5,4.5a1.15,1.15,0,0,0-1.11-1.2H128.7v2.5H131a1.24,1.24,0,0,0,1.2-1.28v0Z"/><path class="cls-12" d="M139.4,939.4v3.1h-1v-3.1l-2.7-4.5h1.1l2.1,3.6,2.1-3.6h1.1Z"/><path class="cls-12" d="M211,935v7.7h-.83l-4-5.75v5.75h-1V935H206l4,5.74V935Z"/><path class="cls-12" d="M219.4,941.71v1h-4.6V935h4.55v1h-3.52v2.37h3.24v1h-3.24v2.45Z"/><path class="cls-12" d="M222.29,935h1.07l1.76,6.34L227,935h1l1.87,6.34,1.76-6.34h1.08l-2.21,7.7h-1.19l-1.83-6.15-1.82,6.15H224.5Z"/><path class="cls-12" d="M243.22,935v7.7h-1v-6.6l-1.64.49-.26-.88,2-.7Z"/><path class="cls-12" d="M246.77,938.82c0-2.37,1.07-4,3-4s3,1.62,3,4-1.05,4-3,4S246.77,941.2,246.77,938.82Zm4.93,0c0-1.91-.71-3-2-3s-1.94,1.09-1.94,3,.7,3,1.94,3,2-1.07,2-3Z"/><path class="cls-12" d="M260.55,939h0l-2.49,3.7h-1.16l1.83-2.7-.37,0a2.59,2.59,0,1,1,2.65-2.58A2.65,2.65,0,0,1,260.55,939Zm-2.18.06a1.61,1.61,0,1,0-1.64-1.62,1.54,1.54,0,0,0,1.46,1.62Z"/><path class="cls-12" d="M217.81,963.62h-2.43v-8.06l-3.5,5.77h-.29l-3.5-5.75v8h-2.45V951.19h2.52l3.57,5.88,3.56-5.88h2.52Z"/><path class="cls-12" d="M229.05,954.74v8.88h-2.29v-1a3.59,3.59,0,0,1-2.9,1.3,4.71,4.71,0,0,1,0-9.38,3.53,3.53,0,0,1,2.9,1.3v-1Zm-2.29,4.44a2.46,2.46,0,1,0-2.47,2.5,2.39,2.39,0,0,0,2.47-2.3v-.2Z"/><path class="cls-12" d="M240.62,959.18a4.49,4.49,0,0,1-4.3,4.69h0a3.43,3.43,0,0,1-2.88-1.3v4.6h-2.29V954.74h2.29v1a3.45,3.45,0,0,1,2.88-1.3,4.49,4.49,0,0,1,4.33,4.65Zm-2.29,0a2.46,2.46,0,1,0-2.47,2.5,2.38,2.38,0,0,0,2.47-2.3Z"/><path class="cls-12" d="M254,961.28v2.34h-7.19V951.19h2.45v10.09Z"/><path class="cls-12" d="M254.61,959.18a4.7,4.7,0,1,1,4.71,4.69h0a4.64,4.64,0,0,1-4.69-4.59Zm7.1,0a2.41,2.41,0,1,0-2.41,2.46,2.36,2.36,0,0,0,2.41-2.31A.75.75,0,0,0,261.71,959.18Z"/><path class="cls-12" d="M265.15,959.18a4.6,4.6,0,0,1,4.49-4.69h.2a4.49,4.49,0,0,1,4,2.3l-2,1.15a2.21,2.21,0,0,0-2-1.19,2.43,2.43,0,0,0,0,4.85,2.2,2.2,0,0,0,2.05-1.17l2,1.13a4.67,4.67,0,0,1-8.7-2.38Z"/><path class="cls-12" d="M284,954.74v8.88h-2.29v-1a3.59,3.59,0,0,1-2.9,1.3,4.71,4.71,0,0,1,0-9.38,3.53,3.53,0,0,1,2.9,1.3v-1Zm-2.29,4.44a2.46,2.46,0,1,0-2.47,2.5,2.38,2.38,0,0,0,2.47-2.3v-.2Z"/><path class="cls-12" d="M289.11,957v3.7c0,1,.69,1,2,.9v2.08c-3.21.35-4.3-.59-4.3-3V957h-1.54v-2.2h1.54V953l2.3-.69v2.49h2V957Z"/><path class="cls-12" d="M292.46,952.27a1.41,1.41,0,1,1,1.42,1.4h0A1.42,1.42,0,0,1,292.46,952.27Zm.27,2.47H295v8.88h-2.29Z"/><path class="cls-12" d="M296.65,959.18a4.7,4.7,0,1,1,4.71,4.69h0a4.64,4.64,0,0,1-4.69-4.59Zm7.11,0a2.41,2.41,0,1,0-2.42,2.46,2.37,2.37,0,0,0,2.42-2.31Z"/><path class="cls-12" d="M316,958.17v5.45h-2.29v-5.16a1.65,1.65,0,0,0-1.46-1.83h-.3c-1.12,0-1.95.65-1.95,2.2v4.8h-2.29v-8.88H310v1a3,3,0,0,1,2.65-1.25C314.48,954.5,316,955.81,316,958.17Z"/><path class="cls-12" d="M848.13,938.45a3.65,3.65,0,0,1-3.48,3.81h-3.11v-7.62h3a3.65,3.65,0,0,1,3.62,3.67A.66.66,0,0,1,848.13,938.45Zm-1,0a2.66,2.66,0,0,0-2.47-2.85h-2.14v5.7h2a2.67,2.67,0,0,0,2.65-2.68A1,1,0,0,0,847.16,938.45Z"/><path class="cls-12" d="M851.25,938.45a3.93,3.93,0,1,1,0,.06Zm6.89,0a2.92,2.92,0,1,0,0,.09v-.09Z"/><path class="cls-12" d="M861.78,934.64h1.07l1.74,6.27,1.86-6.27h1l1.85,6.27,1.75-6.27h1.06l-2.19,7.62h-1.17L867,936.17l-1.81,6.09H864Z"/><path class="cls-12" d="M881.27,934.64v7.62h-.82l-3.92-5.7v5.7h-1v-7.62h.81l3.93,5.68v-5.68Z"/><path class="cls-12" d="M889.5,941.3v1h-4.3v-7.63h1v6.67Z"/><path class="cls-12" d="M891.88,938.45a3.93,3.93,0,1,1,0,.06Zm6.88,0a2.94,2.94,0,1,0-2.94,3,2.9,2.9,0,0,0,2.94-2.87v-.09Z"/><path class="cls-12" d="M907.42,940.55H904l-.62,1.71h-1.08l2.84-7.62h1.14l2.85,7.62H908Zm-.35-.95-1.37-3.75-1.36,3.75Z"/><path class="cls-12" d="M918.91,938.45a3.65,3.65,0,0,1-3.48,3.81h-3.12v-7.62h3a3.65,3.65,0,0,1,3.62,3.67Zm-1,0a2.67,2.67,0,0,0-2.48-2.85h-2.13v5.7h2a2.67,2.67,0,0,0,2.65-2.68v-.17Z"/><path class="cls-12" d="M928.46,935.6v2.47h3.23v1h-3.23v3.24h-1v-7.63h4.39v1Z"/><path class="cls-12" d="M938.17,939.34h-1.8v2.92h-1v-7.62h3a2.35,2.35,0,0,1,.8,4.57l1.8,3h-1.13Zm-1.8-.91h2a1.42,1.42,0,0,0,0-2.84h-2Z"/><path class="cls-12" d="M943.87,938.45a4,4,0,1,1,3.94,4h0a3.92,3.92,0,0,1-3.94-3.9Zm6.89,0a2.95,2.95,0,1,0-3,3,2.91,2.91,0,0,0,3-2.87v-.09Z"/><path class="cls-12" d="M962.42,942.26h-1v-6l-2.5,4.15h-.13l-2.5-4.14v6h-1v-7.63h1.14l2.43,4,2.42-4h1.15Z"/><path class="cls-12" d="M841.32,952.65a1.22,1.22,0,1,1,1.22,1.22A1.22,1.22,0,0,1,841.32,952.65Zm.26,2.55h1.92v8.85h-1.91Z"/><path class="cls-12" d="M845.71,951.13h1.91v12.92h-1.91Z"/><path class="cls-12" d="M849.83,951.13h1.92v12.92h-1.92Z"/><path class="cls-12" d="M854,951.13h1.91v12.92H854Z"/><path class="cls-12" d="M866,955.2v8.85h-1.91v-1.13a3.05,3.05,0,0,1-2.74,1.36,3.3,3.3,0,0,1-3.42-3.19,3.62,3.62,0,0,1,0-.46V955.2h1.91v5.24a1.85,1.85,0,0,0,1.62,2h.36c1.26,0,2.25-.74,2.25-2.55V955.2Z"/><path class="cls-12" d="M874.62,961.55c0,1.77-1.54,2.73-3.45,2.73a3.68,3.68,0,0,1-3.61-2.07l1.64-1a2,2,0,0,0,2,1.28c.85,0,1.5-.29,1.5-1,0-1.58-4.76-.7-4.76-3.86,0-1.67,1.43-2.71,3.24-2.71a3.54,3.54,0,0,1,3.27,1.84l-1.61.9a1.71,1.71,0,0,0-1.66-1c-.69,0-1.3.3-1.3.94C869.86,959.25,874.62,958.28,874.62,961.55Z"/><path class="cls-12" d="M878.7,957v4.25c0,1.13.74,1.11,2.2,1v1.72c-2.94.35-4.11-.46-4.11-2.76V957h-1.63V955.2h1.63v-1.91l1.91-.57v2.48h2.2V957Z"/><path class="cls-12" d="M887.35,955v2.07a2.33,2.33,0,0,0-2.69,1.91,1.82,1.82,0,0,0,0,.57v4.46h-1.91V955.2h1.91v1.49A2.77,2.77,0,0,1,887.35,955Z"/><path class="cls-12" d="M897.29,955.2v8.85h-1.91v-1.27a3.68,3.68,0,0,1-3.1,1.5,4.66,4.66,0,0,1,0-9.31,3.67,3.67,0,0,1,3.1,1.48V955.2Zm-1.91,4.43a2.8,2.8,0,1,0-2.8,2.83,2.74,2.74,0,0,0,2.8-2.67v-.17Z"/><path class="cls-12" d="M902.26,957v4.25c0,1.13.75,1.11,2.2,1v1.72c-2.94.35-4.1-.46-4.1-2.76V957h-1.63V955.2h1.63v-1.91l1.91-.57v2.48h2.19V957Z"/><path class="cls-12" d="M905.93,952.65a1.22,1.22,0,0,1,2.44,0h0a1.22,1.22,0,0,1-2.44,0Zm.27,2.55h1.91v8.85H906.2Z"/><path class="cls-12" d="M909.83,959.62a4.67,4.67,0,1,1,4.69,4.66h0a4.62,4.62,0,0,1-4.67-4.57Zm7.43,0a2.76,2.76,0,1,0-2.76,2.8,2.71,2.71,0,0,0,2.76-2.67Z"/><path class="cls-12" d="M929,958.62v5.43h-1.92v-5.24a1.84,1.84,0,0,0-1.62-2h-.36c-1.26,0-2.25.74-2.25,2.55v4.74h-1.91V955.2h1.91v1.13a3.07,3.07,0,0,1,2.75-1.36,3.3,3.3,0,0,1,3.41,3.18A3.69,3.69,0,0,1,929,958.62Z"/><path class="cls-12" d="M937.5,961.55c0,1.77-1.54,2.73-3.45,2.73a3.68,3.68,0,0,1-3.61-2.07l1.64-1a2,2,0,0,0,2,1.28c.85,0,1.5-.29,1.5-1,0-1.58-4.76-.7-4.76-3.86,0-1.67,1.43-2.71,3.24-2.71a3.54,3.54,0,0,1,3.27,1.84l-1.61.9a1.71,1.71,0,0,0-1.66-1c-.69,0-1.3.3-1.3.94C932.74,959.25,937.5,958.28,937.5,961.55Z"/><path class="cls-12" d="M938.83,962.93a1.33,1.33,0,0,1,2.66,0h0a1.33,1.33,0,0,1-2.66,0Z"/><path class="cls-12" d="M942.32,959.62a4.56,4.56,0,0,1,4.47-4.65h.2a4.37,4.37,0,0,1,4,2.28l-1.65,1a2.48,2.48,0,0,0-2.32-1.37,2.78,2.78,0,0,0,0,5.56,2.6,2.6,0,0,0,2.36-1.36L951,962a4.46,4.46,0,0,1-4,2.3,4.57,4.57,0,0,1-4.67-4.48Z"/><path class="cls-12" d="M951.72,959.62a4.68,4.68,0,1,1,4.69,4.66h0a4.62,4.62,0,0,1-4.67-4.57Zm7.44,0a2.77,2.77,0,1,0-2.76,2.8,2.71,2.71,0,0,0,2.76-2.67Z"/><rect class="cls-1" x="39" y="919" width="940" height="57"/></svg>