<svg id="Capa_1" data-name="Capa 1" xmlns="http://www.w3.org/2000/svg" xmlns:xlink="http://www.w3.org/1999/xlink" viewBox="0 0 1000 1000"><defs><style>.cls-1{fill:none;}.cls-2{fill:#e6faff;}.cls-3{fill:#b3b1b1;}.cls-4{fill:#595959;}.cls-31,.cls-5{fill:#666;}.cls-6{fill:#d94a44;}.cls-7{fill:#eaeaea;opacity:0.14;}.cls-12,.cls-26,.cls-27,.cls-28,.cls-29,.cls-31,.cls-32,.cls-7{isolation:isolate;}.cls-8{fill:#d34444;}.cls-9{fill:#ce3a3a;}.cls-10{fill:#5e5e5e;}.cls-11{fill:#727272;}.cls-12,.cls-23{fill:#424242;}.cls-12{opacity:0.71;}.cls-13{fill:#6b5245;}.cls-14{clip-path:url(#clip-path);}.cls-15{fill:#711c43;}.cls-16{fill:#b71046;}.cls-17{fill:#e90101;}.cls-18{fill:#f5640b;}.cls-19{fill:#fe9402;}.cls-20{fill:#cdd555;}.cls-21{fill:#8a90bc;}.cls-22{fill:#919191;}.cls-24{fill:#8b8b8b;}.cls-25{fill:#b2b2b2;}.cls-26{opacity:0.76;fill:url(#Degradado_sin_nombre);}.cls-27{fill:#0a0a0a;opacity:0.3;}.cls-28{fill:#fff;opacity:0.68;}.cls-29{fill:#c4c4c4;opacity:0.39;}.cls-30{clip-path:url(#clip-path-2);}.cls-31{opacity:0.52;}.cls-32{fill:#a0a0a0;opacity:0.81;}</style><clipPath id="clip-path"><path class="cls-1" d="M370.55,440.14c-28.44,9-48.74,37.39-49.8,71.86-1.6,51.49,6.67,116.22,36.8,141,28,23,73.35,18.57,107.13,18.17,45.78-.54,96.1-2.26,138.29-22.3,61.85-29.39,40.83-126.11,16.73-176.36-16-33.26-41.93-44.68-79.44-49.61C484.76,415.58,411.65,427.06,370.55,440.14Z"/></clipPath><linearGradient id="Degradado_sin_nombre" x1="296.56" y1="633.76" x2="575.92" y2="349.82" gradientTransform="matrix(1, 0, 0, -1, 0, 1002)" gradientUnits="userSpaceOnUse"><stop offset="0.23" stop-color="#fff" stop-opacity="0"/><stop offset="1" stop-color="#fff"/></linearGradient><clipPath id="clip-path-2"><ellipse class="cls-1" cx="584.83" cy="690.53" rx="31.61" ry="14.65" transform="translate(-60.52 56.2) rotate(-5.23)"/></clipPath></defs><rect class="cls-2" width="1000" height="1000"/><ellipse class="cls-3" cx="523.08" cy="687.21" rx="258.03" ry="54.63" transform="translate(-32.68 26.15) rotate(-2.78)"/><polygon class="cls-3" points="696.43 650.55 744.12 627.88 743.42 625.89 690.41 648.97 696.43 650.55"/><ellipse class="cls-3" cx="747.22" cy="623.68" rx="6.17" ry="7.5" transform="translate(-207.75 811.65) rotate(-50.99)"/><path class="cls-4" d="M629.84,268.56l78.39-120.13a.35.35,0,0,1,.48-.11.34.34,0,0,1,.11.47h0L637.33,273Z"/><path class="cls-4" d="M549.51,255.21,536.45,187.9a.5.5,0,0,1,1-.23l19.34,65.06Z"/><polygon class="cls-5" points="632 271.03 697.1 166.89 697.49 167.22 634.8 272.75 632 271.03"/><path class="cls-5" d="M538.5,195.81l14.85,58.75,2.2-1-18.91-65.07a.5.5,0,0,0-1,.23Z"/><path class="cls-6" d="M557.29,252.22l21.29,74a.51.51,0,0,1-.33.63.45.45,0,0,1-.28,0l-15.06-4a.51.51,0,0,1-.36-.4l-14-67Z"/><path class="cls-7" d="M556,252.71l-2.48.92,19.14,71.67,3.73,1a.5.5,0,0,0,.61-.35.45.45,0,0,0,0-.28Z"/><path class="cls-6" d="M638.1,272.76l-34.54,60.86a.34.34,0,0,1-.45.14l-12.35-6.17a.35.35,0,0,1-.16-.46.08.08,0,0,0,0,0l38.68-59.17Z"/><polygon class="cls-7" points="633.61 270.29 598.28 327.11 602.56 330.03 635.92 271.56 633.61 270.29"/><path class="cls-8" d="M456.57,347.62s56.9-57.27,128.49-32.37c39.47,13.73,54.37,69.16,54.37,69.16Z"/><path class="cls-9" d="M443.34,355.14s62.52-54.2,135.49-26.53c48.24,18.28,70,71.06,70,71.06Z"/><path class="cls-6" d="M534.85,741.52c-66.13,3.16-203.07,13.24-237.45-60.95-17.17-37.05-12.2-84.14-11.91-124,.25-34.91-5.2-75.24,3.8-109.37,20.14-76.4,131.83-108.13,200.6-110.58,63.78-2.28,110.72,16.23,155,45.44,42.42,28,49.56,96.74,49.81,141.2.29,52,6.31,106.74-12,157C664,732,580.27,739.38,534.85,741.52Z"/><path class="cls-9" d="M402.73,731.65c-40.85-2.66-67.73-13.43-84.8-24.17,51.56,44.53,160.24,36.75,216.92,34,28.82-1.36,73.06-4.86,106.34-20.43C588.46,734.5,486.58,737.11,402.73,731.65Z"/><path class="cls-4" d="M453.86,725.79c-37.65,0-80.75-1.5-104.41-8.65-29.6-8.95-39.55-17.33-49.1-37.94-13.93-30.05-13-66.47-12-101.68.19-7.27.37-14.14.42-20.95.07-9.81-.3-19.8-.68-30.38-1-26.57-3.13-54.38,4.38-78.19,29-91.93,276.17-89.5,339.47-51.36,18.57,11.18,42.83,21.51,50.75,50.92,5.68,21.1,8.64,46.56,8.8,75.69,0,9.91.32,20.09.58,29.94,1.1,42.18,2.25,85.8-12.34,126-7.34,20.24-24.16,33.86-51.42,41.66C604.46,727.64,479.28,725.79,453.86,725.79Z"/><path class="cls-10" d="M681.51,673.85c.3-.9.59-1.81.88-2.72.15-.52.31-1,.46-1.55.25-.84.5-1.68.74-2.52l.45-1.62c.23-.83.45-1.65.67-2.48.14-.54.28-1.09.41-1.63.21-.84.42-1.68.62-2.52.12-.53.25-1.06.37-1.59.2-.87.39-1.75.58-2.63.11-.49.21-1,.32-1.48.2-1,.39-1.91.57-2.87l.24-1.24q.33-1.75.63-3.51c0-.21.07-.41.11-.62q.72-4.27,1.29-8.57c0-.14,0-.29,0-.43.17-1.26.33-2.53.47-3.81,0-.28.06-.55.1-.83.13-1.14.25-2.29.37-3.45l.09-.93c.11-1.13.21-2.25.31-3.38,0-.31,0-.62.08-.93l.27-3.46c0-.27,0-.54,0-.8.09-1.24.17-2.48.24-3.71,0-.18-.09-.37-.08-.55.08-1.41.11-2.82.11-4.24h0c0-5.92.3-11.5.57-16.78.13-13.31-.17-26.63-.51-39.8-.26-9.85-.5-20-.55-29.94-.16-28.52-3-53.51-8.44-74.34.38,5.21,1.34,10.8,1.77,16.41,1.87,24.72,3,54.53-1.14,103-2.35,27.71-9.73,79-36.06,99.54-19.11,14.92-39,9.74-39,9.74s-47.11,14.76-56.26,18.94c-10.07,4.6-26.8,4.2-44.69,2.65,0,0-19.69-.76-20.91,2.22s-6.22-3.25-6.22-4.6c-.81,5.54-13.26,7-16.77,2-4.87-5-8.66,2.94-12.31,3.2s-3.77-13.54-10.77-6.9c-3.19,3-13-6.16-22.91-.89-13.53,7.16-54.75,2.43-66.32-1.49-16-5.44-47.61-10.82-54.46-68.17-5.16-43.2-4.87-62.76-8.37-81.31.11,4.48.16,8.88.13,13.25-.05,6.82-.23,13.69-.42,21-.93,35.21-1.89,71.62,12,101.68,9.55,20.61,19.5,29,49.1,37.93a148.71,148.71,0,0,0,21.82,4.49c1.6.18,3.24.4,4.91.64l1.44.17,1.24.15,1.5.16,1.36.14,2.46.25,1.26.12,1.58.15,1.32.11,2.56.22,1.38.11,1.62.12,1.33.1,2.35.16,1.73.12,1.61.1,1.43.08,1.57.09,2.59.14,1.53.07,1.56.08,1.54.07,2.17.09,1.85.07,1.82.07,1.44,0,2.09.07,1.61,0,2.3.06,1.3,0,2.13,0,1,0,3,.06,1.1,0,2.27,0h1l3,0h.88l2.46,0h.9l3.12,0h.54l2.69,0h4c25.41,0,150.59,1.85,174.4-5l2.28-.67.73-.23,1.53-.48.83-.28,1.43-.48.78-.27,2-.72.93-.36,1.09-.42,1.1-.44.83-.35,1.18-.5.57-.25c1.48-.66,2.93-1.34,4.33-2l.26-.13,1.43-.74.16-.08q3.06-1.64,5.84-3.44a85.56,85.56,0,0,0,17.06-16.13h0a57.65,57.65,0,0,0,4-6.51.54.54,0,0,1,.07-.13c.27-.52.53-1,.79-1.59.05-.11.1-.23.16-.35.22-.46.43-.93.64-1.4.11-.25.21-.5.31-.75L679,681c.24-.61.47-1.22.7-1.85.48-1.33.95-2.67,1.4-4Z"/><path class="cls-11" d="M431.41,674.46c-25.88,0-55.11-2.29-75.77-19.27-14.19-11.65-24.63-32.4-31-61.67-5.13-23.38-7.45-52.16-6.56-81a85.6,85.6,0,0,1,15-46.64c9.23-13.19,21.77-22.6,36.28-27.22C397.82,429.56,449.6,419,501.85,419a295,295,0,0,1,38.15,2.3c20.86,2.74,36.3,7.34,48.6,14.46,14,8.12,24.66,20,32.5,36.36,19.22,40.08,32.27,98.49,18.07,138.63-6.66,18.82-18.71,32.49-35.83,40.62-41.61,19.77-89.58,21.93-139.18,22.51-4.13,0-8.37.16-12.87.27-6.44.16-13.11.33-19.89.33Z"/><path class="cls-12" d="M432,677.1c-27,0-57.65-2.43-79.9-20.71-15.33-12.6-26.52-34.56-33.26-65.29-5.23-23.88-7.61-53.22-6.7-82.63a92.09,92.09,0,0,1,16.2-50.15c10.06-14.37,23.76-24.63,39.64-29.68,28.91-9.2,81.47-19.94,134.47-19.94a300.88,300.88,0,0,1,39,2.35c21.74,2.86,38,7.71,51,15.27,15.2,8.8,26.68,21.62,35.1,39.17,19.81,41.3,33.16,101.71,18.33,143.62-7.25,20.5-20.42,35.41-39.15,44.31-42.8,20.34-91.55,22.55-141.9,23.14-4.05.05-8.24.15-12.67.26l-.11,0c-6.48.16-13.18.3-20.05.3Z"/><path class="cls-13" d="M432.41,674.46c-26.1,0-55.6-2.31-76.44-19.44-14.31-11.75-24.84-32.69-31.31-62.22-5.17-23.58-7.52-52.62-6.62-81.76a86.33,86.33,0,0,1,15.16-47c9.31-13.31,22-22.8,36.6-27.46,28.72-9.14,81-19.81,133.67-19.81A296.56,296.56,0,0,1,542,419.05c21,2.76,36.62,7.4,49,14.58,14.15,8.2,24.88,20.2,32.79,36.68,19.4,40.43,32.55,99.36,18.23,139.86-6.72,19-18.88,32.77-36.14,41-42,19.94-90.38,22.12-140.41,22.71-4.17,0-8.45.15-13,.27-6.5.16-13.22.34-20.06.34Z"/><g class="cls-14"><rect class="cls-15" x="315.54" y="405.02" width="49.86" height="288.31"/><rect class="cls-16" x="364.54" y="405.02" width="49.86" height="288.31"/><rect class="cls-17" x="413.55" y="405.02" width="49.86" height="288.31"/><rect class="cls-18" x="462.56" y="405.02" width="49.86" height="288.31"/><rect class="cls-19" x="511.57" y="405.02" width="49.86" height="288.31"/><rect class="cls-20" x="560.58" y="405.02" width="49.86" height="288.31"/><rect class="cls-21" x="609.59" y="405.02" width="49.86" height="288.31"/></g><ellipse class="cls-4" cx="538.13" cy="188.58" rx="14.07" ry="13.52"/><path class="cls-5" d="M551.32,183.91a14.05,14.05,0,0,0-13.19-8.86,14.3,14.3,0,0,0-8.55,2.8,11,11,0,0,0-1.89,6.15,11.82,11.82,0,0,0,23.63,0Z"/><ellipse class="cls-4" cx="703.47" cy="157.08" rx="12.44" ry="12.88"/><path class="cls-5" d="M703.47,144.2a12.41,12.41,0,0,0-11.22,7.34,12.63,12.63,0,0,0,12.39,11.81A12.45,12.45,0,0,0,715.87,156,12.62,12.62,0,0,0,703.47,144.2Z"/><circle class="cls-22" cx="499.97" cy="698.39" r="13.98" transform="translate(-269.49 1080.03) rotate(-80.78)"/><circle class="cls-23" cx="499.97" cy="698.57" r="13.8" transform="translate(-269.67 1080.18) rotate(-80.78)"/><path class="cls-22" d="M500,712.1A13.85,13.85,0,0,1,489.69,689a13.89,13.89,0,1,0,20.36,18.9,14.14,14.14,0,0,0,2.09-2.94A13.87,13.87,0,0,1,500,712.1Z"/><circle class="cls-24" cx="499.87" cy="698.48" r="12.67" transform="translate(-229.25 244.46) rotate(-22.5)"/><path class="cls-25" d="M512.46,697a12.67,12.67,0,0,1-25.19,2.76,12.67,12.67,0,0,0,25.22-2.49Z"/><circle class="cls-5" cx="499.88" cy="698.48" r="10.64"/><circle class="cls-25" cx="499.88" cy="698.48" r="9.69"/><circle class="cls-24" cx="499.88" cy="698.48" r="9.56"/><path class="cls-26" d="M441.63,666.82c-22.54,0-47.92-1.89-65.21-16.09-25.81-21.21-33.46-78.75-32-125.55.9-29,17.9-53.67,42.3-61.44C414.43,454.92,462.17,446,506.36,446a263.3,263.3,0,0,1,34.15,2.05c31.16,4.1,54.84,12.95,69.16,42.81a235,235,0,0,1,18.86,59.54c4.18,24.4,3.3,46-2.54,62.52-5.47,15.49-15.35,26.71-29.34,33.36-37,17.56-80.22,19.49-125,20-3.84,0-7.77.12-11.92.23-5.88.15-12,.27-18.1.27Z"/><path class="cls-27" d="M332.65,522.82C333.71,488.35,354,460,382.45,451c41.1-13.08,114.2-24.56,169.71-17.26,21.93,2.88,39.92,8,54.27,18.38-15.85-18-37.69-25.46-66.17-29.2-55.5-7.3-128.61,4.18-169.72,17.26-28.43,9.05-48.73,37.39-49.8,71.86-1.6,51.49,6.68,116.23,36.81,141,1.4,1.16,2.85,2.24,4.34,3.26C337.93,627.57,331.19,569.71,332.65,522.82Z"/><path class="cls-1" d="M370.55,440.14c-28.44,9-48.74,37.39-49.8,71.86-1.6,51.49,6.67,116.22,36.8,141,28,23,73.35,18.57,107.13,18.17,45.78-.54,96.1-2.26,138.29-22.3,61.85-29.39,40.83-126.11,16.73-176.36-16-33.26-41.93-44.68-79.44-49.61C484.76,415.58,411.65,427.06,370.55,440.14Z"/><ellipse class="cls-28" cx="569.1" cy="507.76" rx="18.4" ry="29.22" transform="translate(-85.61 116.55) rotate(-10.88)"/><path class="cls-12" d="M579.78,707.21c-16.36,0-28.3-5.58-29-13.56-.84-9.18,13.47-17.75,32.58-19.5,2.2-.2,4.4-.3,6.56-.3,16.35,0,28.29,5.58,29,13.56.84,9.19-13.47,17.75-32.58,19.5C584.14,707.11,581.93,707.21,579.78,707.21Z"/><path class="cls-29" d="M587.16,706.36c-2.22.2-4.44.31-6.61.31-16.49,0-28.52-5.62-29.26-13.67a10.05,10.05,0,0,1,2.27-7,10.3,10.3,0,0,0-2.8,7.63c.73,8,12.66,13.56,29,13.56,2.15,0,4.36-.1,6.55-.3,9.76-.89,18.25-3.56,24.13-7.18C604.59,703.07,596.44,705.51,587.16,706.36Z"/><path class="cls-29" d="M618.91,687.41c-.73-8-12.67-13.56-29-13.56-2.16,0-4.36.1-6.56.3-12.91,1.18-23.62,5.47-29,11,5.5-5.23,15.93-9.28,28.41-10.42,2.2-.2,4.4-.3,6.55-.3,16.36,0,28.3,5.58,29,13.56.27,3-1.06,5.89-3.62,8.53C617.67,693.71,619.2,690.6,618.91,687.41Z"/><ellipse class="cls-4" cx="584.95" cy="690.52" rx="32.73" ry="15.36" transform="translate(-60.52 56.21) rotate(-5.23)"/><g class="cls-30"><rect class="cls-23" x="545.97" y="690.71" width="70.92" height="1.22" transform="translate(-63.86 59.19) rotate(-5.53)"/><rect class="cls-23" x="545.74" y="688.36" width="70.92" height="1.22" transform="translate(-63.63 59.16) rotate(-5.53)"/><rect class="cls-23" x="545.13" y="685.93" width="70.89" height="1.22" transform="translate(-63.25 58.93) rotate(-5.51)"/><rect class="cls-23" x="545.29" y="683.66" width="70.92" height="1.22" transform="translate(-63.18 59.09) rotate(-5.53)"/><rect class="cls-23" x="545.06" y="681.31" width="70.92" height="1.22" transform="translate(-62.96 59.06) rotate(-5.53)"/><rect class="cls-23" x="544.83" y="678.96" width="70.92" height="1.22" transform="translate(-62.73 59.03) rotate(-5.53)"/><rect class="cls-23" x="544.22" y="676.53" width="70.89" height="1.22" transform="translate(-62.35 58.8) rotate(-5.51)"/><rect class="cls-23" x="544.38" y="674.26" width="70.92" height="1.22" transform="translate(-62.28 58.96) rotate(-5.53)"/><rect class="cls-23" x="546.88" y="707.22" width="70.92" height="1.22" transform="translate(-65.44 59.36) rotate(-5.53)"/><rect class="cls-23" x="546.65" y="704.87" width="70.92" height="1.22" transform="translate(-65.22 59.32) rotate(-5.53)"/><rect class="cls-23" x="546.42" y="702.52" width="70.92" height="1.22" transform="translate(-64.99 59.29) rotate(-5.53)"/><rect class="cls-23" x="546.19" y="700.17" width="70.92" height="1.22" transform="translate(-64.77 59.26) rotate(-5.53)"/><rect class="cls-23" x="545.97" y="697.82" width="70.92" height="1.22" transform="translate(-64.54 59.22) rotate(-5.53)"/><rect class="cls-23" x="545.74" y="695.47" width="70.92" height="1.22" transform="translate(-64.32 59.19) rotate(-5.53)"/><rect class="cls-23" x="545.51" y="693.12" width="70.92" height="1.22" transform="translate(-64.09 59.16) rotate(-5.53)"/><rect class="cls-23" x="545.29" y="690.77" width="70.92" height="1.22" transform="translate(-63.87 59.13) rotate(-5.53)"/></g><rect class="cls-5" x="498.79" y="688.19" width="1.98" height="9.33"/><rect class="cls-5" x="498.79" y="699.55" width="1.98" height="9.38"/><circle class="cls-22" cx="472.61" cy="695.04" r="9.36"/><circle class="cls-23" cx="472.57" cy="695.08" r="9.18"/><circle class="cls-24" cx="472.48" cy="695.17" r="8.55"/><path class="cls-31" d="M477.52,695.17a5,5,0,0,0-3.12-4.62l-1.15-3.89-.1,0a3.89,3.89,0,0,0-1.52,0l0,.05-1,3.85a5,5,0,0,0,0,9.25l1,3.81,0,.06a5.68,5.68,0,0,0,1.54.05l.38-.06.83-3.86A5,5,0,0,0,477.52,695.17Z"/><path class="cls-24" d="M472.55,703.21a4.07,4.07,0,0,1-.5,0l-.94-3.78-.25-.1a4.45,4.45,0,0,1,0-8.25l.26-.1.94-3.81.41,0,.36,0L474,691l.24.1a4.45,4.45,0,0,1,0,8.25l-.26.1-.82,3.78Z"/><circle class="cls-25" cx="472.48" cy="695.17" r="4.13"/><circle class="cls-22" cx="449.35" cy="695.04" r="9.36"/><circle class="cls-23" cx="449.3" cy="695.08" r="9.18"/><circle class="cls-24" cx="449.21" cy="695.17" r="8.55"/><path class="cls-31" d="M454.25,695.17a5,5,0,0,0-3.12-4.62L450,686.66l-.1,0a3.84,3.84,0,0,0-1.51,0l0,.05-.95,3.85a5,5,0,0,0,0,9.25l.94,3.81,0,.06a5.61,5.61,0,0,0,1.53.05l.39-.06.83-3.86A5,5,0,0,0,454.25,695.17Z"/><path class="cls-24" d="M449.29,703.21a4.07,4.07,0,0,1-.5,0l-.94-3.78-.25-.1a4.45,4.45,0,0,1,0-8.25l.25-.1,1-3.81.41,0,.36,0,1.12,3.82.25.1a4.45,4.45,0,0,1,0,8.25l-.27.1-.81,3.78Z"/><circle class="cls-25" cx="449.21" cy="695.17" r="4.13"/><circle class="cls-22" cx="426.63" cy="695.04" r="9.36"/><circle class="cls-23" cx="426.58" cy="695.08" r="9.18"/><circle class="cls-24" cx="426.49" cy="695.17" r="8.55"/><path class="cls-31" d="M430.76,697.83a5,5,0,0,0-.18-5.58l1.1-3.9-.07-.07a3.93,3.93,0,0,0-1.29-.8l-.06,0-2.85,2.75a5,5,0,0,0-4.91,7.84l-1.24,3.73v.06a5.73,5.73,0,0,0,1.27.87l.36.14,2.76-2.82A5,5,0,0,0,430.76,697.83Z"/><path class="cls-24" d="M422.28,702l-.41-.29,1.22-3.7-.16-.22a4.45,4.45,0,0,1,4.38-7l.27.05,2.83-2.73.36.2.29.21L430,692.36l.15.21a4.45,4.45,0,0,1-4.4,7l-.28,0-2.7,2.76C422.57,702.16,422.42,702.08,422.28,702Z"/><circle class="cls-25" cx="426.49" cy="695.17" r="4.13"/><path class="cls-10" d="M682.64,447.56c-7.91-29.4-32.18-39.73-50.74-50.92-51.92-31.29-227.59-38.55-305,10.6-17,10.77-29.22,24.24-34.43,40.76-2.5,7.95-6.41,37-5.38,60.86,1-22.57,20-64.45,29.57-73.66,21-20.23,71.7-39.89,148.87-44.87,48.24-3.11,99.08-2.27,137.46,7.26s66,27.24,77.42,50.32c2.86,5.78,3.64,11,5.75,14.89Q684.61,454.85,682.64,447.56Z"/><ellipse class="cls-32" cx="539.58" cy="180.87" rx="5.06" ry="3.24" transform="translate(-4.21 13.09) rotate(-1.38)"/><ellipse class="cls-32" cx="705.02" cy="148.87" rx="2.85" ry="5.06" transform="translate(455.26 824.76) rotate(-81.64)"/><path class="cls-8" d="M300.18,421.75c12.94-17.93,46.09-45.39,97.75-61.76,71.19-22.57,122.12-23.27,171-14.24-23.68-6.82-49.54-10.21-79-9.16C429.32,338.75,335.46,363.64,300.18,421.75Z"/><path class="cls-4" d="M420.92,937.59a2.26,2.26,0,0,0,2.42-2.1,1.85,1.85,0,0,0,0-.23,2.09,2.09,0,0,0-1.93-2.21,1.45,1.45,0,0,0-.36,0,2.2,2.2,0,0,0-2.41,2c0,.05,0,.11,0,.17v.06a2.29,2.29,0,0,0,2.23,2.33Z"/><path class="cls-4" d="M476.41,941.87c-.13-.78,1.18-.91,1-1.56-.13-.9-.92-.9-1.44-.84-2.95.33-3.53,1.3-3.8,3.18a4,4,0,0,0,1.31,2.91A21.78,21.78,0,0,1,473,950a.93.93,0,0,0-.52.58,57,57,0,0,1-1.77,6.29,3.11,3.11,0,0,0-.65,1.23v.33c-.66,1.23-1.38,2.13-2.23,2.13-.39,0-.52-1-.52-2.4,0-2.4,1.24-9.07,1.24-10.5,0-1.88.33-3.5.33-5,0-.65-.46-.84-1.05-.84s-.72.32-1.18.32c-1.9,0-2.16,1-2.16,2.59,0,.65,0,9.85-.13,11-.13,2-1.24,4.34-3.33,4.34-1.9,0-2.82-2.59-2.82-5.38a31.89,31.89,0,0,1,.79-6.8c.2-.64,1-3.63,1-4,0-.72-.06-.91-.85-.91-3,.06-3.6.32-4.05,1.94a35.73,35.73,0,0,0-1,8v.84c-.72,2.2-1.5,4.67-3.54,4.8-1.37.07-1.83-3.37-1.83-6.93,0-7.07,2-13.94,2.29-21,.06-.65-.39-1.1-1.18-1.1a9.34,9.34,0,0,1-1.83.06c-.79,0-1.11.33-1.18,1.1-.65,7.07-2.09,15.69-2.09,22.56v.13c-.72,2.26-1.5,5.18-3.67,5.31-1.37.07-1.83-3.37-1.83-6.93,0-7.07,2-13.94,2.29-21,.07-.65-.39-1.1-1.18-1.1-1,0-1.37-.07-1.9-.07-.78,0-1.11.32-1.17,1.1-.66,7.07-2.1,15.69-2.1,22.56v.12c-.72,2.27-1.5,5.19-3.66,5.32-1.38.06-1.83-3.37-1.83-6.94,0-7.06,2-13.93,2.29-21,.06-.64-.4-1.1-1.18-1.1-1.11,0-1.44-.06-2-.06-.79,0-1.12.32-1.18,1.1-.66,7.06-2.1,15.68-2.1,22.55v1C425,956.52,424,959,422.75,959c-.58-.06-1-.9-1-2.85,0-3.56.32-8.49.65-12.25.07-.45-.13-.91-.65-.91s-1.9-.19-2.42-.19c-.79,0-1.12.45-1.12,1.3v1.3c.07,4.34-.39,7.78-.39,11.86,0,2.92,1.57,4.93,3.53,4.93s3.73-1.75,4.85-3.83c.59,2.2,1.7,4.15,3.92,4.15s4.13-2.27,5.5-4.8c.53,2.46,1.64,4.8,4.06,4.8,2.09,0,4.12-2.27,5.5-4.8.52,2.46,1.64,4.8,4.06,4.8,2,0,4.05-2.2,5.43-4.6.72,2.92,2.35,5.12,5.43,5.12,2.55,0,3.27-1,4.91-3.37.52,1.3.72,3.76,2.22,3.76,2.1,0,3.86-2.4,5-5.12a8.29,8.29,0,0,0,6.54,3.63c3.54,0,6.55-2.53,6.29-6.35C484.72,950.36,477,944.79,476.41,941.87Zm.92,17.43c-1.05,0-2.68-.64-2.75-2-.07-.78,1.77-1.17,2.42-1.56s.66-.58.66-.78c-.07-.45-.72-.78-1.44-.78a4.51,4.51,0,0,0-2.43.85c.2-.91,1.57-5.58,1.9-7.85a14.91,14.91,0,0,1,5.17,9.34c.2,2.52-2.68,2.78-3.53,2.78Z"/><path class="cls-4" d="M536,937.59a2.25,2.25,0,0,0,2.41-2.1,1.85,1.85,0,0,0,0-.23,2.08,2.08,0,0,0-1.93-2.21,1.45,1.45,0,0,0-.36,0,2.2,2.2,0,0,0-2.41,2,.91.91,0,0,0,0,.17v.06a2.27,2.27,0,0,0,2.22,2.33Z"/><path class="cls-4" d="M573.78,963.13c-1.18-.78-2-2-1.83-7.07.13-3.24.78-7.71.78-10.89,0-1.42-.65-3-2.49-3-2.29,0-5.62,4.66-6.67,6.74.13-1.23.52-4.86.59-6.09s.06-1.3-2.1-1.3c-1.44,0-1.57.26-1.57.77,0,3-.26,6.42-.52,9.86-.79,1.68-1.83,3.37-3.34,3.37a3,3,0,0,1-1.3-.33,10.08,10.08,0,0,0,1.11-4.34,3.12,3.12,0,0,0-3-3.24h-.15a3.7,3.7,0,0,0-3.87,3.54,2.57,2.57,0,0,0,0,.48c0,1.81,1.9,3.89,3.33,4.86a5,5,0,0,1-4.51,2.72c-2.82,0-3.8-5.12-3.8-7,0-3.63,1.31-7.71,5.62-7.71,2.95,0,2.95,1.94,4.19,1.94.13,0,.53-.19.53-.39,0-2.14-3.4-3.89-5.17-3.89-6,0-10.21,4.73-10.21,10.63a11.09,11.09,0,0,0,.59,3.57c-.59,1.49-1.31,2.65-2.23,2.65-.58,0-1-.84-1-2.78,0-3.57.32-8.49.65-12.25.07-.46-.13-.91-.65-.91s-1.9-.19-2.42-.19c-.79,0-1.12.45-1.12,1.3v1.3c0,2.27-.13,4.21-.2,6.15a1.38,1.38,0,0,0-.2.33c-.72,1.94-1.63,7.32-3.8,7.32-.65,0-2-.91-2-3.43,0-4.09,1.38-12.25,1.57-13.68,2.1-.45,3.93-.32,6.42-1,1.11-.32.45-1.62-.79-1.49a35.15,35.15,0,0,1-5.43,0c.07-2.14.59-3.5.59-5.7v-.2c0-.58-.26-1-.85-1-1.18,0-3,.39-3,2s-.33,3.17-.26,4.86c-1.18.06-2.23-.26-3.4-.26-.85,0-1,1.55-1,2.14s.07,1.1.46,1.1a29.19,29.19,0,0,0,3.73-.33c-.33,4.28-.85,6.68-1.18,9.66,0,.19-.07.45-.07.71-.72,2.27-2.09,5.77-3.2,5.77a1.45,1.45,0,0,1-1.1-1.23,42.51,42.51,0,0,1,1.18-10.3,10.46,10.46,0,0,0,.65-2.53c0-.84-1.37-1.3-2.09-1.3-1.18,0-1.11.65-1.57,1.69-.85-.65-1.05-1.82-3.34-1.82-4.18,0-6.74,6.74-6.74,11,0,.71-.06,1.1-.06,1.49,0,2.4-1.38,5.38-2.82,5.38-1.24,0-1.63-3.37-1.63-4.8a31.49,31.49,0,0,1,1.7-8.43,6.23,6.23,0,0,0,.91-2.27c0-.9-1-2.4-2.09-2.4s-1.9.65-3.14.65c-2,0-3.27-1.23-4.38-1.23a1,1,0,0,0-1.12.93v.17c0,1.75,1.9,1.43,1.44,3.63s-1.83,7.71-2.61,9.85a.46.46,0,0,0-.07.32,1.75,1.75,0,0,0,.13.65c-.46.78-1,1.3-1.64,1.3s-2-.9-2-3.43c0-4.08,1.37-12.25,1.57-13.68,2.09-.45,3.92-.32,6.41-1,1.11-.33.46-1.62-.79-1.49a35.15,35.15,0,0,1-5.43,0c.07-2.14.59-3.5.59-5.7,0-.59-.26-1-.85-1-1.18,0-3,.39-3,2s-.33,3.17-.26,4.86c-1.18.06-2.22-.26-3.4-.26-.85,0-1.05,1.56-1.05,2.14s.07,1.1.46,1.1a29.19,29.19,0,0,0,3.73-.33c-.33,4.28-.85,6.68-1.18,9.66a54.79,54.79,0,0,0-.46,5.57c0,2.79,2.42,5.06,4.45,5.06,3.6,0,6.55-7.26,6.55-10.24v-.39c.39-1.75.65-3.5,1-5,.06-.19.26-.78.78-.78,1.18,0,1.31.85,1.31,1.75,0,2.4-.85,6.68-.85,9.2s.65,5.51,3.53,5.51a6.35,6.35,0,0,0,5.5-3.63c.79,1.88,2.1,3.37,3.93,3.37s3.27-1.3,4.32-2.53c.26.65.65,2.4,2.55,2.4s3.14-1.49,4.19-3.37a4.91,4.91,0,0,0,4.25,3.76c2,0,3.93-2.4,5.1-5,.13,2.72,1.64,4.54,3.54,4.54s3.6-1.56,4.71-3.5A6.62,6.62,0,0,0,547,962c3.6,0,5.76-2.33,7.66-5.12a9.48,9.48,0,0,0,1.83.32,4.85,4.85,0,0,0,3.47-2c-.13,2.08-.26,4.09-.26,5.9,0,.65.13.91.59,1a5.91,5.91,0,0,0,1.83.07c.65,0,.78.06.92-.78.06-.58.45-7.52.45-8,0-1.42,3.47-7.45,5.17-7.45.33,0,.59.58.59,1,0,3.11-1,8.17-1,11.41,0,3.43,1.7,4.6,2.42,5a6.43,6.43,0,0,0,2.81.71C573.78,963.78,574.23,963.39,573.78,963.13Zm-57.45-6.61c-.07.9-1.7,3.24-3,3.24s-2-3.89-1.9-6.48c.07-3,1.57-8.49,3-8.49,1.9,0,2.16,4.53,2.16,6,0,1.62-.19,4.15-.32,5.77Zm37.56-2.14a4.21,4.21,0,0,1-1.38-3.11c0-.59.2-1.88,1-1.88s1,1.42,1,2A11.36,11.36,0,0,1,553.89,954.38Z"/><path class="cls-4" d="M588.83,955.48c-.33-5.12-8.12-10.69-8.64-13.61-.13-.78,1.18-.91,1-1.56-.13-.9-.92-.9-1.44-.84-2.95.32-3.54,1.3-3.8,3.18a4,4,0,0,0,1.31,2.91c.07,2.27-1.18,8.56-2.62,11a5.38,5.38,0,0,0-.85,1.49c-.13.78.46,1.17,1,.65s.4-.65.85-1c1.05,2.4,4.32,4.08,6.81,4.08C586.08,961.83,589,959.3,588.83,955.48Zm-7.72,3.82c-1.05,0-2.69-.64-2.75-2-.07-.77,1.76-1.16,2.42-1.55s.65-.58.65-.78c-.06-.45-.72-.78-1.44-.78a4.51,4.51,0,0,0-2.42.85c.2-.91,1.57-5.58,1.9-7.85a14.88,14.88,0,0,1,5.17,9.34c.2,2.52-2.68,2.78-3.53,2.78Z"/><path class="cls-4" d="M63.2,959.2c0,2.5-1.2,3.7-2.6,3.7a1.93,1.93,0,0,1-2.1-1.4,2.19,2.19,0,0,1-1.8.8,2.81,2.81,0,0,1,0-5.6,2.16,2.16,0,0,1,1.6.7v-.5h1.6v3.9c0,.8.3,1.4,1,1.4.9,0,1.7-.9,1.7-3a5.23,5.23,0,0,0-5.16-5.3H57.2a5.55,5.55,0,0,0-5.6,5.5v.2a5.62,5.62,0,0,0,5.54,5.71h.36a11.86,11.86,0,0,0,2.9-.4v.6a8.15,8.15,0,0,1-2.9.4,6.2,6.2,0,1,1-.3-12.4,5.6,5.6,0,0,1,6,5.17C63.2,958.85,63.2,959,63.2,959.2Zm-4.9.3A1.35,1.35,0,0,0,57,958.1h0a1.24,1.24,0,0,0-1.31,1.16,1.93,1.93,0,0,0,0,.24,1.26,1.26,0,0,0,1.22,1.3H57C57.8,960.9,58.3,960.3,58.3,959.5Z"/><path class="cls-4" d="M69.4,955.1v2A2.25,2.25,0,0,0,66.82,959a2,2,0,0,0,0,.55v4.3H64.9v-8.6h1.9v1.4A2.65,2.65,0,0,1,69.4,955.1Z"/><path class="cls-4" d="M74.6,962.3a2.63,2.63,0,0,0,2.2-1.1l1.5.9a4.35,4.35,0,0,1-3.8,1.9,4.41,4.41,0,0,1-4.69-4.12c0-.12,0-.25,0-.38A4.36,4.36,0,0,1,74,955h.28a4.31,4.31,0,0,1,4.3,4.32v.18a2.18,2.18,0,0,1-.1.8H71.7A2.83,2.83,0,0,0,74.6,962.3Zm2.3-3.5a2.38,2.38,0,0,0-2.5-2.1,2.51,2.51,0,0,0-2.6,2.1Z"/><path class="cls-4" d="M88.9,955.2v8.6H87v-1.2a3.7,3.7,0,0,1-3,1.5,4.45,4.45,0,0,1-4.3-4.5,4.32,4.32,0,0,1,4.13-4.5H84a3.6,3.6,0,0,1,3,1.4v-1.2h1.9Zm-1.8,4.3a2.7,2.7,0,1,0-2.7,2.7,2.57,2.57,0,0,0,2.7-2.44Z"/><path class="cls-4" d="M91.1,951.3H93v12.5H91.1Z"/><path class="cls-4" d="M102.9,955.2l-3.3,8.6H97.5l-3.3-8.6h2l2.4,6.5,2.4-6.5Z"/><path class="cls-4" d="M104.2,955.2h1.9v8.9c0,2.4-1.2,3.5-3.5,3.3v-1.8c1.1.1,1.7-.3,1.7-1.5v-8.9Zm-.2-2.4a1.2,1.2,0,1,1,1.2,1.2A1.2,1.2,0,0,1,104,952.8Z"/><path class="cls-4" d="M116,955.2l-3.3,8.8c-.8,2.2-2.2,3.3-4.2,3.2v-1.7a2.07,2.07,0,0,0,2.3-1.7l.1-.2-3.6-8.4h2l2.6,6.2,2.2-6.2Z"/><path class="cls-4" d="M58.9,938.7a3.65,3.65,0,0,1-3.46,3.8H52.3v-7.6h3a3.63,3.63,0,0,1,3.6,3.66Zm-1,0a2.73,2.73,0,0,0-2.54-2.9H53.3v5.7h2A2.58,2.58,0,0,0,57.91,939,2.26,2.26,0,0,0,57.9,938.7Z"/><path class="cls-4" d="M67,941.6v1H62.4V935h4.5v1H63.4v2.3h3.2v.9H63.4v2.4Z"/><path class="cls-4" d="M70,940.8l.9-.5a2,2,0,0,0,2,1.4c1.1,0,1.6-.5,1.6-1.2s-.7-1-1.8-1.4-2.4-.8-2.4-2.2a2.21,2.21,0,0,1,2.21-2.21h.19a2.66,2.66,0,0,1,2.6,1.7l-.8.5a1.74,1.74,0,0,0-1.7-1.2c-.8,0-1.4.4-1.4,1.1s.5,1,1.6,1.3c1.3.4,2.6.8,2.6,2.3a2.32,2.32,0,0,1-2.45,2.21H73A2.84,2.84,0,0,1,70,940.8Z"/><path class="cls-4" d="M80,934.9v7.6H79v-7.6Z"/><path class="cls-4" d="M91.3,939.2a3.47,3.47,0,0,1-3.43,3.51H87.6a3.89,3.89,0,0,1-4-3.77v-.23a4,4,0,0,1,7.3-2.2l-.9.5a2.77,2.77,0,0,0-2.4-1.4,3,3,0,0,0,0,6,2.5,2.5,0,0,0,2.7-2H87.5v-.9h3.8Z"/><path class="cls-4" d="M100.6,934.9v7.6h-.8l-3.9-5.7v5.7h-1v-7.6h.8l3.9,5.7v-5.7Z"/><path class="cls-4" d="M109.1,941.6v1h-4.6V935H109v1h-3.5v2.3h3.2v.9h-3.2v2.4Z"/><path class="cls-4" d="M119.2,938.7a3.65,3.65,0,0,1-3.46,3.8H112.6v-7.6h3a3.7,3.7,0,0,1,3.6,3.8Zm-1,0a2.73,2.73,0,0,0-2.54-2.9H113.6v5.7h2a2.58,2.58,0,0,0,2.61-2.54A2.26,2.26,0,0,0,118.2,938.7Z"/><path class="cls-4" d="M133.2,940.4a2.22,2.22,0,0,1-2.2,2.2h-3.3V935h3a2.05,2.05,0,0,1,2.1,2v.1a1.94,1.94,0,0,1-.8,1.6A1.65,1.65,0,0,1,133.2,940.4Zm-4.5-4.6v2.3h2a1.13,1.13,0,0,0,1.1-1.17v0a1.2,1.2,0,0,0-1.1-1.2h-2Zm3.5,4.5a1.15,1.15,0,0,0-1.11-1.2H128.7v2.5H131a1.24,1.24,0,0,0,1.2-1.28v0Z"/><path class="cls-4" d="M139.4,939.4v3.1h-1v-3.1l-2.7-4.5h1.1l2.1,3.6,2.1-3.6h1.1Z"/><path class="cls-4" d="M211,935v7.7h-.83l-4-5.75v5.75h-1V935H206l4,5.74V935Z"/><path class="cls-4" d="M219.4,941.71v1h-4.6V935h4.55v1h-3.52v2.37h3.24v1h-3.24v2.45Z"/><path class="cls-4" d="M222.29,935h1.07l1.76,6.34L227,935h1l1.87,6.34,1.76-6.34h1.08l-2.21,7.7h-1.19l-1.83-6.15-1.82,6.15H224.5Z"/><path class="cls-4" d="M243.22,935v7.7h-1v-6.6l-1.64.49-.26-.88,2-.7Z"/><path class="cls-4" d="M249.34,935v7.7h-1v-6.6l-1.64.49-.25-.88,2-.7Z"/><path class="cls-4" d="M258.54,941.21h-.93v1.46h-1v-1.46h-3.92v-1l2.76-5.28h1.1l-2.76,5.28h2.82v-2.18h1v2.18h.93Z"/><path class="cls-4" d="M210,959.31h-1.87v4.31h-2.45V951.19h5a4.12,4.12,0,0,1,4.13,4.12h0a4.05,4.05,0,0,1-2.4,3.63l2.76,4.68h-2.65Zm-1.87-2.15h2.53a1.85,1.85,0,0,0,0-3.68h-2.53Z"/><path class="cls-4" d="M220.43,961.8a2.46,2.46,0,0,0,2-.89l1.85,1.07a4.49,4.49,0,0,1-3.87,1.9,4.69,4.69,0,0,1-.39-9.38h.21a4.5,4.5,0,0,1,4.5,4.48,1.48,1.48,0,0,1,0,.21,5,5,0,0,1-.09.94h-6.69A2.33,2.33,0,0,0,220.43,961.8Zm2-3.45a2.15,2.15,0,0,0-2.2-1.79,2.21,2.21,0,0,0-2.32,1.79Z"/><path class="cls-4" d="M229.11,957v3.7c0,1,.7,1,2,.9v2.08c-3.21.35-4.3-.59-4.3-3V957h-1.54v-2.2h1.54V953l2.29-.69v2.49h2V957Z"/><path class="cls-4" d="M237.87,954.57v2.55a2.21,2.21,0,0,0-2.7,2.26v4.24h-2.29v-8.88h2.29v1.53A2.72,2.72,0,0,1,237.87,954.57Z"/><path class="cls-4" d="M238.4,959.18a4.7,4.7,0,1,1,4.71,4.69h0a4.64,4.64,0,0,1-4.69-4.59Zm7.1,0a2.41,2.41,0,1,0-2.41,2.46,2.36,2.36,0,0,0,2.41-2.31Z"/><path class="cls-4" d="M262.18,953.53h-3.36v10.09h-2.45V953.53H253v-2.34h9.15Z"/><path class="cls-4" d="M262.44,951.19h2.66l3,9.56,3-9.56h2.68l-4.19,12.43h-3Z"/><path class="cls-4" d="M848.13,938.45a3.65,3.65,0,0,1-3.48,3.81h-3.11v-7.62h3a3.65,3.65,0,0,1,3.62,3.67A.66.66,0,0,1,848.13,938.45Zm-1,0a2.66,2.66,0,0,0-2.47-2.85h-2.14v5.7h2a2.67,2.67,0,0,0,2.65-2.68A1,1,0,0,0,847.16,938.45Z"/><path class="cls-4" d="M851.25,938.45a3.93,3.93,0,1,1,0,.06Zm6.89,0a2.92,2.92,0,1,0,0,.09v-.09Z"/><path class="cls-4" d="M861.78,934.64h1.07l1.74,6.27,1.86-6.27h1l1.85,6.27,1.75-6.27h1.06l-2.19,7.62h-1.17L867,936.17l-1.81,6.09H864Z"/><path class="cls-4" d="M881.27,934.64v7.62h-.82l-3.92-5.7v5.7h-1v-7.62h.81l3.93,5.68v-5.68Z"/><path class="cls-4" d="M889.5,941.3v1h-4.3v-7.63h1v6.67Z"/><path class="cls-4" d="M891.88,938.45a3.93,3.93,0,1,1,0,.06Zm6.88,0a2.94,2.94,0,1,0-2.94,3,2.9,2.9,0,0,0,2.94-2.87v-.09Z"/><path class="cls-4" d="M907.42,940.55H904l-.62,1.71h-1.08l2.84-7.62h1.14l2.85,7.62H908Zm-.35-.95-1.37-3.75-1.36,3.75Z"/><path class="cls-4" d="M918.91,938.45a3.65,3.65,0,0,1-3.48,3.81h-3.12v-7.62h3a3.65,3.65,0,0,1,3.62,3.67Zm-1,0a2.67,2.67,0,0,0-2.48-2.85h-2.13v5.7h2a2.67,2.67,0,0,0,2.65-2.68v-.17Z"/><path class="cls-4" d="M928.46,935.6v2.47h3.23v1h-3.23v3.24h-1v-7.63h4.39v1Z"/><path class="cls-4" d="M938.17,939.34h-1.8v2.92h-1v-7.62h3a2.35,2.35,0,0,1,.8,4.57l1.8,3h-1.13Zm-1.8-.91h2a1.42,1.42,0,0,0,0-2.84h-2Z"/><path class="cls-4" d="M943.87,938.45a4,4,0,1,1,3.94,4h0a3.92,3.92,0,0,1-3.94-3.9Zm6.89,0a2.95,2.95,0,1,0-3,3,2.91,2.91,0,0,0,3-2.87v-.09Z"/><path class="cls-4" d="M962.42,942.26h-1v-6l-2.5,4.15h-.13l-2.5-4.14v6h-1v-7.63h1.14l2.43,4,2.42-4h1.15Z"/><path class="cls-4" d="M841.32,952.65a1.22,1.22,0,1,1,1.22,1.22A1.22,1.22,0,0,1,841.32,952.65Zm.26,2.55h1.92v8.85h-1.91Z"/><path class="cls-4" d="M845.71,951.13h1.91v12.92h-1.91Z"/><path class="cls-4" d="M849.83,951.13h1.92v12.92h-1.92Z"/><path class="cls-4" d="M854,951.13h1.91v12.92H854Z"/><path class="cls-4" d="M866,955.2v8.85h-1.91v-1.13a3.05,3.05,0,0,1-2.74,1.36,3.3,3.3,0,0,1-3.42-3.19,3.62,3.62,0,0,1,0-.46V955.2h1.91v5.24a1.85,1.85,0,0,0,1.62,2h.36c1.26,0,2.25-.74,2.25-2.55V955.2Z"/><path class="cls-4" d="M874.62,961.55c0,1.77-1.54,2.73-3.45,2.73a3.68,3.68,0,0,1-3.61-2.07l1.64-1a2,2,0,0,0,2,1.28c.85,0,1.5-.29,1.5-1,0-1.58-4.76-.7-4.76-3.86,0-1.67,1.43-2.71,3.24-2.71a3.54,3.54,0,0,1,3.27,1.84l-1.61.9a1.71,1.71,0,0,0-1.66-1c-.69,0-1.3.3-1.3.94C869.86,959.25,874.62,958.28,874.62,961.55Z"/><path class="cls-4" d="M878.7,957v4.25c0,1.13.74,1.11,2.2,1v1.72c-2.94.35-4.11-.46-4.11-2.76V957h-1.63V955.2h1.63v-1.91l1.91-.57v2.48h2.2V957Z"/><path class="cls-4" d="M887.35,955v2.07a2.33,2.33,0,0,0-2.69,1.91,1.82,1.82,0,0,0,0,.57v4.46h-1.91V955.2h1.91v1.49A2.77,2.77,0,0,1,887.35,955Z"/><path class="cls-4" d="M897.29,955.2v8.85h-1.91v-1.27a3.68,3.68,0,0,1-3.1,1.5,4.66,4.66,0,0,1,0-9.31,3.67,3.67,0,0,1,3.1,1.48V955.2Zm-1.91,4.43a2.8,2.8,0,1,0-2.8,2.83,2.74,2.74,0,0,0,2.8-2.67v-.17Z"/><path class="cls-4" d="M902.26,957v4.25c0,1.13.75,1.11,2.2,1v1.72c-2.94.35-4.1-.46-4.1-2.76V957h-1.63V955.2h1.63v-1.91l1.91-.57v2.48h2.19V957Z"/><path class="cls-4" d="M905.93,952.65a1.22,1.22,0,0,1,2.44,0h0a1.22,1.22,0,0,1-2.44,0Zm.27,2.55h1.91v8.85H906.2Z"/><path class="cls-4" d="M909.83,959.62a4.67,4.67,0,1,1,4.69,4.66h0a4.62,4.62,0,0,1-4.67-4.57Zm7.43,0a2.76,2.76,0,1,0-2.76,2.8,2.71,2.71,0,0,0,2.76-2.67Z"/><path class="cls-4" d="M929,958.62v5.43h-1.92v-5.24a1.84,1.84,0,0,0-1.62-2h-.36c-1.26,0-2.25.74-2.25,2.55v4.74h-1.91V955.2h1.91v1.13a3.07,3.07,0,0,1,2.75-1.36,3.3,3.3,0,0,1,3.41,3.18A3.69,3.69,0,0,1,929,958.62Z"/><path class="cls-4" d="M937.5,961.55c0,1.77-1.54,2.73-3.45,2.73a3.68,3.68,0,0,1-3.61-2.07l1.64-1a2,2,0,0,0,2,1.28c.85,0,1.5-.29,1.5-1,0-1.58-4.76-.7-4.76-3.86,0-1.67,1.43-2.71,3.24-2.71a3.54,3.54,0,0,1,3.27,1.84l-1.61.9a1.71,1.71,0,0,0-1.66-1c-.69,0-1.3.3-1.3.94C932.74,959.25,937.5,958.28,937.5,961.55Z"/><path class="cls-4" d="M938.83,962.93a1.33,1.33,0,0,1,2.66,0h0a1.33,1.33,0,0,1-2.66,0Z"/><path class="cls-4" d="M942.32,959.62a4.56,4.56,0,0,1,4.47-4.65h.2a4.37,4.37,0,0,1,4,2.28l-1.65,1a2.48,2.48,0,0,0-2.32-1.37,2.78,2.78,0,0,0,0,5.56,2.6,2.6,0,0,0,2.36-1.36L951,962a4.46,4.46,0,0,1-4,2.3,4.57,4.57,0,0,1-4.67-4.48Z"/><path class="cls-4" d="M951.72,959.62a4.68,4.68,0,1,1,4.69,4.66h0a4.62,4.62,0,0,1-4.67-4.57Zm7.44,0a2.77,2.77,0,1,0-2.76,2.8,2.71,2.71,0,0,0,2.76-2.67Z"/><rect class="cls-2" x="41" y="923" width="930" height="59"/></svg>