<svg id="Layer_1" data-name="Layer 1" xmlns="http://www.w3.org/2000/svg" viewBox="0 0 1000 1000"><defs><style>.cls-1{fill:#3f3d44;}.cls-2{fill:#eef2f4;}.cls-3{fill:#ff8603;}.cls-4{fill:#ed5f18;}.cls-5{fill:#ef2531;}.cls-6{fill:#cc253d;}.cls-10,.cls-18,.cls-41,.cls-42,.cls-7{fill:none;}.cls-10,.cls-7{stroke:#3f2522;}.cls-10,.cls-41,.cls-42,.cls-7{stroke-linecap:round;stroke-linejoin:round;}.cls-41,.cls-42,.cls-7{stroke-width:6px;}.cls-8{fill:#38beb3;}.cls-25,.cls-35,.cls-9{fill:#026060;}.cls-15,.cls-21,.cls-23,.cls-24,.cls-25,.cls-27,.cls-31,.cls-35,.cls-36,.cls-38,.cls-42,.cls-9{isolation:isolate;}.cls-9{opacity:0.14;}.cls-10{stroke-width:8px;}.cls-11{fill:#f1e4e5;}.cls-12{fill:#ddd4d5;}.cls-13{fill:#3f2522;}.cls-14{fill:#6b352f;}.cls-15{fill:#a35d58;opacity:0.48;}.cls-16{fill:#602c29;}.cls-17{opacity:0.2;}.cls-19{fill:#dd795b;}.cls-20{fill:#bdced9;}.cls-21,.cls-24{fill:#fff;}.cls-21{opacity:0.26;}.cls-22{fill:#acc1cc;}.cls-23{fill:#301b19;opacity:0.76;}.cls-24{opacity:0.23;}.cls-25{opacity:0.32;}.cls-26{fill:#9bc7bc;}.cls-27{fill:#72a596;opacity:0.47;}.cls-28{fill:#94af4a;}.cls-29{fill:#ec2731;}.cls-30{fill:#d3112e;}.cls-31{fill:#ffa4ad;opacity:0.51;}.cls-32{fill:#48633b;}.cls-33{fill:#bfbc47;}.cls-34{fill:#4d9358;}.cls-35{opacity:0.05;}.cls-36{fill:#92d3d1;opacity:0.15;}.cls-37{fill:#ab5647;}.cls-38{fill:#ffbba6;opacity:0.21;}.cls-39{fill:#9b4f45;}.cls-40{fill:#8c443e;}.cls-41{stroke:#ec2731;}.cls-42{stroke:#fff;opacity:0.4;}.cls-43{fill:#3e454f;}</style></defs><rect class="cls-1" width="1000" height="1000"/><path class="cls-2" d="M63.2,959.2c0,2.5-1.2,3.7-2.6,3.7a1.93,1.93,0,0,1-2.1-1.4,2.2,2.2,0,0,1-1.8.8,2.81,2.81,0,0,1,0-5.6,2.18,2.18,0,0,1,1.6.7v-.5h1.6v3.9c0,.8.3,1.4,1,1.4.9,0,1.7-.9,1.7-3a5.23,5.23,0,0,0-5.4-5.3,5.55,5.55,0,0,0-5.6,5.7,5.62,5.62,0,0,0,5.9,5.7,11.93,11.93,0,0,0,2.9-.4v.6a8.12,8.12,0,0,1-2.9.4,6.2,6.2,0,1,1-.3-12.4A5.59,5.59,0,0,1,63.2,959.2Zm-4.9.3a1.35,1.35,0,0,0-1.3-1.4,1.24,1.24,0,0,0-1.3,1.4,1.26,1.26,0,0,0,1.3,1.3C57.8,960.9,58.3,960.3,58.3,959.5Z"/><path class="cls-2" d="M69.4,955.1v2a2.24,2.24,0,0,0-2.6,2.4v4.3H64.9v-8.6h1.9v1.4A2.63,2.63,0,0,1,69.4,955.1Z"/><path class="cls-2" d="M74.6,962.3a2.64,2.64,0,0,0,2.2-1.1l1.5.9a4.35,4.35,0,0,1-3.8,1.9,4.41,4.41,0,0,1-4.7-4.5,4.36,4.36,0,0,1,4.5-4.5,4.31,4.31,0,0,1,4.3,4.5,2.2,2.2,0,0,1-.1.8H71.7A2.83,2.83,0,0,0,74.6,962.3Zm2.3-3.5a2.37,2.37,0,0,0-2.5-2.1,2.51,2.51,0,0,0-2.6,2.1Z"/><path class="cls-2" d="M88.9,955.2v8.6H87v-1.2a3.69,3.69,0,0,1-3,1.5,4.44,4.44,0,0,1-4.3-4.5,4.32,4.32,0,0,1,4.3-4.5,3.61,3.61,0,0,1,3,1.4v-1.2l1.9-.1Zm-1.8,4.3a2.7,2.7,0,1,0-2.7,2.7A2.57,2.57,0,0,0,87.1,959.5Z"/><path class="cls-2" d="M91.1,951.3H93v12.5H91.1Z"/><path class="cls-2" d="M102.9,955.2l-3.3,8.6H97.5l-3.3-8.6h2l2.4,6.5,2.4-6.5Z"/><path class="cls-2" d="M104.2,955.2h1.9v8.9c0,2.4-1.2,3.5-3.5,3.3v-1.8c1.1.1,1.7-.3,1.7-1.5l-.1-8.9Zm-.2-2.4a1.2,1.2,0,0,1,2.4,0,1.2,1.2,0,1,1-2.4,0Z"/><path class="cls-2" d="M116,955.2l-3.3,8.8c-.8,2.2-2.2,3.3-4.2,3.2v-1.7a2.08,2.08,0,0,0,2.3-1.7l.1-.2-3.6-8.4h2l2.6,6.2,2.2-6.2Z"/><path class="cls-2" d="M211.9,938.7a3.63,3.63,0,0,1-3.6,3.8h-3v-7.6h3A3.63,3.63,0,0,1,211.9,938.7Zm-1,0a2.72,2.72,0,0,0-2.6-2.9h-2v5.7h2A2.58,2.58,0,0,0,210.9,938.7Z"/><path class="cls-2" d="M219.5,940.8h-3.4l-.6,1.7h-1.1l2.8-7.6h1.1l2.8,7.6H220Zm-.3-.9-1.4-3.8-1.4,3.8Z"/><path class="cls-2" d="M226.4,939.4v3.1h-1v-3.1l-2.7-4.5h1.1l2.1,3.6,2.1-3.6h1.1Z"/><path class="cls-2" d="M239.5,934.9v7.6h-1V936l-1.6.5-.3-.9,2-.7Z"/><path class="cls-2" d="M248.2,940.3a2.42,2.42,0,0,1-2.6,2.4,2.5,2.5,0,0,1-2.5-1.6l.9-.5c.2.8.8,1.1,1.7,1.1a1.41,1.41,0,1,0,0-2.8h-2.2l.3-4H248v.9h-3.3l-.1,2h1.1A2.47,2.47,0,0,1,248.2,940.3Z"/><path class="cls-2" d="M58.9,938.7a3.63,3.63,0,0,1-3.6,3.8h-3v-7.6h3A3.63,3.63,0,0,1,58.9,938.7Zm-1,0a2.72,2.72,0,0,0-2.6-2.9h-2v5.7h2A2.58,2.58,0,0,0,57.9,938.7Z"/><path class="cls-2" d="M67,941.6v1H62.4V935h4.5v1H63.4v2.3h3.2v.9H63.4v2.4Z"/><path class="cls-2" d="M70,940.8l.9-.5a2,2,0,0,0,2,1.4c1.1,0,1.6-.5,1.6-1.2s-.7-1-1.8-1.4-2.4-.8-2.4-2.2a2.21,2.21,0,0,1,2.4-2.2,2.66,2.66,0,0,1,2.6,1.7l-.8.5a1.74,1.74,0,0,0-1.7-1.2c-.8,0-1.4.4-1.4,1.1s.5,1,1.6,1.3c1.3.4,2.6.8,2.6,2.3a2.33,2.33,0,0,1-2.6,2.2A2.85,2.85,0,0,1,70,940.8Z"/><path class="cls-2" d="M80,934.9v7.6H79v-7.6Z"/><path class="cls-2" d="M91.3,939.2a3.47,3.47,0,0,1-3.7,3.5,3.89,3.89,0,0,1-4-4,4,4,0,0,1,7.3-2.2l-.9.5a2.77,2.77,0,0,0-2.4-1.4,3,3,0,0,0,0,6,2.5,2.5,0,0,0,2.7-2H87.5v-.9h3.8Z"/><path class="cls-2" d="M100.6,934.9v7.6h-.8l-3.9-5.7v5.7h-1v-7.6h.8l3.9,5.7v-5.7Z"/><path class="cls-2" d="M109.1,941.6v1h-4.6V935H109v1h-3.5v2.3h3.2v.9h-3.2v2.4Z"/><path class="cls-2" d="M119.2,938.7a3.63,3.63,0,0,1-3.6,3.8h-3v-7.6h3A3.7,3.7,0,0,1,119.2,938.7Zm-1,0a2.72,2.72,0,0,0-2.6-2.9h-2v5.7h2A2.58,2.58,0,0,0,118.2,938.7Z"/><path class="cls-2" d="M133.2,940.4a2.22,2.22,0,0,1-2.2,2.2h-3.3V935h3a2.05,2.05,0,0,1,2.1,2.1,1.94,1.94,0,0,1-.8,1.6A1.66,1.66,0,0,1,133.2,940.4Zm-4.5-4.6v2.3h2a1.13,1.13,0,0,0,1.1-1.2,1.2,1.2,0,0,0-1.1-1.2h-2Zm3.5,4.5a1.16,1.16,0,0,0-1.2-1.2h-2.3v2.5H131A1.24,1.24,0,0,0,132.2,940.3Z"/><path class="cls-2" d="M139.4,939.4v3.1h-1v-3.1l-2.7-4.5h1.1l2.1,3.6,2.1-3.6h1.1Z"/><path class="cls-2" d="M204.8,958.1a6.28,6.28,0,0,1,6.5-6.4,6,6,0,0,1,5.3,3l-1.8,1a4.08,4.08,0,0,0-3.6-2,4.2,4.2,0,0,0-4.4,4.4,4.25,4.25,0,0,0,4.4,4.4,4.08,4.08,0,0,0,3.6-2l1.8,1a6,6,0,0,1-5.3,3A6.28,6.28,0,0,1,204.8,958.1Z"/><path class="cls-2" d="M217.7,959.9a4.69,4.69,0,0,1,4.7-4.7,4.63,4.63,0,0,1,4.7,4.7,4.69,4.69,0,0,1-4.7,4.7A4.76,4.76,0,0,1,217.7,959.9Zm7.4,0a2.8,2.8,0,1,0-2.8,2.8A2.73,2.73,0,0,0,225.1,959.9Z"/><path class="cls-2" d="M228.8,951.4h1.9v12.9h-1.9Z"/><path class="cls-2" d="M232.4,959.9a4.69,4.69,0,0,1,4.7-4.7,4.63,4.63,0,0,1,4.7,4.7,4.69,4.69,0,0,1-4.7,4.7A4.76,4.76,0,0,1,232.4,959.9Zm7.4,0a2.8,2.8,0,1,0-2.8,2.8A2.73,2.73,0,0,0,239.8,959.9Z"/><path class="cls-2" d="M248.1,955.3v2.1a2.31,2.31,0,0,0-2.7,2.5v4.5h-1.9v-8.9h1.9V957A2.65,2.65,0,0,1,248.1,955.3Z"/><path class="cls-2" d="M262.1,953.9h-3.5v10.4h-2V953.9h-3.5V952h9Z"/><path class="cls-2" d="M261.4,959.9a4.69,4.69,0,0,1,4.7-4.7,4.63,4.63,0,0,1,4.7,4.7,4.69,4.69,0,0,1-4.7,4.7A4.76,4.76,0,0,1,261.4,959.9Zm7.5,0a2.8,2.8,0,1,0-2.8,2.8A2.73,2.73,0,0,0,268.9,959.9Z"/><path class="cls-2" d="M272,959.9a4.69,4.69,0,0,1,4.7-4.7,4.63,4.63,0,0,1,4.7,4.7,4.69,4.69,0,0,1-4.7,4.7A4.76,4.76,0,0,1,272,959.9Zm7.5,0a2.8,2.8,0,1,0-2.8,2.8A2.73,2.73,0,0,0,279.5,959.9Z"/><path class="cls-2" d="M283.1,951.4H285v12.9h-1.9Z"/><path class="cls-2" d="M841.3,942.5h-1v-7.6h1.1l2.4,4,2.4-4h1.1v7.6h-1v-6l-2.5,4.2h-.1l-2.5-4.1.1,5.9Zm17.5-3.8a4,4,0,1,1-4-4A3.95,3.95,0,0,1,858.8,938.7Zm-1,0a2.93,2.93,0,0,0-2.9-3,2.86,2.86,0,0,0-2.9,3,2.93,2.93,0,0,0,2.9,3A2.86,2.86,0,0,0,857.8,938.7Zm8.4.8,1.8,3.1h-1.1l-1.7-2.9h-1.8v2.9h-1V935h3a2.43,2.43,0,0,1,2.4,2.4A2.6,2.6,0,0,1,866.2,939.5Zm-.8-.8a1.4,1.4,0,1,0,0-2.8h-2v2.8Zm10.5,2.9h-3.5v-2.4h3.2v-.9h-3.2V936h3.5v-1h-4.5v7.6H876l-.1-1Zm-31.7,20.6-2.5-6.7h-2.1l3.5,8.9h2.2l3.5-8.9h-2.1Zm5.8,2.1h1.9v-8.9H850Zm1-12.6a1.2,1.2,0,1,0,0,2.4,1.2,1.2,0,1,0,0-2.4Zm4.2,0a1.2,1.2,0,1,0,0,2.4,1.22,1.22,0,0,0,1.2-1.2A1.1,1.1,0,0,0,855.2,951.7Zm-.9,13c0,1.2-.5,1.7-1.7,1.6v1.8c2.4.2,3.6-1,3.6-3.4v-9.2h-1.9v9.2Zm11.1-9.3h1.9v8.9h-1.9V963a3.75,3.75,0,0,1-3.1,1.5,4.51,4.51,0,0,1-4.4-4.7,4.57,4.57,0,0,1,4.4-4.7,3.75,3.75,0,0,1,3.1,1.5Zm0,4.5a2.8,2.8,0,1,0-2.8,2.8A2.73,2.73,0,0,0,865.4,959.9Zm7.9,2-2.6-6.4h-2.1l3.8,8.7-.1.2a2.12,2.12,0,0,1-2.4,1.7v1.8c2,.1,3.5-1,4.3-3.3l3.4-9.1h-2Zm9,.3-2.5-6.7h-2.1l3.5,8.9h2.2l3.5-8.9h-2.1Zm14.1-2.3a2.2,2.2,0,0,1-.1.8h-7a2.63,2.63,0,0,0,2.8,2.1,2.7,2.7,0,0,0,2.3-1.1l1.6.9a4.41,4.41,0,0,1-3.9,1.9,4.7,4.7,0,1,1-.1-9.4A4.66,4.66,0,0,1,896.4,959.9Zm-2-.8a2.53,2.53,0,0,0-2.5-2.2,2.61,2.61,0,0,0-2.7,2.2Zm5.5-2.2v-1.5H898v8.9h1.9v-4.5a2.34,2.34,0,0,1,2.7-2.5v-2.1A3.17,3.17,0,0,0,899.9,956.9Zm13.9-1.7a3.07,3.07,0,0,0-2.7,1.4,2.74,2.74,0,0,0-2.5-1.4,2.66,2.66,0,0,0-2.5,1.3v-1.1h-1.9v8.9h1.9v-5c0-1.6.9-2.3,2-2.3a1.69,1.69,0,0,1,1.7,1.9v5.4h1.9v-5c0-1.6.8-2.3,1.9-2.3a1.69,1.69,0,0,1,1.7,1.9v5.4h1.9v-5.5C917.1,956.6,915.8,955.2,913.8,955.2Zm12.4.2h1.9v8.9h-1.9V963a3.75,3.75,0,0,1-3.1,1.5,4.51,4.51,0,0,1-4.4-4.7,4.57,4.57,0,0,1,4.4-4.7,3.75,3.75,0,0,1,3.1,1.5Zm0,4.5a2.8,2.8,0,1,0-2.8,2.8A2.73,2.73,0,0,0,926.2,959.9Zm5.3,2a1.3,1.3,0,1,0,1.3,1.3A1.26,1.26,0,0,0,931.5,961.9Zm6.8.7a2.65,2.65,0,0,1-2.7-2.8,2.71,2.71,0,0,1,2.7-2.8,2.34,2.34,0,0,1,2.3,1.4l1.6-1a4.31,4.31,0,0,0-3.9-2.3,4.57,4.57,0,0,0-4.7,4.7,4.63,4.63,0,0,0,4.7,4.7,4.58,4.58,0,0,0,4-2.3l-1.6-.9A2.81,2.81,0,0,1,938.3,962.6Zm14.1-2.7a4.69,4.69,0,0,1-4.7,4.7,4.63,4.63,0,0,1-4.7-4.7,4.69,4.69,0,0,1,4.7-4.7A4.63,4.63,0,0,1,952.4,959.9Zm-1.9,0a2.8,2.8,0,1,0-2.8,2.8A2.73,2.73,0,0,0,950.5,959.9Z"/><rect class="cls-3" x="642.5" y="3" width="150" height="358.2"/><path class="cls-4" d="M762.5,60.5V111a15,15,0,0,1-15,15h0a15,15,0,0,1-15-15V43a15,15,0,0,0-15-15h0a15,15,0,0,0-15,15v68a15,15,0,0,1-15,15h0a15,15,0,0,1-15-15V88a15,15,0,0,0-15-15h0a15,15,0,0,0-15,15V349.2h150V60.5a15,15,0,0,0-15-15h0A15,15,0,0,0,762.5,60.5Z"/><path class="cls-5" d="M762.5,72.5V123a15,15,0,0,1-15,15h0a15,15,0,0,1-15-15V55a15,15,0,0,0-15-15h0a15,15,0,0,0-15,15v68a15,15,0,0,1-15,15h0a15,15,0,0,1-15-15V100a15,15,0,0,0-15-15h0a15,15,0,0,0-15,15V361.2h150V72.5a15,15,0,0,0-15-15h0A15,15,0,0,0,762.5,72.5Z"/><path class="cls-6" d="M762.5,168.3v71.1a15,15,0,0,1-15,15h0a15,15,0,0,1-15-15V202.6a15,15,0,0,0-15-15h0a15,15,0,0,0-15,15v36.8a15,15,0,0,1-15,15h0a15,15,0,0,1-15-15V188.9a15,15,0,0,0-15-15h0a15,15,0,0,0-15,15v164h150V168.3a15,15,0,0,0-15-15h0A15,15,0,0,0,762.5,168.3Z"/><path class="cls-7" d="M762.5,72.5V123a15,15,0,0,1-15,15h0a15,15,0,0,1-15-15V55a15,15,0,0,0-15-15h0a15,15,0,0,0-15,15v68a15,15,0,0,1-15,15h0a15,15,0,0,1-15-15V100a15,15,0,0,0-15-15h0a15,15,0,0,0-15,15V361.2h150V72.5a15,15,0,0,0-15-15h0A15,15,0,0,0,762.5,72.5Z"/><path class="cls-8" d="M762.5,181.3v71.1a15,15,0,0,1-15,15h0a15,15,0,0,1-15-15V215.6a15,15,0,0,0-15-15h0a15,15,0,0,0-15,15v36.8a15,15,0,0,1-15,15h0a15,15,0,0,1-15-15V201.9a15,15,0,0,0-15-15h0a15,15,0,0,0-15,15v164h150V181.3a15,15,0,0,0-15-15h0A15,15,0,0,0,762.5,181.3Z"/><rect class="cls-9" x="642.5" y="325" width="150" height="36.2"/><path class="cls-7" d="M762.5,181.3v71.1a15,15,0,0,1-15,15h0a15,15,0,0,1-15-15V215.6a15,15,0,0,0-15-15h0a15,15,0,0,0-15,15v36.8a15,15,0,0,1-15,15h0a15,15,0,0,1-15-15V201.9a15,15,0,0,0-15-15h0a15,15,0,0,0-15,15v164h150V181.3a15,15,0,0,0-15-15h0A15,15,0,0,0,762.5,181.3Z"/><rect class="cls-7" x="642.5" y="3" width="150" height="358.2"/><path class="cls-10" d="M715.2,514.4V492.7a26.33,26.33,0,0,1,26.3-26.3h77.4a26.33,26.33,0,0,0,26.3-26.3V417.4a26.33,26.33,0,0,0-26.3-26.3H795.2"/><path class="cls-11" d="M564.4,382.1,536.2,331a2.37,2.37,0,0,0-4.2,0l-28.1,51v9.2h60.5Z"/><path class="cls-12" d="M536.3,331.1a2.37,2.37,0,0,0-4.2,0l-3.1,5.7,26.2,47.5v6.9h9.3v-9.1Z"/><path class="cls-7" d="M564.4,382.1,536.2,331a2.37,2.37,0,0,0-4.2,0l-28.1,51v9.2h60.5Z"/><path class="cls-7" d="M545,346.9l-8.7-15.8a2.37,2.37,0,0,0-4.2,0l-8.7,15.8Z"/><path class="cls-13" d="M545,346.9l-8.7-15.8a2.37,2.37,0,0,0-4.2,0l-8.7,15.8Z"/><path class="cls-14" d="M292.3,642.2h0c-16.2,0-29.9-13.4-30.5-30.5l-5.5-141.5h72l-5.5,141.5C322.2,628.8,308.5,642.2,292.3,642.2Z"/><path class="cls-15" d="M262.5,617.3h0A13.67,13.67,0,0,0,276.2,603l-5-118.5a14.89,14.89,0,0,0-14.9-14.3h0l5.5,141.5A34.29,34.29,0,0,0,262.5,617.3Z"/><path class="cls-16" d="M328.3,470.2a16.83,16.83,0,0,0-16.8,16.1L307,603.8c-.7,17.2-14.3,30.5-30.5,30.5a23.83,23.83,0,0,1-4.6-.4,29.69,29.69,0,0,0,20.4,8.2h0c16.2,0,29.9-13.4,30.5-30.5l5.5-141.4Z"/><g class="cls-17"><path class="cls-18" d="M259.4,549c-1.4,2.3-2.8,4.6-4.2,7.1a17.68,17.68,0,0,1,4.3-3.1Z"/><path class="cls-18" d="M333.2,470.8c-.5-1.3-3.9-4.4-5.6-5.3a22.59,22.59,0,0,0-2.7,4.7h3.3l-.4,9.3C330.8,477,333.6,473.8,333.2,470.8Z"/><path class="cls-19" d="M297.1,534.7l-.3.9c-2.7,6.8-9.8,24.9.6,37.9,6.1,7.6,14.9,8.7,23.4,9.7,1.1.1,2.1.3,3.2.4l.2-6-2.7-.3c-8-1-14.8-1.8-19.4-7.5-8.3-10.3-2.3-25.5.3-31.9l.3-.8c1.2-2.9,9.9-19.1,24.3-31.6l.3-8C309.5,510.9,298.8,530.5,297.1,534.7Z"/><path class="cls-19" d="M284.4,595.4a31.08,31.08,0,0,0-4.3.3c-7.7,1.1-13.7,5.1-18.5,10.3l.2,5.7a17.33,17.33,0,0,0,.3,3.2c4.6-6.6,10.6-12.1,18.8-13.2,10.1-1.4,20.1,2.2,38.1,24.2a34.8,34.8,0,0,0,2.6-6.3C309.1,604.6,297.8,595.4,284.4,595.4Z"/><path class="cls-19" d="M274.9,527.8c10.3-13,18.4-23.3,14.2-34.8-4.4-12.1-19.3-16.9-32.7-20.3l.2,6.3c11.5,3,23.6,7.3,26.8,16.1,3,8.4-3.8,17-13.3,29-3.5,4.4-7.3,9.3-11.2,14.8l.4,10.2A246.79,246.79,0,0,1,274.9,527.8Z"/><path class="cls-19" d="M306.7,478.1a5.21,5.21,0,0,0,3.1-3.2,6.45,6.45,0,0,0-.6-4.7h-6.9a5.74,5.74,0,0,1,.4.7,17.38,17.38,0,0,1,1,1.9c-1.4.2-3.1-.9-4.9-2.6h-8.3C295.7,476,300.8,480.8,306.7,478.1Z"/><path class="cls-19" d="M275,496.2c-.8-5.7-5.8-9-6.3-9.3a17.71,17.71,0,0,0-11.8-2.4l.2,6c3.3-.4,6.1,0,8.3,1.4.9.6,3.2,2.5,3.6,5.1.5,3.7-3.6,7.6-7.6,11.4-1.1,1-2.3,2.2-3.5,3.4l.3,8.1c2.8-2.7,5.2-5.1,7.3-7.1C270.4,508.2,275.9,502.9,275,496.2Z"/><path class="cls-19" d="M306,483.6c-8,0-14.3-6.8-19.5-13.4H279c.1.2.3.4.4.6,6.1,8,14.4,18.8,26.6,18.8,9.9,0,14.7-10.2,18.1-17.6.3-.6.5-1.2.8-1.8h-6.6C315.5,476.4,311.9,483.6,306,483.6Z"/><path class="cls-19" d="M287,578.8c-4.3-6.5-5.7-16.1-4.2-28.7,1.9-15.4,13.3-31.8,19.2-38.4a235,235,0,0,1,25.7-24.4l.3-8c-.7.6-1.3,1.1-1.9,1.6a218.83,218.83,0,0,0-28.5,26.7c-6.3,7-18.6,24.8-20.6,41.6-1.7,14,.1,25,5.2,32.7,6.6,10.1,20.4,15.5,37.1,15.5,1.4,0,2.8,0,4.2-.1l.2-6C306.8,592.6,293.1,588.2,287,578.8Z"/><path class="cls-19" d="M309.6,544.6v.2c-1.7,12.8,2.1,18.5,5.5,20.9a13.45,13.45,0,0,0,8.2,2.4h1.2l.2-6a9.24,9.24,0,0,1-6.1-1.2c-1.7-1.2-4.5-4.9-3.1-15.3v-.1c1.2-7.9,5.6-15.4,10.6-20.8l.3-8.5C318.8,522.3,311.3,532.9,309.6,544.6Z"/><path class="cls-19" d="M263.9,558c.2,0,.8.1,1.5,1.3,1.9,3,3,17-2.4,28.8a32.23,32.23,0,0,1-2,3.7l.4,9a35,35,0,0,0,7.2-10.3c4.5-9.9,6.4-27.5,2-34.4a8.21,8.21,0,0,0-5.9-4.1,9.74,9.74,0,0,0-5.1,1l.3,7C261.1,558.8,262.8,557.8,263.9,558Z"/><path class="cls-19" d="M304.3,617.3c-2.2-1.8-7.9-6.4-16.3-6.8a28.24,28.24,0,0,0-13.9,3.7,27.22,27.22,0,0,0-9.3,10,34.19,34.19,0,0,0,3.7,6.1c1.9-4.7,4.8-8.7,8.6-11a22.21,22.21,0,0,1,10.6-2.9c6.3.3,10.8,3.9,12.8,5.4a33.3,33.3,0,0,1,6.8,8.3,44.83,44.83,0,0,1,2.9,5.8,27.89,27.89,0,0,0,4.7-4.4A41.93,41.93,0,0,0,304.3,617.3Z"/><path class="cls-19" d="M296.8,626.8c-4.6-1.3-10.9-.8-14.5,3.6a12.48,12.48,0,0,0-2.6,9,31.13,31.13,0,0,0,6.5,2.2,8,8,0,0,1,.7-7.4c2-2.4,6-2.3,8.1-1.6,3.3,1,5.9,3.9,7.4,7.8a33.6,33.6,0,0,0,5.4-2.6C305.7,632.4,301.8,628.3,296.8,626.8Z"/></g><path class="cls-20" d="M328.3,470.2h-72c.7-27.3,6.4-47.9,14.3-61.7h43.3C321.9,422.3,327.6,442.8,328.3,470.2Z"/><path class="cls-21" d="M270.7,408.5c-7.9,13.8-13.6,34.3-14.3,61.7h0a13.93,13.93,0,0,0,13.9-12.7c1.9-21.1,7-37.4,13.6-48.9H270.7Z"/><path class="cls-22" d="M315.8,424.2H284.9a15.41,15.41,0,0,1-15.4-15.4v-.3h46.3Z"/><path class="cls-22" d="M314,408.5H296.9c7.9,13.8,13.6,34.3,14.3,61.7h17.1C327.6,442.8,321.9,422.3,314,408.5Z"/><path class="cls-7" d="M328.3,470.2h-72c.7-27.3,6.4-47.9,14.3-61.7h43.3C321.9,422.3,327.6,442.8,328.3,470.2Z"/><path class="cls-20" d="M312.3,408.5h-40a12,12,0,0,1-12-12h0a12,12,0,0,1,12-12h40a12,12,0,0,1,12,12h0A12,12,0,0,1,312.3,408.5Z"/><ellipse class="cls-21" cx="266.3" cy="396.5" rx="6.1" ry="8"/><path class="cls-22" d="M312.3,384.5H288.1a12,12,0,0,1,0,24h24.2a12,12,0,0,0,0-24Z"/><path class="cls-7" d="M312.3,408.5h-40a12,12,0,0,1-12-12h0a12,12,0,0,1,12-12h40a12,12,0,0,1,12,12h0A12,12,0,0,1,312.3,408.5Z"/><path class="cls-13" d="M314.3,315.5c4.7,6.5,12.3,13,13.9,24.8a41.46,41.46,0,0,1-.7,14.4c-3.7,15.3-21,31.5-41.4,29.5-20.9-2-37.7-22.4-35-45.8a77,77,0,0,1,18.7-42.9,74.66,74.66,0,0,1,27.3-19.4,4.75,4.75,0,0,1,6.6,4.3C304.2,297.9,309.3,308.7,314.3,315.5Z"/><path class="cls-7" d="M314.3,315.5c4.7,6.5,12.3,13,13.9,24.8a41.46,41.46,0,0,1-.7,14.4c-3.7,15.3-21,31.5-41.4,29.5-20.9-2-37.7-22.4-35-45.8a77,77,0,0,1,18.7-42.9,74.66,74.66,0,0,1,27.3-19.4,4.75,4.75,0,0,1,6.6,4.3C304.2,297.9,309.3,308.7,314.3,315.5Z"/><path class="cls-23" d="M319.9,338.6v-.5c0-.2.1-.5.1-.7.1-.5.1-1.1.2-1.6,0-.2.1-.4.1-.6.5-2.7,1.2-10.9,2.3-13.4-1.8-.3-3.4,4.3-4.5,2.9-1.4-1.7-2.7-3.2-3.8-4.8-5-6.8-10.1-17.6-10.6-35.2a4.75,4.75,0,0,0-6.6-4.3,74.66,74.66,0,0,0-27.3,19.4c-7.7,8.6-16.5,12.5-19,24.4.4.1,9.1,7.3,9.1,12.8v15.1c0,6.8,5.4,12.7,12.2,12.8a12.46,12.46,0,0,0,12.7-12.4v-26a7.07,7.07,0,0,1,6.7-7.2,7,7,0,0,1,7.2,6.9v11.9c0,6.9,4.8,12.4,10.7,12.4,5.4,0,9.9-4.7,10.6-10.7A2.46,2.46,0,0,1,319.9,338.6Z"/><path class="cls-7" d="M292.3,642.2h0c-16.2,0-29.9-13.4-30.5-30.5l-5.5-141.5h72l-5.5,141.5C322.2,628.8,308.5,642.2,292.3,642.2Z"/><path class="cls-8" d="M420,635.1h0a32,32,0,0,1-32-32v-156h64v156A32,32,0,0,1,420,635.1Z"/><path class="cls-24" d="M390,615.3h0V452.7h0a12,12,0,0,1,12,12V603.4A12,12,0,0,1,390,615.3Z"/><path class="cls-25" d="M437,447.1V595.3a32,32,0,0,1-32,32h0a29.89,29.89,0,0,1-6.7-.7,31.68,31.68,0,0,0,21.7,8.5h0a32,32,0,0,0,32-32v-156Z"/><path class="cls-7" d="M420,635.1h0a32,32,0,0,1-32-32v-156h64v156A32,32,0,0,1,420,635.1Z"/><path class="cls-26" d="M436,377.1V347.5H404v29.6a16,16,0,0,1-16,16h0v54h64v-54h0A16,16,0,0,1,436,377.1Z"/><path class="cls-21" d="M391,443.7h-.7V396.5h0a11.29,11.29,0,0,1,11.3,11.3V433A10.56,10.56,0,0,1,391,443.7Z"/><path class="cls-27" d="M436,377.1V347.5h0a14,14,0,0,0-14,14v15.6a29.94,29.94,0,0,0,16,26.5v29.5a14,14,0,0,0,14,14h0v-54A16,16,0,0,1,436,377.1Z"/><path class="cls-7" d="M436,377.1V347.5H404v30.3a15.3,15.3,0,0,1-15.3,15.3H388v54h64v-54h0A16,16,0,0,1,436,377.1Z"/><path class="cls-28" d="M408,302.9v44.7h24V314a36.46,36.46,0,0,1-20.3-12.4A2.06,2.06,0,0,0,408,302.9Z"/><path class="cls-7" d="M408,303.7v43.8h24V313.9a37,37,0,0,1-19.8-11.8A2.38,2.38,0,0,0,408,303.7Z"/><path class="cls-29" d="M552.2,636.2h-36a12,12,0,0,1-12-12V608.7h60v15.5A12,12,0,0,1,552.2,636.2Z"/><path class="cls-30" d="M555,618.8v4.7a5.34,5.34,0,0,1-5.3,5.3H524.1a7.49,7.49,0,0,0-7.5,7.5h35.5a12,12,0,0,0,12-12V610h-.4A8.73,8.73,0,0,0,555,618.8Z"/><path class="cls-31" d="M511.1,630.8h0a3.9,3.9,0,0,1-3.9-3.9V611.6h3.9a3.9,3.9,0,0,1,3.9,3.9v11.4A4,4,0,0,1,511.1,630.8Z"/><path class="cls-7" d="M552.2,636.2h-36a12,12,0,0,1-12-12V608.7h60v15.5A12,12,0,0,1,552.2,636.2Z"/><path class="cls-32" d="M566.2,608.7h-20v-221a10,10,0,0,1,10-10h0a10,10,0,0,1,10,10Z"/><path class="cls-7" d="M566.2,608.7h-20v-221a10,10,0,0,1,10-10h0a10,10,0,0,1,10,10Z"/><path class="cls-28" d="M522.2,608.7h-20v-221a10,10,0,0,1,10-10h0a10,10,0,0,1,10,10Z"/><path class="cls-33" d="M506.9,604.2h0a4.23,4.23,0,0,1-4.2-4.2V386.5a4.23,4.23,0,0,1,4.2-4.2h0a4.23,4.23,0,0,1,4.2,4.2V600A4.23,4.23,0,0,1,506.9,604.2Z"/><path class="cls-7" d="M522.2,608.7h-20v-221a10,10,0,0,1,10-10h0a10,10,0,0,1,10,10Z"/><path class="cls-34" d="M546.2,608.7h-24v-219a12,12,0,0,1,12-12h0a12,12,0,0,1,12,12Z"/><path class="cls-7" d="M546.2,608.7h-24v-219a12,12,0,0,1,12-12h0a12,12,0,0,1,12,12Z"/><path class="cls-8" d="M788.3,431.2H645.9a19.31,19.31,0,0,1-19.3-19.3V370.6a19.31,19.31,0,0,1,19.3-19.3H788.2a19.31,19.31,0,0,1,19.3,19.3v41.3A19.23,19.23,0,0,1,788.3,431.2Z"/><path class="cls-24" d="M634.8,416h0a5.8,5.8,0,0,1-5.8-5.8v-38a5.8,5.8,0,0,1,5.8-5.8h0a5.8,5.8,0,0,1,5.8,5.8v38A5.68,5.68,0,0,1,634.8,416Z"/><path class="cls-35" d="M780.8,412.4H653.3a6.23,6.23,0,0,1-6.2-6.2h0a6.23,6.23,0,0,1,6.2-6.2H780.8a6.23,6.23,0,0,1,6.2,6.2h0A6.23,6.23,0,0,1,780.8,412.4Z"/><path class="cls-35" d="M783.9,394.3H650.3a3.12,3.12,0,0,1-3.1-3.1h0a3.12,3.12,0,0,1,3.1-3.1H784a3.12,3.12,0,0,1,3.1,3.1h0A3.2,3.2,0,0,1,783.9,394.3Z"/><path class="cls-9" d="M788.3,351.2h-1.1a19.26,19.26,0,0,1,2.1,8.7V406a14.62,14.62,0,0,1-14.6,14.6H651.3a10.71,10.71,0,0,0-10.7,10.7H788.2A19.31,19.31,0,0,0,807.5,412V370.7A19.21,19.21,0,0,0,788.3,351.2Z"/><path class="cls-36" d="M795.6,364h-157a5.16,5.16,0,0,1-5.2-5.2h0a5.16,5.16,0,0,1,5.2-5.2h157a5.16,5.16,0,0,1,5.2,5.2h0A5.16,5.16,0,0,1,795.6,364Z"/><path class="cls-7" d="M788.3,431.2H645.9a19.31,19.31,0,0,1-19.3-19.3V370.6a19.31,19.31,0,0,1,19.3-19.3H788.2a19.31,19.31,0,0,1,19.3,19.3v41.3A19.23,19.23,0,0,1,788.3,431.2Z"/><path class="cls-37" d="M715.2,630.3h0A21.32,21.32,0,0,1,693.9,609V540.6a21.32,21.32,0,0,1,21.3-21.3h0a21.32,21.32,0,0,1,21.3,21.3V609A21.38,21.38,0,0,1,715.2,630.3Z"/><path class="cls-38" d="M700.8,617.5h0a5.38,5.38,0,0,1-5.4-5.4V535.4a5.38,5.38,0,0,1,5.4-5.4h0a5.38,5.38,0,0,1,5.4,5.4v76.7A5.38,5.38,0,0,1,700.8,617.5Z"/><path class="cls-39" d="M720.6,520.1a21.46,21.46,0,0,1,4.9,13.5V602a21.32,21.32,0,0,1-21.3,21.3h0a23.47,23.47,0,0,1-5.4-.7,21.26,21.26,0,0,0,16.4,7.7h0A21.32,21.32,0,0,0,736.5,609V540.6A21.45,21.45,0,0,0,720.6,520.1Z"/><path class="cls-7" d="M715.2,630.3h0A21.32,21.32,0,0,1,693.9,609V540.6a21.32,21.32,0,0,1,21.3-21.3h0a21.32,21.32,0,0,1,21.3,21.3V609A21.38,21.38,0,0,1,715.2,630.3Z"/><path class="cls-39" d="M727.3,524.4H703a9.13,9.13,0,0,1-9.1-9.1h0a9.13,9.13,0,0,1,9.1-9.1h24.3a9.13,9.13,0,0,1,9.1,9.1h0A9.13,9.13,0,0,1,727.3,524.4Z"/><circle class="cls-38" cx="700.1" cy="515.2" r="6.2"/><path class="cls-40" d="M727.3,506.1H713a9.13,9.13,0,0,1,9.1,9.1h0a9.13,9.13,0,0,1-9.1,9.1h14.3a9.13,9.13,0,0,0,9.1-9.1h0A9.13,9.13,0,0,0,727.3,506.1Z"/><path class="cls-7" d="M727.3,524.4H703a9.13,9.13,0,0,1-9.1-9.1h0a9.13,9.13,0,0,1,9.1-9.1h24.3a9.13,9.13,0,0,1,9.1,9.1h0A9.13,9.13,0,0,1,727.3,524.4Z"/><path class="cls-7" d="M626.6,406.2h-1.2a6.81,6.81,0,0,1-6.8-6.8V383a6.81,6.81,0,0,1,6.8-6.8h1.2Z"/><path class="cls-13" d="M626.6,406.2h-1.2a6.81,6.81,0,0,1-6.8-6.8V383a6.81,6.81,0,0,1,6.8-6.8h1.2Z"/><path class="cls-7" d="M807.6,406.2h1.2a6.81,6.81,0,0,0,6.8-6.8V383a6.81,6.81,0,0,0-6.8-6.8h-1.2Z"/><path class="cls-13" d="M807.6,406.2h1.2a6.81,6.81,0,0,0,6.8-6.8V383a6.81,6.81,0,0,0-6.8-6.8h-1.2Z"/><path class="cls-41" d="M319.9,322.5c-2-2.5-4-4.8-5.6-7.1-5-6.8-10.1-17.5-10.6-35.2a4.81,4.81,0,0,0-6.7-4.3,75.06,75.06,0,0,0-42.2,44.8h0"/><path class="cls-29" d="M319.9,334.1v-.5c0-.2.1-.5.1-.7.1-.5.1-1.1.2-1.6,0-.2.1-.4.1-.6a35.83,35.83,0,0,1,2.3-7.9,7.16,7.16,0,0,1-4.5-2.6c-1.4-1.7-2.7-3.2-3.8-4.8-5-6.8-10.1-17.6-10.6-35.2a4.75,4.75,0,0,0-6.6-4.3,74.66,74.66,0,0,0-27.3,19.4c-7.7,8.6-13.2,20.5-15.9,28.3.4.1,5.9,3.4,5.9,8.9v15.1c0,6.8,5.4,12.7,12.2,12.8A12.46,12.46,0,0,0,284.7,348V322a7.07,7.07,0,0,1,6.7-7.2,7,7,0,0,1,7.2,6.9v11.9c0,6.9,4.8,12.4,10.7,12.4,5.4,0,9.9-4.7,10.6-10.7A4.74,4.74,0,0,1,319.9,334.1Z"/><line class="cls-42" x1="408" y1="578.8" x2="408" y2="594.7"/><line class="cls-42" x1="408" y1="462.4" x2="408" y2="565.2"/><path class="cls-42" d="M285.4,607.2"/><path class="cls-6" d="M717.7,177.8h0l-10.8-16c-5.7-8.4-.4-20.2,9.8-20.9h2c10.1.7,15.4,12.4,9.8,20.9Z"/><path class="cls-8" d="M717.7,184.8h0l-10.8-16c-5.7-8.4-.4-20.2,9.8-20.9h2c10.1.7,15.4,12.4,9.8,20.9Z"/><path class="cls-7" d="M717.7,184.8h0l-10.8-16c-5.7-8.4-.4-20.2,9.8-20.9h2c10.1.7,15.4,12.4,9.8,20.9Z"/><path class="cls-42" d="M652.7,393.7"/><path class="cls-42" d="M652.7,371"/><path class="cls-42" d="M652.7,416"/><line class="cls-42" x1="652.7" y1="371" x2="736.4" y2="371"/><line class="cls-42" x1="753.5" y1="371" x2="765.5" y2="371"/><circle class="cls-43" cx="715.2" cy="606.4" r="6.7"/><circle class="cls-7" cx="715.2" cy="606.4" r="6.7"/><rect class="cls-1" x="38" y="921" width="921" height="60"/></svg>