<svg id="Layer_1" data-name="Layer 1" xmlns="http://www.w3.org/2000/svg" viewBox="0 0 1000 1000"><defs><style>.cls-1{fill:#ff2756;}.cls-2{fill:#eef2f4;}.cls-3{fill:#353535;}.cls-18,.cls-3{isolation:isolate;opacity:0.34;}.cls-4{fill:#edbec4;}.cls-5{fill:#f4d7de;}.cls-11,.cls-12,.cls-17,.cls-6{fill:none;stroke-linecap:round;stroke-linejoin:round;}.cls-12,.cls-6{stroke:#3a3842;}.cls-11,.cls-6{stroke-width:6px;}.cls-18,.cls-7{fill:#3a3842;}.cls-8{fill:#dba1a9;}.cls-9{fill:#cab5ea;}.cls-10{fill:#33313a;}.cls-11{stroke:#edbec4;}.cls-12{stroke-width:4px;}.cls-13{fill:#f26640;}.cls-14{fill:#5eb755;}.cls-15{fill:#6a82ea;}.cls-16{fill:#efad43;}.cls-17{stroke:#fff;stroke-width:8px;}.cls-19{fill:#e8b5bb;}.cls-20{fill:#f2ccd4;}</style></defs><rect class="cls-1" width="1000" height="1000"/><path class="cls-2" d="M63.2,959.2c0,2.5-1.2,3.7-2.6,3.7a1.93,1.93,0,0,1-2.1-1.4,2.2,2.2,0,0,1-1.8.8,2.81,2.81,0,0,1,0-5.6,2.18,2.18,0,0,1,1.6.7v-.5h1.6v3.9c0,.8.3,1.4,1,1.4.9,0,1.7-.9,1.7-3a5.23,5.23,0,0,0-5.4-5.3,5.55,5.55,0,0,0-5.6,5.7,5.62,5.62,0,0,0,5.9,5.7,11.93,11.93,0,0,0,2.9-.4v.6a8.12,8.12,0,0,1-2.9.4,6.2,6.2,0,1,1-.3-12.4A5.59,5.59,0,0,1,63.2,959.2Zm-4.9.3a1.35,1.35,0,0,0-1.3-1.4,1.24,1.24,0,0,0-1.3,1.4,1.26,1.26,0,0,0,1.3,1.3C57.8,960.9,58.3,960.3,58.3,959.5Z"/><path class="cls-2" d="M69.4,955.1v2a2.24,2.24,0,0,0-2.6,2.4v4.3H64.9v-8.6h1.9v1.4A2.63,2.63,0,0,1,69.4,955.1Z"/><path class="cls-2" d="M74.6,962.3a2.64,2.64,0,0,0,2.2-1.1l1.5.9a4.35,4.35,0,0,1-3.8,1.9,4.41,4.41,0,0,1-4.7-4.5,4.36,4.36,0,0,1,4.5-4.5,4.31,4.31,0,0,1,4.3,4.5,2.2,2.2,0,0,1-.1.8H71.7A2.83,2.83,0,0,0,74.6,962.3Zm2.3-3.5a2.37,2.37,0,0,0-2.5-2.1,2.51,2.51,0,0,0-2.6,2.1Z"/><path class="cls-2" d="M88.9,955.2v8.6H87v-1.2a3.69,3.69,0,0,1-3,1.5,4.44,4.44,0,0,1-4.3-4.5,4.32,4.32,0,0,1,4.3-4.5,3.61,3.61,0,0,1,3,1.4v-1.2h1.9Zm-1.8,4.3a2.7,2.7,0,1,0-2.7,2.7A2.57,2.57,0,0,0,87.1,959.5Z"/><path class="cls-2" d="M91.1,951.3H93v12.5H91.1Z"/><path class="cls-2" d="M102.9,955.2l-3.3,8.6H97.5l-3.3-8.6h2l2.4,6.5,2.4-6.5Z"/><path class="cls-2" d="M104.2,955.2h1.9v8.9c0,2.4-1.2,3.5-3.5,3.3v-1.8c1.1.1,1.7-.3,1.7-1.5v-8.9Zm-.2-2.4a1.2,1.2,0,0,1,2.4,0,1.2,1.2,0,1,1-2.4,0Z"/><path class="cls-2" d="M116,955.2l-3.3,8.8c-.8,2.2-2.2,3.3-4.2,3.2v-1.7a2.08,2.08,0,0,0,2.3-1.7l.1-.2-3.6-8.4h2l2.6,6.2,2.2-6.2Z"/><path class="cls-2" d="M211.9,938.7a3.63,3.63,0,0,1-3.6,3.8h-3v-7.6h3A3.63,3.63,0,0,1,211.9,938.7Zm-1,0a2.72,2.72,0,0,0-2.6-2.9h-2v5.7h2A2.58,2.58,0,0,0,210.9,938.7Z"/><path class="cls-2" d="M219.5,940.8h-3.4l-.6,1.7h-1.1l2.8-7.6h1.1l2.8,7.6H220Zm-.3-.9-1.4-3.8-1.4,3.8Z"/><path class="cls-2" d="M226.4,939.4v3.1h-1v-3.1l-2.7-4.5h1.1l2.1,3.6,2.1-3.6h1.1Z"/><path class="cls-2" d="M241.9,940.3a2.42,2.42,0,0,1-2.6,2.4,2.55,2.55,0,0,1-2.5-1.5l.9-.5a1.59,1.59,0,0,0,1.7,1.1,1.41,1.41,0,1,0,0-2.8h-.3l-.4-.6,1.8-2.4H237v-.9h4.6v.9l-1.7,2.2A2,2,0,0,1,241.9,940.3Z"/><path class="cls-2" d="M249.6,938.8h0l-2.5,3.7H246l1.8-2.7h-.4a2.47,2.47,0,0,1-2.6-2.6,2.52,2.52,0,0,1,2.6-2.6,2.47,2.47,0,0,1,2.6,2.6A2.54,2.54,0,0,1,249.6,938.8Zm-2.2.1a1.47,1.47,0,0,0,1.6-1.6,1.6,1.6,0,1,0-1.6,1.6Z"/><path class="cls-2" d="M58.9,938.7a3.63,3.63,0,0,1-3.6,3.8h-3v-7.6h3A3.63,3.63,0,0,1,58.9,938.7Zm-1,0a2.72,2.72,0,0,0-2.6-2.9h-2v5.7h2A2.58,2.58,0,0,0,57.9,938.7Z"/><path class="cls-2" d="M67,941.6v1H62.4V935h4.5v1H63.4v2.3h3.2v.9H63.4v2.4Z"/><path class="cls-2" d="M70,940.8l.9-.5a2,2,0,0,0,2,1.4c1.1,0,1.6-.5,1.6-1.2s-.7-1-1.8-1.4-2.4-.8-2.4-2.2a2.21,2.21,0,0,1,2.4-2.2,2.66,2.66,0,0,1,2.6,1.7l-.8.5a1.74,1.74,0,0,0-1.7-1.2c-.8,0-1.4.4-1.4,1.1s.5,1,1.6,1.3c1.3.4,2.6.8,2.6,2.3a2.33,2.33,0,0,1-2.6,2.2A2.85,2.85,0,0,1,70,940.8Z"/><path class="cls-2" d="M80,934.9v7.6H79v-7.6Z"/><path class="cls-2" d="M91.3,939.2a3.47,3.47,0,0,1-3.7,3.5,3.89,3.89,0,0,1-4-4,4,4,0,0,1,7.3-2.2l-.9.5a2.77,2.77,0,0,0-2.4-1.4,3,3,0,0,0,0,6,2.5,2.5,0,0,0,2.7-2H87.5v-.9h3.8Z"/><path class="cls-2" d="M100.6,934.9v7.6h-.8l-3.9-5.7v5.7h-1v-7.6h.8l3.9,5.7v-5.7Z"/><path class="cls-2" d="M109.1,941.6v1h-4.6V935H109v1h-3.5v2.3h3.2v.9h-3.2v2.4Z"/><path class="cls-2" d="M119.2,938.7a3.63,3.63,0,0,1-3.6,3.8h-3v-7.6h3A3.7,3.7,0,0,1,119.2,938.7Zm-1,0a2.72,2.72,0,0,0-2.6-2.9h-2v5.7h2A2.58,2.58,0,0,0,118.2,938.7Z"/><path class="cls-2" d="M133.2,940.4a2.22,2.22,0,0,1-2.2,2.2h-3.3V935h3a2.05,2.05,0,0,1,2.1,2.1,1.94,1.94,0,0,1-.8,1.6A1.66,1.66,0,0,1,133.2,940.4Zm-4.5-4.6v2.3h2a1.13,1.13,0,0,0,1.1-1.2,1.2,1.2,0,0,0-1.1-1.2h-2Zm3.5,4.5a1.16,1.16,0,0,0-1.2-1.2h-2.3v2.5H131A1.24,1.24,0,0,0,132.2,940.3Z"/><path class="cls-2" d="M139.4,939.4v3.1h-1v-3.1l-2.7-4.5h1.1l2.1,3.6,2.1-3.6h1.1Z"/><path class="cls-2" d="M216.2,958.1a5.92,5.92,0,0,1-5.9,6.2h-4.9V951.9h4.9A5.92,5.92,0,0,1,216.2,958.1Zm-1.9,0a3.89,3.89,0,0,0-4-4.2h-2.8v8.5h2.8A4.08,4.08,0,0,0,214.3,958.1Z"/><path class="cls-2" d="M222.3,962.8a2.7,2.7,0,0,0,2.3-1.1l1.6.9a4.41,4.41,0,0,1-3.9,1.9,4.7,4.7,0,1,1-.1-9.4,4.45,4.45,0,0,1,4.4,4.7,2.2,2.2,0,0,1-.1.8h-7A2.62,2.62,0,0,0,222.3,962.8Zm2.4-3.7a2.53,2.53,0,0,0-2.5-2.2,2.61,2.61,0,0,0-2.7,2.2Z"/><path class="cls-2" d="M234.4,961.8c0,1.8-1.5,2.7-3.5,2.7a3.66,3.66,0,0,1-3.6-2.1l1.6-1a2,2,0,0,0,2,1.3c.8,0,1.5-.3,1.5-1,0-1.6-4.8-.7-4.8-3.9,0-1.7,1.4-2.7,3.2-2.7a3.63,3.63,0,0,1,3.3,1.8l-1.6.9a1.67,1.67,0,0,0-1.7-1c-.7,0-1.3.3-1.3.9C229.7,959.5,234.4,958.5,234.4,961.8Z"/><path class="cls-2" d="M241.5,964.3l-3.6-4.1v4.1H236V951.9h1.9v7.5l3.4-3.9h2.3l-3.9,4.3,4,4.5Z"/><path class="cls-2" d="M247.7,957.3v4.2c0,1.1.7,1.1,2.2,1v1.7c-2.9.4-4.1-.5-4.1-2.8v-4.2h-1.6v-1.8h1.6v-1.9l1.9-.6v2.5h2.2v1.8h-2.2Z"/><path class="cls-2" d="M250.8,959.9a4.69,4.69,0,0,1,4.7-4.7,4.63,4.63,0,0,1,4.7,4.7,4.69,4.69,0,0,1-4.7,4.7A4.76,4.76,0,0,1,250.8,959.9Zm7.4,0a2.8,2.8,0,1,0-2.8,2.8A2.73,2.73,0,0,0,258.2,959.9Z"/><path class="cls-2" d="M271.3,959.9a4.57,4.57,0,0,1-4.4,4.7,3.75,3.75,0,0,1-3.1-1.5v4.8h-1.9V955.5h1.9v1.3a3.75,3.75,0,0,1,3.1-1.5A4.42,4.42,0,0,1,271.3,959.9Zm-1.9,0a2.8,2.8,0,1,0-2.8,2.8A2.73,2.73,0,0,0,269.4,959.9Z"/><path class="cls-2" d="M286.2,956a4.06,4.06,0,0,1-4.1,4.1h-2.5v4.2h-2V951.9h4.6A4,4,0,0,1,286.2,956Zm-2,0a2.08,2.08,0,0,0-2.1-2.2h-2.5v4.3h2.5A2.05,2.05,0,0,0,284.2,956Z"/><path class="cls-2" d="M287.3,958.1a6.28,6.28,0,0,1,6.5-6.4,6,6,0,0,1,5.3,3l-1.8,1a4.08,4.08,0,0,0-3.6-2,4.2,4.2,0,0,0-4.4,4.4,4.25,4.25,0,0,0,4.4,4.4,4.08,4.08,0,0,0,3.6-2l1.8,1a6,6,0,0,1-5.3,3A6.28,6.28,0,0,1,287.3,958.1Z"/><path class="cls-2" d="M846.1,938.7a3.63,3.63,0,0,1-3.6,3.8h-3v-7.6h3A3.63,3.63,0,0,1,846.1,938.7Zm-.9,0a2.72,2.72,0,0,0-2.6-2.9h-2v5.7h2A2.58,2.58,0,0,0,845.2,938.7Z"/><path class="cls-2" d="M849.3,938.7a3.93,3.93,0,0,1,3.9-4,4,4,0,0,1,4,4,4,4,0,1,1-7.9,0Zm6.8,0a2.93,2.93,0,0,0-2.9-3,2.86,2.86,0,0,0-2.9,3,2.93,2.93,0,0,0,2.9,3A2.86,2.86,0,0,0,856.1,938.7Z"/><path class="cls-2" d="M859.8,934.9h1.1l1.7,6.3,1.9-6.3h1l1.9,6.3,1.7-6.3h1.1l-2.2,7.6h-1.2l-1.8-6.1-1.8,6.1H862Z"/><path class="cls-2" d="M879.3,934.9v7.6h-.8l-3.9-5.7v5.7h-1v-7.6h.8l3.9,5.7v-5.7Z"/><path class="cls-2" d="M887.5,941.6v1h-4.3V935h1v6.7h3.3Z"/><path class="cls-2" d="M889.9,938.7a3.93,3.93,0,0,1,3.9-4,4,4,0,0,1,4,4,4,4,0,1,1-7.9,0Zm6.9,0a2.93,2.93,0,0,0-2.9-3,2.86,2.86,0,0,0-2.9,3,2.9,2.9,0,1,0,5.8,0Z"/><path class="cls-2" d="M905.4,940.8H902l-.6,1.7h-1.1l2.8-7.6h1.1l2.8,7.6h-1Zm-.3-.9-1.4-3.8-1.4,3.8Z"/><path class="cls-2" d="M916.9,938.7a3.63,3.63,0,0,1-3.6,3.8h-3v-7.6h3A3.63,3.63,0,0,1,916.9,938.7Zm-1,0a2.72,2.72,0,0,0-2.6-2.9h-2v5.7h2A2.52,2.52,0,0,0,915.9,938.7Z"/><path class="cls-2" d="M926.5,935.8v2.5h3.2v1h-3.2v3.2h-1v-7.6h4.4v1h-3.4Z"/><path class="cls-2" d="M936.2,939.6h-1.8v2.9h-1v-7.6h3a2.43,2.43,0,0,1,2.4,2.4,2.38,2.38,0,0,1-1.6,2.2l1.8,3.1h-1.1Zm-1.8-.9h2a1.4,1.4,0,0,0,0-2.8h-2Z"/><path class="cls-2" d="M941.9,938.7a3.93,3.93,0,0,1,3.9-4,4,4,0,0,1,4,4,4,4,0,1,1-7.9,0Zm6.9,0a2.93,2.93,0,0,0-2.9-3,2.86,2.86,0,0,0-2.9,3,2.9,2.9,0,1,0,5.8,0Z"/><path class="cls-2" d="M960.4,942.5h-1v-6l-2.5,4.2h-.1l-2.5-4.1v5.9h-1v-7.6h1.1l2.4,4,2.4-4h1.1v7.6Z"/><path class="cls-2" d="M839.3,952.9a1.2,1.2,0,1,1,1.2,1.2A1.22,1.22,0,0,1,839.3,952.9Zm.3,2.5h1.9v8.9h-1.9Z"/><path class="cls-2" d="M843.7,951.4h1.9v12.9h-1.9Z"/><path class="cls-2" d="M847.8,951.4h1.9v12.9h-1.9Z"/><path class="cls-2" d="M852,951.4h1.9v12.9H852Z"/><path class="cls-2" d="M864,955.4v8.9h-1.9v-1.1a3.07,3.07,0,0,1-2.7,1.4A3.26,3.26,0,0,1,856,961v-5.4h1.9v5.2a1.92,1.92,0,0,0,2,2.1c1.3,0,2.2-.7,2.2-2.5v-4.7H864Z"/><path class="cls-2" d="M872.6,961.8c0,1.8-1.5,2.7-3.5,2.7a3.66,3.66,0,0,1-3.6-2.1l1.6-1a2,2,0,0,0,2,1.3c.8,0,1.5-.3,1.5-1,0-1.6-4.8-.7-4.8-3.9,0-1.7,1.4-2.7,3.2-2.7a3.63,3.63,0,0,1,3.3,1.8l-1.6.9a1.67,1.67,0,0,0-1.7-1c-.7,0-1.3.3-1.3.9C867.9,959.5,872.6,958.5,872.6,961.8Z"/><path class="cls-2" d="M876.7,957.3v4.2c0,1.1.7,1.1,2.2,1v1.7c-2.9.4-4.1-.5-4.1-2.8v-4.2h-1.6v-1.8h1.6v-1.9l1.9-.6v2.5h2.2v1.8h-2.2Z"/><path class="cls-2" d="M885.4,955.3v2.1a2.31,2.31,0,0,0-2.7,2.5v4.5h-1.9v-8.9h1.9V957A2.58,2.58,0,0,1,885.4,955.3Z"/><path class="cls-2" d="M895.3,955.4v8.9h-1.9V963a3.75,3.75,0,0,1-3.1,1.5,4.51,4.51,0,0,1-4.4-4.7,4.57,4.57,0,0,1,4.4-4.7,3.75,3.75,0,0,1,3.1,1.5v-1.3h1.9Zm-1.9,4.5a2.8,2.8,0,1,0-2.8,2.8A2.73,2.73,0,0,0,893.4,959.9Z"/><path class="cls-2" d="M900.3,957.3v4.2c0,1.1.7,1.1,2.2,1v1.7c-2.9.4-4.1-.5-4.1-2.8v-4.2h-1.6v-1.8h1.6v-1.9l1.9-.6v2.5h2.2v1.8h-2.2Z"/><path class="cls-2" d="M903.9,952.9a1.2,1.2,0,1,1,1.2,1.2A1.22,1.22,0,0,1,903.9,952.9Zm.3,2.5h1.9v8.9h-1.9Z"/><path class="cls-2" d="M907.8,959.9a4.69,4.69,0,0,1,4.7-4.7,4.63,4.63,0,0,1,4.7,4.7,4.69,4.69,0,0,1-4.7,4.7A4.76,4.76,0,0,1,907.8,959.9Zm7.5,0a2.8,2.8,0,1,0-2.8,2.8A2.73,2.73,0,0,0,915.3,959.9Z"/><path class="cls-2" d="M927,958.9v5.4h-1.9v-5.2a1.92,1.92,0,0,0-2-2.1c-1.3,0-2.2.7-2.2,2.5v4.7H919v-8.9h1.9v1.1a3.07,3.07,0,0,1,2.7-1.4A3.7,3.7,0,0,1,927,958.9Z"/><path class="cls-2" d="M935.5,961.8c0,1.8-1.5,2.7-3.5,2.7a3.66,3.66,0,0,1-3.6-2.1l1.6-1a2,2,0,0,0,2,1.3c.8,0,1.5-.3,1.5-1,0-1.6-4.8-.7-4.8-3.9,0-1.7,1.4-2.7,3.2-2.7a3.63,3.63,0,0,1,3.3,1.8l-1.6.9a1.67,1.67,0,0,0-1.7-1c-.7,0-1.3.3-1.3.9C930.7,959.5,935.5,958.5,935.5,961.8Z"/><path class="cls-2" d="M936.8,963.2a1.3,1.3,0,1,1,1.3,1.3A1.32,1.32,0,0,1,936.8,963.2Z"/><path class="cls-2" d="M940.3,959.9a4.63,4.63,0,0,1,4.7-4.7,4.31,4.31,0,0,1,3.9,2.3l-1.6,1a2.61,2.61,0,0,0-2.3-1.4,2.65,2.65,0,0,0-2.7,2.8,2.71,2.71,0,0,0,2.7,2.8,2.59,2.59,0,0,0,2.4-1.4l1.6.9a4.35,4.35,0,0,1-4,2.3A4.55,4.55,0,0,1,940.3,959.9Z"/><path class="cls-2" d="M949.7,959.9a4.69,4.69,0,0,1,4.7-4.7,4.63,4.63,0,0,1,4.7,4.7,4.69,4.69,0,0,1-4.7,4.7A4.76,4.76,0,0,1,949.7,959.9Zm7.5,0a2.8,2.8,0,1,0-2.8,2.8A2.73,2.73,0,0,0,957.2,959.9Z"/><path class="cls-3" d="M738.7,678.2H279.3a19,19,0,0,1-19-19h0a19,19,0,0,1,19-19H738.6a19,19,0,0,1,19,19h0A18.84,18.84,0,0,1,738.7,678.2Z"/><path class="cls-4" d="M381.8,520.8v-200a12,12,0,0,1,12-12h220a12,12,0,0,1,12,12v200a12,12,0,0,1-12,12h-220A12,12,0,0,1,381.8,520.8Z"/><path class="cls-5" d="M389.8,511.5v-188a5,5,0,0,1,5-5h218a5,5,0,0,1,5,5v188a5,5,0,0,1-5,5h-218A5,5,0,0,1,389.8,511.5Z"/><path class="cls-6" d="M381.8,520.8v-200a12,12,0,0,1,12-12h220a12,12,0,0,1,12,12v200a12,12,0,0,1-12,12h-220A12,12,0,0,1,381.8,520.8Z"/><path class="cls-4" d="M399.8,483.5v-146a7,7,0,0,1,7-7h194a7,7,0,0,1,7,7v146a7,7,0,0,1-7,7h-194A7,7,0,0,1,399.8,483.5Z"/><path class="cls-7" d="M428.8,481.5a22.06,22.06,0,0,1-22-22v-98a22.06,22.06,0,0,1,22-22h150a22.06,22.06,0,0,1,22,22v98a22.06,22.06,0,0,1-22,22Z"/><path class="cls-4" d="M582.8,550.8h-158a8,8,0,0,1-8-8v-10h174v10A8,8,0,0,1,582.8,550.8Z"/><rect class="cls-8" x="416.8" y="532.8" width="174" height="9"/><path class="cls-6" d="M582.8,550.8h-158a8,8,0,0,1-8-8v-10h174v10A8,8,0,0,1,582.8,550.8Z"/><path class="cls-4" d="M675.8,646.8h-344a8,8,0,0,1-8-8v-80a8,8,0,0,1,8-8h344a8,8,0,0,1,8,8v80A8,8,0,0,1,675.8,646.8Z"/><path class="cls-6" d="M675.8,646.8h-344a8,8,0,0,1-8-8v-80a8,8,0,0,1,8-8h344a8,8,0,0,1,8,8v80A8,8,0,0,1,675.8,646.8Z"/><path class="cls-5" d="M336.2,630.8v-64a8,8,0,0,1,8-8H663.3a8,8,0,0,1,8,8v64a8,8,0,0,1-8,8H344.2A8,8,0,0,1,336.2,630.8Z"/><circle class="cls-9" cx="574" cy="503.1" r="7.5"/><circle class="cls-7" cx="574" cy="503.1" r="6.5"/><circle class="cls-10" cx="574" cy="503.1" r="5.6"/><line class="cls-11" x1="444.2" y1="604.3" x2="444.2" y2="631.8"/><line class="cls-11" x1="434.2" y1="604.3" x2="434.2" y2="631.8"/><line class="cls-11" x1="424.2" y1="604.3" x2="424.2" y2="631.8"/><line class="cls-11" x1="414.2" y1="604.3" x2="414.2" y2="631.8"/><line class="cls-11" x1="404.2" y1="604.3" x2="404.2" y2="631.8"/><line class="cls-11" x1="394.2" y1="604.3" x2="394.2" y2="631.8"/><line class="cls-11" x1="384.2" y1="604.3" x2="384.2" y2="631.8"/><line class="cls-11" x1="374.2" y1="604.3" x2="374.2" y2="631.8"/><line class="cls-11" x1="364.2" y1="604.3" x2="364.2" y2="631.8"/><line class="cls-12" x1="445.1" y1="604.3" x2="445.1" y2="631.8"/><line class="cls-12" x1="435.1" y1="604.3" x2="435.1" y2="631.8"/><line class="cls-12" x1="425.1" y1="604.3" x2="425.1" y2="631.8"/><line class="cls-12" x1="415.1" y1="604.3" x2="415.1" y2="631.8"/><line class="cls-12" x1="405.1" y1="604.3" x2="405.1" y2="631.8"/><line class="cls-12" x1="395.1" y1="604.3" x2="395.1" y2="631.8"/><line class="cls-12" x1="385.1" y1="604.3" x2="385.1" y2="631.8"/><line class="cls-12" x1="375.1" y1="604.3" x2="375.1" y2="631.8"/><line class="cls-12" x1="365.1" y1="604.3" x2="365.1" y2="631.8"/><rect class="cls-13" x="359.8" y="571.2" width="6.8" height="6.8"/><rect class="cls-14" x="368" y="571.2" width="6.8" height="6.8"/><rect class="cls-15" x="359.8" y="579.1" width="6.8" height="6.8"/><rect class="cls-16" x="368" y="579.1" width="6.8" height="6.8"/><line class="cls-17" x1="464" y1="355.8" x2="519.3" y2="355.8"/><path class="cls-17" d="M448,355.8"/><line class="cls-17" x1="432" y1="355.8" x2="448" y2="355.8"/><path class="cls-10" d="M578.8,339.5h-7.6A123.46,123.46,0,0,1,448.1,453.8H406.8v5.7a22.06,22.06,0,0,0,22,22h150a22.06,22.06,0,0,0,22-22v-98A22.06,22.06,0,0,0,578.8,339.5Z"/><rect class="cls-18" x="378.1" y="574.5" width="24.8" height="3.6"/><rect class="cls-18" x="378.1" y="580.7" width="12.4" height="1.9"/><rect class="cls-19" x="405" y="632.5" width="104" height="12"/><rect class="cls-19" x="343.2" y="632.5" width="20" height="12"/><rect class="cls-19" x="374.1" y="632.5" width="20" height="12"/><rect class="cls-19" x="519.9" y="632.5" width="20" height="12"/><rect class="cls-19" x="550.8" y="632.5" width="20" height="12"/><rect class="cls-19" x="581.8" y="632.5" width="20" height="12"/><rect class="cls-6" x="405" y="632.5" width="104" height="12"/><rect class="cls-6" x="343.2" y="632.5" width="20" height="12"/><rect class="cls-6" x="374.1" y="632.5" width="20" height="12"/><rect class="cls-6" x="519.9" y="632.5" width="20" height="12"/><rect class="cls-6" x="550.8" y="632.5" width="20" height="12"/><rect class="cls-6" x="581.8" y="632.5" width="20" height="12"/><path class="cls-20" d="M620.8,662.5h-296a4,4,0,0,1-4-4v-10a4,4,0,0,1,4-4h296a4,4,0,0,1,4,4v10A4,4,0,0,1,620.8,662.5Z"/><path class="cls-6" d="M620.8,662.5h-296a4,4,0,0,1-4-4v-10a4,4,0,0,1,4-4h296a4,4,0,0,1,4,4v10A4,4,0,0,1,620.8,662.5Z"/><path class="cls-20" d="M685.1,662.5H647.8v-4.8A13.19,13.19,0,0,1,661,644.5h11a13.19,13.19,0,0,1,13.2,13.2v4.8Z"/><path class="cls-6" d="M685.1,662.5H647.8v-4.8A13.19,13.19,0,0,1,661,644.5h11a13.19,13.19,0,0,1,13.2,13.2v4.8Z"/><path class="cls-4" d="M646.4,591.5H555.1a1.43,1.43,0,0,1-1.4-1.4v-8a1.43,1.43,0,0,1,1.4-1.4h91.3a1.43,1.43,0,0,1,1.4,1.4v8A1.37,1.37,0,0,1,646.4,591.5Z"/><path class="cls-4" d="M612.6,595.5H588.9a1.22,1.22,0,0,1-1.2-1.2V578a1.22,1.22,0,0,1,1.2-1.2h23.7a1.22,1.22,0,0,1,1.2,1.2v16.3A1.1,1.1,0,0,1,612.6,595.5Z"/><rect class="cls-7" x="557.8" y="582.1" width="86" height="8"/><rect class="cls-7" x="588.8" y="579.1" width="24" height="14"/><path class="cls-10" d="M559.8,586.1h0a2,2,0,0,1,2-2h78a2,2,0,0,1,2,2h0a2,2,0,0,1-2,2h-78A2,2,0,0,1,559.8,586.1Z"/><path class="cls-4" d="M646.4,616.8H555.1a1.43,1.43,0,0,1-1.4-1.4v-8a1.43,1.43,0,0,1,1.4-1.4h91.3a1.43,1.43,0,0,1,1.4,1.4v8A1.37,1.37,0,0,1,646.4,616.8Z"/><path class="cls-4" d="M612.6,620.9H588.9a1.22,1.22,0,0,1-1.2-1.2V603.4a1.22,1.22,0,0,1,1.2-1.2h23.7a1.22,1.22,0,0,1,1.2,1.2v16.3A1.15,1.15,0,0,1,612.6,620.9Z"/><rect class="cls-7" x="557.8" y="607.5" width="86" height="8"/><rect class="cls-7" x="588.8" y="604.5" width="24" height="14"/><path class="cls-10" d="M559.8,611.5h0a2,2,0,0,1,2-2h78a2,2,0,0,1,2,2h0a2,2,0,0,1-2,2h-78A2,2,0,0,1,559.8,611.5Z"/><rect class="cls-1" x="34" y="919" width="938" height="61"/></svg>