<svg id="Layer_1" data-name="Layer 1" xmlns="http://www.w3.org/2000/svg" viewBox="0 0 1000 1000"><defs><style>.cls-1{fill:#34c1aa;}.cls-2{fill:#eef2f4;}.cls-3{opacity:0.6;}.cls-15,.cls-23,.cls-4,.cls-8{fill:none;}.cls-4,.cls-5{stroke:#424242;}.cls-15,.cls-4,.cls-5{stroke-miterlimit:10;}.cls-23,.cls-4,.cls-5{stroke-width:6px;}.cls-5{fill:#424242;}.cls-6{fill:#fff;}.cls-7{fill:#d8d8d8;}.cls-15,.cls-23,.cls-8{stroke:#133b4f;}.cls-23,.cls-8{stroke-linecap:round;stroke-linejoin:round;}.cls-15,.cls-8{stroke-width:4px;}.cls-9{fill:#ec1ce4;}.cls-10{fill:#67cc70;}.cls-11{fill:#133b4f;}.cls-12{fill:#6f8699;}.cls-13{fill:#dabc95;}.cls-14{fill:#d6d9e2;}.cls-16{fill:#ff815f;}.cls-17{fill:#fb2;}.cls-18{fill:#67cf70;}.cls-19{fill:#f6164c;}.cls-20{fill:#ce7867;}.cls-21{fill:#984db2;}.cls-22{fill:#f3c50d;}</style></defs><rect class="cls-1" width="1000" height="1000"/><path class="cls-2" d="M63.2,959.2c0,2.5-1.2,3.7-2.6,3.7a1.93,1.93,0,0,1-2.1-1.4,2.2,2.2,0,0,1-1.8.8,2.81,2.81,0,0,1,0-5.6,2.18,2.18,0,0,1,1.6.7v-.5h1.6v3.9c0,.8.3,1.4,1,1.4.9,0,1.7-.9,1.7-3a5.23,5.23,0,0,0-5.4-5.3,5.55,5.55,0,0,0-5.6,5.7,5.62,5.62,0,0,0,5.9,5.7,11.93,11.93,0,0,0,2.9-.4v.6a8.12,8.12,0,0,1-2.9.4,6.2,6.2,0,1,1-.3-12.4A5.59,5.59,0,0,1,63.2,959.2Zm-4.9.3a1.35,1.35,0,0,0-1.3-1.4,1.24,1.24,0,0,0-1.3,1.4,1.26,1.26,0,0,0,1.3,1.3C57.8,960.9,58.3,960.3,58.3,959.5Z"/><path class="cls-2" d="M69.4,955.1v2a2.24,2.24,0,0,0-2.6,2.4v4.3H64.9v-8.6h1.9v1.4A2.63,2.63,0,0,1,69.4,955.1Z"/><path class="cls-2" d="M74.6,962.3a2.64,2.64,0,0,0,2.2-1.1l1.5.9a4.35,4.35,0,0,1-3.8,1.9,4.41,4.41,0,0,1-4.7-4.5,4.36,4.36,0,0,1,4.5-4.5,4.31,4.31,0,0,1,4.3,4.5,2.2,2.2,0,0,1-.1.8H71.7A2.83,2.83,0,0,0,74.6,962.3Zm2.3-3.5a2.37,2.37,0,0,0-2.5-2.1,2.51,2.51,0,0,0-2.6,2.1Z"/><path class="cls-2" d="M88.9,955.2v8.6H87v-1.2a3.69,3.69,0,0,1-3,1.5,4.44,4.44,0,0,1-4.3-4.5,4.32,4.32,0,0,1,4.3-4.5,3.61,3.61,0,0,1,3,1.4v-1.2h1.9Zm-1.8,4.3a2.7,2.7,0,1,0-2.7,2.7A2.57,2.57,0,0,0,87.1,959.5Z"/><path class="cls-2" d="M91.1,951.3H93v12.5H91.1Z"/><path class="cls-2" d="M102.9,955.2l-3.3,8.6H97.5l-3.3-8.6h2l2.4,6.5,2.4-6.5Z"/><path class="cls-2" d="M104.2,955.2h1.9v8.9c0,2.4-1.2,3.5-3.5,3.3v-1.8c1.1.1,1.7-.3,1.7-1.5v-8.9Zm-.2-2.4a1.2,1.2,0,0,1,2.4,0,1.2,1.2,0,1,1-2.4,0Z"/><path class="cls-2" d="M116,955.2l-3.3,8.8c-.8,2.2-2.2,3.3-4.2,3.2v-1.7a2.08,2.08,0,0,0,2.3-1.7l.1-.2-3.6-8.4h2l2.6,6.2,2.2-6.2Z"/><path class="cls-2" d="M211.9,938.7a3.63,3.63,0,0,1-3.6,3.8h-3v-7.6h3A3.63,3.63,0,0,1,211.9,938.7Zm-1,0a2.72,2.72,0,0,0-2.6-2.9h-2v5.7h2A2.58,2.58,0,0,0,210.9,938.7Z"/><path class="cls-2" d="M219.5,940.8h-3.4l-.6,1.7h-1.1l2.8-7.6h1.1l2.8,7.6H220Zm-.3-.9-1.4-3.8-1.4,3.8Z"/><path class="cls-2" d="M226.4,939.4v3.1h-1v-3.1l-2.7-4.5h1.1l2.1,3.6,2.1-3.6h1.1Z"/><path class="cls-2" d="M242.6,941.1h-.9v1.4h-1v-1.4h-3.9v-.9l2.7-5.2h1.1l-2.7,5.2h2.8V938h1v2.2h.9v.9Z"/><path class="cls-2" d="M249.9,934.9v.9l-2.8,6.7H246l2.8-6.7h-3.7v-1h4.8Z"/><path class="cls-2" d="M58.9,938.7a3.63,3.63,0,0,1-3.6,3.8h-3v-7.6h3A3.63,3.63,0,0,1,58.9,938.7Zm-1,0a2.72,2.72,0,0,0-2.6-2.9h-2v5.7h2A2.58,2.58,0,0,0,57.9,938.7Z"/><path class="cls-2" d="M67,941.6v1H62.4V935h4.5v1H63.4v2.3h3.2v.9H63.4v2.4Z"/><path class="cls-2" d="M70,940.8l.9-.5a2,2,0,0,0,2,1.4c1.1,0,1.6-.5,1.6-1.2s-.7-1-1.8-1.4-2.4-.8-2.4-2.2a2.21,2.21,0,0,1,2.4-2.2,2.66,2.66,0,0,1,2.6,1.7l-.8.5a1.74,1.74,0,0,0-1.7-1.2c-.8,0-1.4.4-1.4,1.1s.5,1,1.6,1.3c1.3.4,2.6.8,2.6,2.3a2.33,2.33,0,0,1-2.6,2.2A2.85,2.85,0,0,1,70,940.8Z"/><path class="cls-2" d="M80,934.9v7.6H79v-7.6Z"/><path class="cls-2" d="M91.3,939.2a3.47,3.47,0,0,1-3.7,3.5,3.89,3.89,0,0,1-4-4,4,4,0,0,1,7.3-2.2l-.9.5a2.77,2.77,0,0,0-2.4-1.4,3,3,0,0,0,0,6,2.5,2.5,0,0,0,2.7-2H87.5v-.9h3.8Z"/><path class="cls-2" d="M100.6,934.9v7.6h-.8l-3.9-5.7v5.7h-1v-7.6h.8l3.9,5.7v-5.7Z"/><path class="cls-2" d="M109.1,941.6v1h-4.6V935H109v1h-3.5v2.3h3.2v.9h-3.2v2.4Z"/><path class="cls-2" d="M119.2,938.7a3.63,3.63,0,0,1-3.6,3.8h-3v-7.6h3A3.7,3.7,0,0,1,119.2,938.7Zm-1,0a2.72,2.72,0,0,0-2.6-2.9h-2v5.7h2A2.58,2.58,0,0,0,118.2,938.7Z"/><path class="cls-2" d="M133.2,940.4a2.22,2.22,0,0,1-2.2,2.2h-3.3V935h3a2.05,2.05,0,0,1,2.1,2.1,1.94,1.94,0,0,1-.8,1.6A1.66,1.66,0,0,1,133.2,940.4Zm-4.5-4.6v2.3h2a1.13,1.13,0,0,0,1.1-1.2,1.2,1.2,0,0,0-1.1-1.2h-2Zm3.5,4.5a1.16,1.16,0,0,0-1.2-1.2h-2.3v2.5H131A1.24,1.24,0,0,0,132.2,940.3Z"/><path class="cls-2" d="M139.4,939.4v3.1h-1v-3.1l-2.7-4.5h1.1l2.1,3.6,2.1-3.6h1.1Z"/><path class="cls-2" d="M204.8,958.1a6.28,6.28,0,0,1,6.5-6.4,6,6,0,0,1,5.3,3l-1.8,1a4.08,4.08,0,0,0-3.6-2,4.2,4.2,0,0,0-4.4,4.4,4.25,4.25,0,0,0,4.4,4.4,4.08,4.08,0,0,0,3.6-2l1.8,1a6,6,0,0,1-5.3,3A6.28,6.28,0,0,1,204.8,958.1Z"/><path class="cls-2" d="M226.3,958.9v5.4h-1.9v-5.2a1.92,1.92,0,0,0-2-2.1c-1.3,0-2.2.7-2.2,2.5v4.7h-1.9V951.8h1.9v4.7a3.07,3.07,0,0,1,2.7-1.4A3.48,3.48,0,0,1,226.3,958.9Z"/><path class="cls-2" d="M232.7,962.8a2.7,2.7,0,0,0,2.3-1.1l1.6.9a4.41,4.41,0,0,1-3.9,1.9,4.7,4.7,0,1,1-.1-9.4,4.45,4.45,0,0,1,4.4,4.7,2.2,2.2,0,0,1-.1.8h-7A2.62,2.62,0,0,0,232.7,962.8Zm2.4-3.7a2.53,2.53,0,0,0-2.5-2.2,2.61,2.61,0,0,0-2.7,2.2Z"/><path class="cls-2" d="M251.7,958.8v5.5h-1.9v-5.4a1.69,1.69,0,0,0-1.7-1.9c-1.1,0-1.9.7-1.9,2.3v5h-1.9v-5.4c0-1.2-.6-1.9-1.7-1.9s-2,.7-2,2.3v5h-1.9v-8.9h1.9v1.1a2.76,2.76,0,0,1,2.5-1.3,2.63,2.63,0,0,1,2.5,1.4,3.07,3.07,0,0,1,2.7-1.4A3.26,3.26,0,0,1,251.7,958.8Z"/><path class="cls-2" d="M253.5,952.9a1.2,1.2,0,1,1,1.2,1.2A1.22,1.22,0,0,1,253.5,952.9Zm.3,2.5h1.9v8.9h-1.9Z"/><path class="cls-2" d="M264.3,961.8c0,1.8-1.5,2.7-3.5,2.7a3.66,3.66,0,0,1-3.6-2.1l1.6-1a2,2,0,0,0,2,1.3c.8,0,1.5-.3,1.5-1,0-1.6-4.8-.7-4.8-3.9,0-1.7,1.4-2.7,3.2-2.7a3.63,3.63,0,0,1,3.3,1.8l-1.6.9a1.67,1.67,0,0,0-1.7-1c-.7,0-1.3.3-1.3.9C259.6,959.5,264.3,958.5,264.3,961.8Z"/><path class="cls-2" d="M268.4,957.3v4.2c0,1.1.7,1.1,2.2,1v1.7c-2.9.4-4.1-.5-4.1-2.8v-4.2h-1.6v-1.8h1.6v-1.9l1.9-.6v2.5h2.2v1.8h-2.2Z"/><path class="cls-2" d="M277.1,955.3v2.1a2.31,2.31,0,0,0-2.7,2.5v4.5h-1.9v-8.9h1.9V957A2.58,2.58,0,0,1,277.1,955.3Z"/><path class="cls-2" d="M286.7,955.4l-3.4,9.1c-.8,2.2-2.3,3.4-4.3,3.3V966a2.34,2.34,0,0,0,2.4-1.7l.1-.2-3.8-8.7h2.1l2.6,6.4,2.3-6.4Z"/><path class="cls-2" d="M299.5,962.3v1.9h-7.1V951.8h2v10.4h5.1Z"/><path class="cls-2" d="M309.5,955.4v8.9h-1.9V963a3.75,3.75,0,0,1-3.1,1.5,4.51,4.51,0,0,1-4.4-4.7,4.57,4.57,0,0,1,4.4-4.7,3.75,3.75,0,0,1,3.1,1.5v-1.3h1.9Zm-1.9,4.5a2.8,2.8,0,1,0-2.8,2.8A2.73,2.73,0,0,0,307.6,959.9Z"/><path class="cls-2" d="M321.2,959.9a4.57,4.57,0,0,1-4.4,4.7,3.75,3.75,0,0,1-3.1-1.5v1.3h-1.9V952h1.9v4.8a3.75,3.75,0,0,1,3.1-1.5A4.36,4.36,0,0,1,321.2,959.9Zm-1.9,0a2.8,2.8,0,1,0-2.8,2.8A2.73,2.73,0,0,0,319.3,959.9Z"/><path class="cls-2" d="M846.1,938.7a3.63,3.63,0,0,1-3.6,3.8h-3v-7.6h3A3.63,3.63,0,0,1,846.1,938.7Zm-.9,0a2.72,2.72,0,0,0-2.6-2.9h-2v5.7h2A2.58,2.58,0,0,0,845.2,938.7Z"/><path class="cls-2" d="M849.3,938.7a3.93,3.93,0,0,1,3.9-4,4,4,0,0,1,4,4,4,4,0,1,1-7.9,0Zm6.8,0a2.93,2.93,0,0,0-2.9-3,2.86,2.86,0,0,0-2.9,3,2.93,2.93,0,0,0,2.9,3A2.86,2.86,0,0,0,856.1,938.7Z"/><path class="cls-2" d="M859.8,934.9h1.1l1.7,6.3,1.9-6.3h1l1.9,6.3,1.7-6.3h1.1l-2.2,7.6h-1.2l-1.8-6.1-1.8,6.1H862Z"/><path class="cls-2" d="M879.3,934.9v7.6h-.8l-3.9-5.7v5.7h-1v-7.6h.8l3.9,5.7v-5.7Z"/><path class="cls-2" d="M887.5,941.6v1h-4.3V935h1v6.7h3.3Z"/><path class="cls-2" d="M889.9,938.7a3.93,3.93,0,0,1,3.9-4,4,4,0,0,1,4,4,4,4,0,1,1-7.9,0Zm6.9,0a2.93,2.93,0,0,0-2.9-3,2.86,2.86,0,0,0-2.9,3,2.9,2.9,0,1,0,5.8,0Z"/><path class="cls-2" d="M905.4,940.8H902l-.6,1.7h-1.1l2.8-7.6h1.1l2.8,7.6h-1Zm-.3-.9-1.4-3.8-1.4,3.8Z"/><path class="cls-2" d="M916.9,938.7a3.63,3.63,0,0,1-3.6,3.8h-3v-7.6h3A3.63,3.63,0,0,1,916.9,938.7Zm-1,0a2.72,2.72,0,0,0-2.6-2.9h-2v5.7h2A2.52,2.52,0,0,0,915.9,938.7Z"/><path class="cls-2" d="M926.5,935.8v2.5h3.2v1h-3.2v3.2h-1v-7.6h4.4v1h-3.4Z"/><path class="cls-2" d="M936.2,939.6h-1.8v2.9h-1v-7.6h3a2.43,2.43,0,0,1,2.4,2.4,2.38,2.38,0,0,1-1.6,2.2l1.8,3.1h-1.1Zm-1.8-.9h2a1.4,1.4,0,0,0,0-2.8h-2Z"/><path class="cls-2" d="M941.9,938.7a3.93,3.93,0,0,1,3.9-4,4,4,0,0,1,4,4,4,4,0,1,1-7.9,0Zm6.9,0a2.93,2.93,0,0,0-2.9-3,2.86,2.86,0,0,0-2.9,3,2.9,2.9,0,1,0,5.8,0Z"/><path class="cls-2" d="M960.4,942.5h-1v-6l-2.5,4.2h-.1l-2.5-4.1v5.9h-1v-7.6h1.1l2.4,4,2.4-4h1.1v7.6Z"/><path class="cls-2" d="M839.3,952.9a1.2,1.2,0,1,1,1.2,1.2A1.22,1.22,0,0,1,839.3,952.9Zm.3,2.5h1.9v8.9h-1.9Z"/><path class="cls-2" d="M843.7,951.4h1.9v12.9h-1.9Z"/><path class="cls-2" d="M847.8,951.4h1.9v12.9h-1.9Z"/><path class="cls-2" d="M852,951.4h1.9v12.9H852Z"/><path class="cls-2" d="M864,955.4v8.9h-1.9v-1.1a3.07,3.07,0,0,1-2.7,1.4A3.26,3.26,0,0,1,856,961v-5.4h1.9v5.2a1.92,1.92,0,0,0,2,2.1c1.3,0,2.2-.7,2.2-2.5v-4.7H864Z"/><path class="cls-2" d="M872.6,961.8c0,1.8-1.5,2.7-3.5,2.7a3.66,3.66,0,0,1-3.6-2.1l1.6-1a2,2,0,0,0,2,1.3c.8,0,1.5-.3,1.5-1,0-1.6-4.8-.7-4.8-3.9,0-1.7,1.4-2.7,3.2-2.7a3.63,3.63,0,0,1,3.3,1.8l-1.6.9a1.67,1.67,0,0,0-1.7-1c-.7,0-1.3.3-1.3.9C867.9,959.5,872.6,958.5,872.6,961.8Z"/><path class="cls-2" d="M876.7,957.3v4.2c0,1.1.7,1.1,2.2,1v1.7c-2.9.4-4.1-.5-4.1-2.8v-4.2h-1.6v-1.8h1.6v-1.9l1.9-.6v2.5h2.2v1.8h-2.2Z"/><path class="cls-2" d="M885.4,955.3v2.1a2.31,2.31,0,0,0-2.7,2.5v4.5h-1.9v-8.9h1.9V957A2.58,2.58,0,0,1,885.4,955.3Z"/><path class="cls-2" d="M895.3,955.4v8.9h-1.9V963a3.75,3.75,0,0,1-3.1,1.5,4.51,4.51,0,0,1-4.4-4.7,4.57,4.57,0,0,1,4.4-4.7,3.75,3.75,0,0,1,3.1,1.5v-1.3h1.9Zm-1.9,4.5a2.8,2.8,0,1,0-2.8,2.8A2.73,2.73,0,0,0,893.4,959.9Z"/><path class="cls-2" d="M900.3,957.3v4.2c0,1.1.7,1.1,2.2,1v1.7c-2.9.4-4.1-.5-4.1-2.8v-4.2h-1.6v-1.8h1.6v-1.9l1.9-.6v2.5h2.2v1.8h-2.2Z"/><path class="cls-2" d="M903.9,952.9a1.2,1.2,0,1,1,1.2,1.2A1.22,1.22,0,0,1,903.9,952.9Zm.3,2.5h1.9v8.9h-1.9Z"/><path class="cls-2" d="M907.8,959.9a4.69,4.69,0,0,1,4.7-4.7,4.63,4.63,0,0,1,4.7,4.7,4.69,4.69,0,0,1-4.7,4.7A4.76,4.76,0,0,1,907.8,959.9Zm7.5,0a2.8,2.8,0,1,0-2.8,2.8A2.73,2.73,0,0,0,915.3,959.9Z"/><path class="cls-2" d="M927,958.9v5.4h-1.9v-5.2a1.92,1.92,0,0,0-2-2.1c-1.3,0-2.2.7-2.2,2.5v4.7H919v-8.9h1.9v1.1a3.07,3.07,0,0,1,2.7-1.4A3.7,3.7,0,0,1,927,958.9Z"/><path class="cls-2" d="M935.5,961.8c0,1.8-1.5,2.7-3.5,2.7a3.66,3.66,0,0,1-3.6-2.1l1.6-1a2,2,0,0,0,2,1.3c.8,0,1.5-.3,1.5-1,0-1.6-4.8-.7-4.8-3.9,0-1.7,1.4-2.7,3.2-2.7a3.63,3.63,0,0,1,3.3,1.8l-1.6.9a1.67,1.67,0,0,0-1.7-1c-.7,0-1.3.3-1.3.9C930.7,959.5,935.5,958.5,935.5,961.8Z"/><path class="cls-2" d="M936.8,963.2a1.3,1.3,0,1,1,1.3,1.3A1.32,1.32,0,0,1,936.8,963.2Z"/><path class="cls-2" d="M940.3,959.9a4.63,4.63,0,0,1,4.7-4.7,4.31,4.31,0,0,1,3.9,2.3l-1.6,1a2.61,2.61,0,0,0-2.3-1.4,2.65,2.65,0,0,0-2.7,2.8,2.71,2.71,0,0,0,2.7,2.8,2.59,2.59,0,0,0,2.4-1.4l1.6.9a4.35,4.35,0,0,1-4,2.3A4.55,4.55,0,0,1,940.3,959.9Z"/><path class="cls-2" d="M949.7,959.9a4.69,4.69,0,0,1,4.7-4.7,4.63,4.63,0,0,1,4.7,4.7,4.69,4.69,0,0,1-4.7,4.7A4.76,4.76,0,0,1,949.7,959.9Zm7.5,0a2.8,2.8,0,1,0-2.8,2.8A2.73,2.73,0,0,0,957.2,959.9Z"/><g class="cls-3"><polygon class="cls-4" points="714.8 399.9 687.9 353.3 714.8 306.8 768.5 306.8 795.4 353.3 768.5 399.9 714.8 399.9"/><polygon class="cls-5" points="621.7 346.2 594.8 299.6 621.7 253.1 675.4 253.1 702.3 299.6 675.4 346.2 621.7 346.2"/><polygon class="cls-4" points="621.7 238.7 594.8 192.2 621.7 145.6 675.4 145.6 702.3 192.2 675.4 238.7 621.7 238.7"/><polygon class="cls-5" points="528.5 292.5 501.7 245.9 528.5 199.3 582.3 199.3 609.1 245.9 582.3 292.5 528.5 292.5"/><polygon class="cls-4" points="435.4 346.2 408.5 299.6 435.4 253.1 489.1 253.1 516 299.6 489.1 346.2 435.4 346.2"/><polygon class="cls-5" points="249.2 346.2 222.3 299.6 249.2 253.1 302.9 253.1 329.7 299.6 302.9 346.2 249.2 346.2"/></g><g class="cls-3"><polygon class="cls-4" points="621.7 453.2 594.8 406.7 621.7 360.1 675.4 360.1 702.3 406.7 675.4 453.2 621.7 453.2"/><polygon class="cls-4" points="528.5 614.4 501.7 567.8 528.5 521.3 582.3 521.3 609.1 567.8 582.3 614.4 528.5 614.4"/></g><path class="cls-6" d="M738.9,737h0a19,19,0,0,1-19-19V569h38V718A19,19,0,0,1,738.9,737Z"/><path class="cls-7" d="M760.9,553h-44a8,8,0,0,0-8,8h0a8,8,0,0,0,8,8h44a8,8,0,0,0,8-8h0A8,8,0,0,0,760.9,553Z"/><path class="cls-8" d="M738.9,737h0a19,19,0,0,1-19-19V569h38V718A19,19,0,0,1,738.9,737Z"/><path class="cls-8" d="M760.9,553h-44a8,8,0,0,0-8,8h0a8,8,0,0,0,8,8h44a8,8,0,0,0,8-8h0A8,8,0,0,0,760.9,553Z"/><path class="cls-9" d="M728.9,664v54a10,10,0,0,0,20,0V664Z"/><path class="cls-8" d="M728.9,664v54a10,10,0,0,0,20,0V664Z"/><circle class="cls-9" cx="719.9" cy="513.3" r="3.8"/><circle class="cls-9" cx="733.8" cy="530.8" r="3.2"/><circle class="cls-9" cx="750.4" cy="481.3" r="7.2"/><circle class="cls-9" cx="746.2" cy="510.9" r="6.2"/><circle class="cls-8" cx="719.9" cy="513.3" r="3.8"/><circle class="cls-8" cx="733.8" cy="530.8" r="3.2"/><circle class="cls-8" cx="731.9" cy="497.5" r="2.1"/><circle class="cls-8" cx="750.4" cy="481.3" r="7.2"/><circle class="cls-8" cx="746.2" cy="510.9" r="6.2"/><circle class="cls-9" cx="735.4" cy="624.4" r="7.2"/><circle class="cls-8" cx="735.4" cy="624.4" r="7.2"/><circle class="cls-9" cx="741.6" cy="649.1" r="3.1"/><circle class="cls-8" cx="741.6" cy="649.1" r="3.1"/><circle class="cls-9" cx="745.7" cy="583" r="4.3"/><circle class="cls-8" cx="745.7" cy="583" r="4.3"/><circle class="cls-10" cx="730.6" cy="576.3" r="1.6"/><circle class="cls-8" cx="730.6" cy="576.3" r="1.6"/><circle class="cls-11" cx="740.1" cy="679.6" r="1.6"/><circle class="cls-11" cx="731.5" cy="696.4" r="2.6"/><circle class="cls-11" cx="743.2" cy="709.4" r="3.8"/><circle class="cls-11" cx="737.6" cy="674.9" r="0.6"/><path class="cls-6" d="M573.4,604a4,4,0,0,1-4-4V405.5a29.5,29.5,0,0,0-59,0v44.2a67.3,67.3,0,1,1-134.6,0V354.1a41,41,0,0,0-82,0V395a4,4,0,0,1-8,0V354.1a49,49,0,0,1,98,0v95.6a59.3,59.3,0,1,0,118.6,0V405.5a37.5,37.5,0,0,1,75,0V600A4,4,0,0,1,573.4,604Z"/><path class="cls-8" d="M573.4,604a4,4,0,0,1-4-4V405.5a29.5,29.5,0,0,0-59,0v44.2a67.3,67.3,0,1,1-134.6,0V354.1a41,41,0,0,0-82,0V395a4,4,0,0,1-8,0V354.1a49,49,0,0,1,98,0v95.6a59.3,59.3,0,1,0,118.6,0V405.5a37.5,37.5,0,0,1,75,0V600A4,4,0,0,1,573.4,604Z"/><path class="cls-6" d="M435.7,770h-20V200a10,10,0,0,1,10-10h0a10,10,0,0,1,10,10Z"/><path class="cls-8" d="M435.7,770h-20V200a10,10,0,0,1,10-10h0a10,10,0,0,1,10,10Z"/><path class="cls-12" d="M470.6,445.6H442.8v-10h27.8a5,5,0,0,1,5,5h0A5.08,5.08,0,0,1,470.6,445.6Z"/><path class="cls-8" d="M470.6,445.6H442.8v-10h27.8a5,5,0,0,1,5,5h0A5.08,5.08,0,0,1,470.6,445.6Z"/><rect class="cls-13" x="500.1" y="753" width="320" height="17"/><rect class="cls-8" x="500.1" y="753" width="320" height="17"/><rect class="cls-14" x="516.3" y="603" width="10" height="150"/><rect class="cls-8" x="516.3" y="603" width="10" height="150"/><rect class="cls-14" x="794" y="603" width="10" height="150"/><rect class="cls-8" x="794" y="603" width="10" height="150"/><path class="cls-15" d="M285.2,659.1s-.4-9.3-2-13.7c4.7,2.1,9.1,11.7,9.1,11.7Z"/><rect class="cls-12" x="352.1" y="748" width="123.5" height="22"/><rect class="cls-8" x="352.1" y="748" width="123.5" height="22"/><path class="cls-6" d="M321.9,722.9l-21.3-3.6V703.2h8.5a6.39,6.39,0,0,0,6.5-6,6.21,6.21,0,0,0-6.2-6.4H270.5a6.39,6.39,0,0,0-6.5,6,6.21,6.21,0,0,0,6.2,6.4H279v16.1l-21.3,3.6a9,9,0,0,0-7.3,10.3l5.2,28.8a9.78,9.78,0,0,0,9.7,8.1h49.2a9.94,9.94,0,0,0,9.7-8.1l5.2-28.8A9.17,9.17,0,0,0,321.9,722.9Z"/><path class="cls-8" d="M321.9,722.9l-21.3-3.6V703.2h8.5a6.39,6.39,0,0,0,6.5-6,6.21,6.21,0,0,0-6.2-6.4H270.5a6.39,6.39,0,0,0-6.5,6,6.21,6.21,0,0,0,6.2,6.4H279v16.1l-21.3,3.6a9,9,0,0,0-7.3,10.3l5.2,28.8a9.78,9.78,0,0,0,9.7,8.1h49.2a9.94,9.94,0,0,0,9.7-8.1l5.2-28.8A9.17,9.17,0,0,0,321.9,722.9Z"/><path class="cls-16" d="M305.6,665c-4.1-13.2-12.3-20.4-15.8-24-1.9,15-17.6,19.7-16,33.8,1.3,11.5,12.3,15,17.7,14.1C302.8,687,308.8,675.2,305.6,665Z"/><path class="cls-15" d="M305.6,665c-4.1-13.2-12.3-20.4-15.8-24-1.9,15-17.6,19.7-16,33.8,1.3,11.5,12.3,15,17.7,14.1C302.8,687,308.8,675.2,305.6,665Z"/><path class="cls-17" d="M296.5,675.2a25,25,0,0,0-6.8-12.6c-1,7.9-9.2,10.3-8.4,17.7a8.36,8.36,0,0,0,9.3,7.4C296.5,686.7,297.4,679.3,296.5,675.2Z"/><path class="cls-15" d="M297.4,674.1c-1.6-6.7-5.9-9.7-7.7-11.6-1,7.9-9.2,10.3-8.4,17.7a8.36,8.36,0,0,0,9.3,7.4C296.5,686.7,298.4,678.3,297.4,674.1Z"/><path class="cls-18" d="M261.4,738.3l3.4,18.8a3.44,3.44,0,0,0,3.4,2.8h43.1a3.44,3.44,0,0,0,3.4-2.8l3.4-18.8Z"/><path class="cls-8" d="M261.4,738.3l3.4,18.8a3.44,3.44,0,0,0,3.4,2.8h43.1a3.44,3.44,0,0,0,3.4-2.8l3.4-18.8Z"/><line class="cls-8" x1="289.8" y1="690.8" x2="289.8" y2="751"/><path class="cls-6" d="M306.8,465.1v-58h-34v58a7.33,7.33,0,0,1-5,7,70,70,0,0,0-48,68.5c1,37,31.3,67.1,68.3,68a70,70,0,0,0,23.8-136.4A7.7,7.7,0,0,1,306.8,465.1Z"/><path class="cls-8" d="M306.8,465.1v-58h-34v58a7.33,7.33,0,0,1-5,7,70,70,0,0,0-48,68.5c1,37,31.3,67.1,68.3,68a70,70,0,0,0,23.8-136.4A7.7,7.7,0,0,1,306.8,465.1Z"/><path class="cls-19" d="M347.3,521.5h0a13.46,13.46,0,0,0-21.5-7.7,9.83,9.83,0,0,0-5.6-1.8,9.13,9.13,0,0,0-5.4,1.7v-.8a9.5,9.5,0,0,0-9.5-9.5,10,10,0,0,0-4.2,1,18.5,18.5,0,0,0-33.8,10.4,33.24,33.24,0,0,0,1.3,6.8v-.3c0-6.1-6.3-11.6-12.3-11.6a11,11,0,0,0-11,11v.8H232.2a60.78,60.78,0,0,0-2.4,18.7,60.18,60.18,0,0,0,58.5,58.2h1.5a59.79,59.79,0,0,0,57.5-76.9Z"/><path class="cls-8" d="M347.3,521.5h0a13.46,13.46,0,0,0-21.5-7.7,9.83,9.83,0,0,0-5.6-1.8,9.13,9.13,0,0,0-5.4,1.7v-.8a9.5,9.5,0,0,0-9.5-9.5,10,10,0,0,0-4.2,1,18.5,18.5,0,0,0-33.8,10.4,33.24,33.24,0,0,0,1.3,6.8v-.3c0-6.1-6.3-11.6-12.3-11.6a11,11,0,0,0-11,11v.8H232.2a60.78,60.78,0,0,0-2.4,18.7,60.18,60.18,0,0,0,58.5,58.2h1.5a59.79,59.79,0,0,0,57.5-76.9Z"/><path class="cls-8" d="M247.2,526.8a11,11,0,0,1,9.1-17.2c6.1,0,12.3,3,12.3,11"/><path class="cls-8" d="M267.4,517.2a21.05,21.05,0,0,1-.2-2.5A18.5,18.5,0,0,1,301,504.3"/><path class="cls-8" d="M296.2,509.7a9.47,9.47,0,0,1,4.8-5.4"/><path class="cls-8" d="M301.1,504.3a10,10,0,0,1,4.2-1,9.5,9.5,0,0,1,9.5,9.5"/><path class="cls-8" d="M316.2,512.8a9,9,0,0,1,4-.9,9.83,9.83,0,0,1,5.6,1.8"/><path class="cls-8" d="M320.5,524.5a13.41,13.41,0,0,1,5.2-10.7"/><path class="cls-8" d="M325.8,513.8a13.46,13.46,0,0,1,21.5,7.7"/><rect class="cls-20" x="280.4" y="380" width="18.7" height="35.5"/><rect class="cls-8" x="280.4" y="380" width="18.7" height="35.5"/><path class="cls-7" d="M310.8,407h-42a8,8,0,0,1-8-8h0a8,8,0,0,1,8-8h42a8,8,0,0,1,8,8h0A8,8,0,0,1,310.8,407Z"/><path class="cls-8" d="M310.8,407h-42a8,8,0,0,1-8-8h0a8,8,0,0,1,8-8h42a8,8,0,0,1,8,8h0A8,8,0,0,1,310.8,407Z"/><circle class="cls-19" cx="289.8" cy="470.8" r="7.5"/><circle class="cls-15" cx="289.8" cy="470.8" r="7.5"/><circle class="cls-19" cx="313.3" cy="496" r="4"/><circle class="cls-8" cx="313.3" cy="496" r="4"/><circle class="cls-8" cx="272.8" cy="487.6" r="1.7"/><circle class="cls-11" cx="272.5" cy="550.3" r="4"/><circle class="cls-11" cx="293.7" cy="570.6" r="6.4"/><circle class="cls-11" cx="316.2" cy="552.7" r="2.3"/><circle class="cls-11" cx="296.2" cy="534.7" r="1.6"/><rect class="cls-12" x="408.7" y="423.6" width="34" height="34"/><rect class="cls-8" x="408.7" y="423.6" width="34" height="34"/><path class="cls-6" d="M589.5,654a4,4,0,0,1-4-4V520.3a39.3,39.3,0,0,1,78.6,0v90.2a4,4,0,0,1-8,0V520.3a31.3,31.3,0,0,0-62.6,0V650A4,4,0,0,1,589.5,654Z"/><path class="cls-8" d="M589.5,654a4,4,0,0,1-4-4V520.3a39.3,39.3,0,0,1,78.6,0v90.2a4,4,0,0,1-8,0V520.3a31.3,31.3,0,0,0-62.6,0V650A4,4,0,0,1,589.5,654Z"/><path class="cls-6" d="M660.1,737h0a19,19,0,0,1-19-19V569h38V718A19,19,0,0,1,660.1,737Z"/><path class="cls-8" d="M660.1,737h0a19,19,0,0,1-19-19V569h38V718A19,19,0,0,1,660.1,737Z"/><rect class="cls-20" x="644.4" y="533.3" width="31.5" height="35.7"/><rect class="cls-8" x="644.4" y="533.3" width="31.5" height="35.7"/><path class="cls-7" d="M682.1,553h-44a8,8,0,0,0-8,8h0a8,8,0,0,0,8,8h44a8,8,0,0,0,8-8h0A8,8,0,0,0,682.1,553Z"/><path class="cls-8" d="M682.1,553h-44a8,8,0,0,0-8,8h0a8,8,0,0,0,8,8h44a8,8,0,0,0,8-8h0A8,8,0,0,0,682.1,553Z"/><path class="cls-21" d="M650.1,687.2V718a10,10,0,0,0,20,0V687.2Z"/><path class="cls-8" d="M650.1,687.2V718a10,10,0,0,0,20,0V687.2Z"/><circle class="cls-21" cx="656.8" cy="661" r="3"/><circle class="cls-8" cx="656.8" cy="661" r="3"/><circle class="cls-21" cx="661.8" cy="630.8" r="5"/><circle class="cls-8" cx="661.8" cy="630.8" r="5"/><circle class="cls-21" cx="662.4" cy="676" r="2"/><circle class="cls-8" cx="662.4" cy="676" r="2"/><circle class="cls-11" cx="658.5" cy="709.4" r="1.8"/><circle class="cls-11" cx="659.5" cy="699.2" r="2.9"/><rect class="cls-20" x="565.6" y="533.3" width="31.5" height="35.7"/><rect class="cls-8" x="565.6" y="533.3" width="31.5" height="35.7"/><path class="cls-7" d="M603.4,553h-44a8,8,0,0,0-8,8h0a8,8,0,0,0,8,8h44a8,8,0,0,0,8-8h0A8,8,0,0,0,603.4,553Z"/><path class="cls-8" d="M603.4,553h-44a8,8,0,0,0-8,8h0a8,8,0,0,0,8,8h44a8,8,0,0,0,8-8h0A8,8,0,0,0,603.4,553Z"/><path class="cls-6" d="M581.4,737h0a19,19,0,0,1-19-19V569h38V718A19,19,0,0,1,581.4,737Z"/><path class="cls-8" d="M581.4,737h0a19,19,0,0,1-19-19V569h38V718A19,19,0,0,1,581.4,737Z"/><path class="cls-22" d="M571.4,638.3V718a10,10,0,0,0,20,0V638.3Z"/><path class="cls-8" d="M571.4,638.3V718a10,10,0,0,0,20,0V638.3Z"/><circle class="cls-11" cx="578.5" cy="674" r="2.9"/><circle class="cls-11" cx="577.4" cy="622.3" r="1.9"/><circle class="cls-11" cx="584.3" cy="650.1" r="1.2"/><circle class="cls-11" cx="584.3" cy="693.5" r="1.2"/><rect class="cls-13" x="500.1" y="595" width="320" height="8"/><rect class="cls-8" x="500.1" y="595" width="320" height="8"/><rect class="cls-20" x="371.1" y="362.4" width="17.2" height="88.2"/><rect class="cls-8" x="371.1" y="362.4" width="17.2" height="88.2"/><rect class="cls-12" x="325.5" y="435.6" width="83.2" height="10"/><rect class="cls-8" x="325.5" y="435.6" width="83.2" height="10"/><path class="cls-12" d="M259.8,453.6h60a13,13,0,0,0,13-13h0a13,13,0,0,0-13-13h-60a13,13,0,0,0-13,13h0A13,13,0,0,0,259.8,453.6Z"/><path class="cls-8" d="M259.8,453.6h60a13,13,0,0,0,13-13h0a13,13,0,0,0-13-13h-60a13,13,0,0,0-13,13h0A13,13,0,0,0,259.8,453.6Z"/><line class="cls-23" x1="133.8" y1="770" x2="883.8" y2="770"/><rect class="cls-1" x="31" y="911" width="944" height="72"/></svg>