<svg id="Layer_1" data-name="Layer 1" xmlns="http://www.w3.org/2000/svg" xmlns:xlink="http://www.w3.org/1999/xlink" viewBox="0 0 1000 1000"><defs><style>.cls-1,.cls-10,.cls-29,.cls-30,.cls-31,.cls-35,.cls-36{fill:none;}.cls-2{fill:#383333;}.cls-3{fill:#eef2f4;}.cls-4{fill:#2b2727;}.cls-11,.cls-20,.cls-5{fill:#72361f;}.cls-6{fill:#5b3318;}.cls-7{fill:#783f21;}.cls-8{opacity:0.4;}.cls-9{clip-path:url(#clip-path);}.cls-10,.cls-29,.cls-30,.cls-31{stroke:#300f0f;}.cls-10,.cls-29,.cls-30,.cls-31,.cls-35,.cls-36{stroke-linecap:round;stroke-linejoin:round;}.cls-10,.cls-35{stroke-width:6px;}.cls-11,.cls-20{isolation:isolate;}.cls-11{opacity:0.44;}.cls-12{fill:#c9c9c9;}.cls-13{fill:#b5b5b5;}.cls-14{fill:#f45145;}.cls-15{fill:#db493e;}.cls-16{fill:#aa3930;}.cls-17{fill:#ababab;}.cls-18{fill:#3b69a9;}.cls-19{fill:#355e98;}.cls-20{opacity:0.23;}.cls-21{fill:#e1e1e1;}.cls-22{fill:#fdc457;}.cls-23{fill:#f2b24c;}.cls-24{fill:#323b40;}.cls-25{fill:#2d363a;}.cls-26{fill:#7d4025;}.cls-27{clip-path:url(#clip-path-2);}.cls-28{opacity:0.08;}.cls-29{stroke-width:5.84px;}.cls-30{stroke-width:7.81px;}.cls-31{stroke-width:5.35px;}.cls-32{fill:#d98c40;}.cls-33{fill:#c87634;}.cls-34{clip-path:url(#clip-path-3);}.cls-35,.cls-36{stroke:#cf8139;}.cls-36{stroke-width:4.91px;}</style><clipPath id="clip-path"><rect class="cls-1" x="311.3" y="349.7" width="345.1" height="24"/></clipPath><clipPath id="clip-path-2"><path class="cls-1" d="M738.3,648.9H388.1v-176H752.2v162A13.89,13.89,0,0,1,738.3,648.9Z"/></clipPath><clipPath id="clip-path-3"><path class="cls-1" d="M347.3,412.9V361a36,36,0,0,0-36-36h0a36,36,0,0,0-36,36v51.8a60,60,0,0,1-60,60h0v152a23.94,23.94,0,0,0,24,24h144a23.94,23.94,0,0,0,24-24v-152h0A59.83,59.83,0,0,1,347.3,412.9Z"/></clipPath></defs><rect class="cls-2" width="1000" height="1000"/><path class="cls-3" d="M63.2,959.2c0,2.5-1.2,3.7-2.6,3.7a1.93,1.93,0,0,1-2.1-1.4,2.2,2.2,0,0,1-1.8.8,2.81,2.81,0,0,1,0-5.6,2.18,2.18,0,0,1,1.6.7v-.5h1.6v3.9c0,.8.3,1.4,1,1.4.9,0,1.7-.9,1.7-3a5.23,5.23,0,0,0-5.4-5.3,5.55,5.55,0,0,0-5.6,5.7,5.62,5.62,0,0,0,5.9,5.7,11.93,11.93,0,0,0,2.9-.4v.6a8.12,8.12,0,0,1-2.9.4,6.2,6.2,0,1,1-.3-12.4A5.59,5.59,0,0,1,63.2,959.2Zm-4.9.3a1.35,1.35,0,0,0-1.3-1.4,1.24,1.24,0,0,0-1.3,1.4,1.26,1.26,0,0,0,1.3,1.3C57.8,960.9,58.3,960.3,58.3,959.5Z"/><path class="cls-3" d="M69.4,955.1v2a2.24,2.24,0,0,0-2.6,2.4v4.3H64.9v-8.6h1.9v1.4A2.63,2.63,0,0,1,69.4,955.1Z"/><path class="cls-3" d="M74.6,962.3a2.64,2.64,0,0,0,2.2-1.1l1.5.9a4.35,4.35,0,0,1-3.8,1.9,4.41,4.41,0,0,1-4.7-4.5,4.36,4.36,0,0,1,4.5-4.5,4.31,4.31,0,0,1,4.3,4.5,2.2,2.2,0,0,1-.1.8H71.7A2.83,2.83,0,0,0,74.6,962.3Zm2.3-3.5a2.37,2.37,0,0,0-2.5-2.1,2.51,2.51,0,0,0-2.6,2.1Z"/><path class="cls-3" d="M88.9,955.2v8.6H87v-1.2a3.69,3.69,0,0,1-3,1.5,4.44,4.44,0,0,1-4.3-4.5,4.32,4.32,0,0,1,4.3-4.5,3.61,3.61,0,0,1,3,1.4v-1.2l1.9-.1Zm-1.8,4.3a2.7,2.7,0,1,0-2.7,2.7A2.57,2.57,0,0,0,87.1,959.5Z"/><path class="cls-3" d="M91.1,951.3H93v12.5H91.1Z"/><path class="cls-3" d="M102.9,955.2l-3.3,8.6H97.5l-3.3-8.6h2l2.4,6.5,2.4-6.5Z"/><path class="cls-3" d="M104.2,955.2h1.9v8.9c0,2.4-1.2,3.5-3.5,3.3v-1.8c1.1.1,1.7-.3,1.7-1.5l-.1-8.9Zm-.2-2.4a1.2,1.2,0,0,1,2.4,0,1.2,1.2,0,1,1-2.4,0Z"/><path class="cls-3" d="M116,955.2l-3.3,8.8c-.8,2.2-2.2,3.3-4.2,3.2v-1.7a2.08,2.08,0,0,0,2.3-1.7l.1-.2-3.6-8.4h2l2.6,6.2,2.2-6.2Z"/><path class="cls-3" d="M211.9,938.7a3.63,3.63,0,0,1-3.6,3.8h-3v-7.6h3A3.63,3.63,0,0,1,211.9,938.7Zm-1,0a2.72,2.72,0,0,0-2.6-2.9h-2v5.7h2A2.58,2.58,0,0,0,210.9,938.7Z"/><path class="cls-3" d="M219.5,940.8h-3.4l-.6,1.7h-1.1l2.8-7.6h1.1l2.8,7.6H220Zm-.3-.9-1.4-3.8-1.4,3.8Z"/><path class="cls-3" d="M226.4,939.4v3.1h-1v-3.1l-2.7-4.5h1.1l2.1,3.6,2.1-3.6h1.1Z"/><path class="cls-3" d="M237,938.7c0-2.4,1.1-4,2.9-4s2.9,1.6,2.9,4-1,4-2.9,4S237,941,237,938.7Zm4.9,0c0-1.9-.7-3-1.9-3s-1.9,1.1-1.9,3,.7,3,1.9,3S241.9,940.6,241.9,938.7Z"/><path class="cls-3" d="M250.7,938.8h0l-2.5,3.7h-1.1l1.8-2.7h-.4a2.47,2.47,0,0,1-2.6-2.6,2.52,2.52,0,0,1,2.6-2.6,2.47,2.47,0,0,1,2.6,2.6A1.72,1.72,0,0,1,250.7,938.8Zm-2.1.1a1.47,1.47,0,0,0,1.6-1.6,1.6,1.6,0,0,0-3.2,0A1.47,1.47,0,0,0,248.6,938.9Z"/><path class="cls-3" d="M58.9,938.7a3.63,3.63,0,0,1-3.6,3.8h-3v-7.6h3A3.63,3.63,0,0,1,58.9,938.7Zm-1,0a2.72,2.72,0,0,0-2.6-2.9h-2v5.7h2A2.58,2.58,0,0,0,57.9,938.7Z"/><path class="cls-3" d="M67,941.6v1H62.4V935h4.5v1H63.4v2.3h3.2v.9H63.4v2.4Z"/><path class="cls-3" d="M70,940.8l.9-.5a2,2,0,0,0,2,1.4c1.1,0,1.6-.5,1.6-1.2s-.7-1-1.8-1.4-2.4-.8-2.4-2.2a2.21,2.21,0,0,1,2.4-2.2,2.66,2.66,0,0,1,2.6,1.7l-.8.5a1.74,1.74,0,0,0-1.7-1.2c-.8,0-1.4.4-1.4,1.1s.5,1,1.6,1.3c1.3.4,2.6.8,2.6,2.3a2.33,2.33,0,0,1-2.6,2.2A2.85,2.85,0,0,1,70,940.8Z"/><path class="cls-3" d="M80,934.9v7.6H79v-7.6Z"/><path class="cls-3" d="M91.3,939.2a3.47,3.47,0,0,1-3.7,3.5,3.89,3.89,0,0,1-4-4,4,4,0,0,1,7.3-2.2l-.9.5a2.77,2.77,0,0,0-2.4-1.4,3,3,0,0,0,0,6,2.5,2.5,0,0,0,2.7-2H87.5v-.9h3.8Z"/><path class="cls-3" d="M100.6,934.9v7.6h-.8l-3.9-5.7v5.7h-1v-7.6h.8l3.9,5.7v-5.7Z"/><path class="cls-3" d="M109.1,941.6v1h-4.6V935H109v1h-3.5v2.3h3.2v.9h-3.2v2.4Z"/><path class="cls-3" d="M119.2,938.7a3.63,3.63,0,0,1-3.6,3.8h-3v-7.6h3A3.7,3.7,0,0,1,119.2,938.7Zm-1,0a2.72,2.72,0,0,0-2.6-2.9h-2v5.7h2A2.58,2.58,0,0,0,118.2,938.7Z"/><path class="cls-3" d="M133.2,940.4a2.22,2.22,0,0,1-2.2,2.2h-3.3V935h3a2.05,2.05,0,0,1,2.1,2.1,1.94,1.94,0,0,1-.8,1.6A1.66,1.66,0,0,1,133.2,940.4Zm-4.5-4.6v2.3h2a1.13,1.13,0,0,0,1.1-1.2,1.2,1.2,0,0,0-1.1-1.2h-2Zm3.5,4.5a1.16,1.16,0,0,0-1.2-1.2h-2.3v2.5H131A1.24,1.24,0,0,0,132.2,940.3Z"/><path class="cls-3" d="M139.4,939.4v3.1h-1v-3.1l-2.7-4.5h1.1l2.1,3.6,2.1-3.6h1.1Z"/><path class="cls-3" d="M213.5,953.9H210v10.4h-2V953.9h-3.5V952h9Z"/><path class="cls-3" d="M212.8,959.9a4.69,4.69,0,0,1,4.7-4.7,4.63,4.63,0,0,1,4.7,4.7,4.69,4.69,0,0,1-4.7,4.7A4.76,4.76,0,0,1,212.8,959.9Zm7.4,0a2.8,2.8,0,1,0-2.8,2.8A2.73,2.73,0,0,0,220.2,959.9Z"/><path class="cls-3" d="M223.4,959.9a4.69,4.69,0,0,1,4.7-4.7,4.63,4.63,0,0,1,4.7,4.7,4.69,4.69,0,0,1-4.7,4.7A4.76,4.76,0,0,1,223.4,959.9Zm7.4,0a2.8,2.8,0,1,0-2.8,2.8A2.73,2.73,0,0,0,230.8,959.9Z"/><path class="cls-3" d="M234.5,951.4h1.9v12.9h-1.9Z"/><path class="cls-3" d="M252.2,960.8a3.53,3.53,0,0,1-3.7,3.5h-5.3V951.9h4.9a3.48,3.48,0,0,1,3.6,3.4,2.86,2.86,0,0,1-1.3,2.5A3.26,3.26,0,0,1,252.2,960.8Zm-7-7v3.3h2.9a1.6,1.6,0,0,0,0-3.2h-2.9Zm4.9,6.8a1.63,1.63,0,0,0-1.7-1.7h-3.3v3.5h3.3A1.71,1.71,0,0,0,250.1,960.6Z"/><path class="cls-3" d="M253.4,959.9a4.69,4.69,0,0,1,4.7-4.7,4.63,4.63,0,0,1,4.7,4.7,4.69,4.69,0,0,1-4.7,4.7A4.76,4.76,0,0,1,253.4,959.9Zm7.5,0a2.8,2.8,0,1,0-2.8,2.8A2.73,2.73,0,0,0,260.9,959.9Z"/><path class="cls-3" d="M269.6,964.3l-2.2-3-2.2,3H263l3.3-4.5-3.2-4.3h2.2l2,2.8,2-2.8h2.2l-3.2,4.3,3.3,4.5Z"/><path class="cls-3" d="M841.3,942.5h-1v-7.6h1.1l2.4,4,2.4-4h1.1v7.6h-1v-6l-2.5,4.2h-.1l-2.5-4.1.1,5.9Zm17.5-3.8a4,4,0,1,1-4-4A3.95,3.95,0,0,1,858.8,938.7Zm-1,0a2.93,2.93,0,0,0-2.9-3,2.86,2.86,0,0,0-2.9,3,2.93,2.93,0,0,0,2.9,3A2.86,2.86,0,0,0,857.8,938.7Zm8.4.8,1.8,3.1h-1.1l-1.7-2.9h-1.8v2.9h-1V935h3a2.43,2.43,0,0,1,2.4,2.4A2.6,2.6,0,0,1,866.2,939.5Zm-.8-.8a1.4,1.4,0,1,0,0-2.8h-2v2.8Zm10.5,2.9h-3.5v-2.4h3.2v-.9h-3.2V936h3.5v-1h-4.5v7.6H876l-.1-1Zm-31.7,20.6-2.5-6.7h-2.1l3.5,8.9h2.2l3.5-8.9h-2.1Zm5.8,2.1h1.9v-8.9H850Zm1-12.6a1.2,1.2,0,1,0,0,2.4,1.2,1.2,0,1,0,0-2.4Zm4.2,0a1.2,1.2,0,1,0,0,2.4,1.22,1.22,0,0,0,1.2-1.2A1.1,1.1,0,0,0,855.2,951.7Zm-.9,13c0,1.2-.5,1.7-1.7,1.6v1.8c2.4.2,3.6-1,3.6-3.4v-9.2h-1.9v9.2Zm11.1-9.3h1.9v8.9h-1.9V963a3.75,3.75,0,0,1-3.1,1.5,4.51,4.51,0,0,1-4.4-4.7,4.57,4.57,0,0,1,4.4-4.7,3.75,3.75,0,0,1,3.1,1.5Zm0,4.5a2.8,2.8,0,1,0-2.8,2.8A2.73,2.73,0,0,0,865.4,959.9Zm7.9,2-2.6-6.4h-2.1l3.8,8.7-.1.2a2.12,2.12,0,0,1-2.4,1.7v1.8c2,.1,3.5-1,4.3-3.3l3.4-9.1h-2Zm9,.3-2.5-6.7h-2.1l3.5,8.9h2.2l3.5-8.9h-2.1Zm14.1-2.3a2.2,2.2,0,0,1-.1.8h-7a2.63,2.63,0,0,0,2.8,2.1,2.7,2.7,0,0,0,2.3-1.1l1.6.9a4.41,4.41,0,0,1-3.9,1.9,4.7,4.7,0,1,1-.1-9.4A4.66,4.66,0,0,1,896.4,959.9Zm-2-.8a2.53,2.53,0,0,0-2.5-2.2,2.61,2.61,0,0,0-2.7,2.2Zm5.5-2.2v-1.5H898v8.9h1.9v-4.5a2.34,2.34,0,0,1,2.7-2.5v-2.1A3.17,3.17,0,0,0,899.9,956.9Zm13.9-1.7a3.07,3.07,0,0,0-2.7,1.4,2.74,2.74,0,0,0-2.5-1.4,2.66,2.66,0,0,0-2.5,1.3v-1.1h-1.9v8.9h1.9v-5c0-1.6.9-2.3,2-2.3a1.69,1.69,0,0,1,1.7,1.9v5.4h1.9v-5c0-1.6.8-2.3,1.9-2.3a1.69,1.69,0,0,1,1.7,1.9v5.4h1.9v-5.5C917.1,956.6,915.8,955.2,913.8,955.2Zm12.4.2h1.9v8.9h-1.9V963a3.75,3.75,0,0,1-3.1,1.5,4.51,4.51,0,0,1-4.4-4.7,4.57,4.57,0,0,1,4.4-4.7,3.75,3.75,0,0,1,3.1,1.5Zm0,4.5a2.8,2.8,0,1,0-2.8,2.8A2.73,2.73,0,0,0,926.2,959.9Zm5.3,2a1.3,1.3,0,1,0,1.3,1.3A1.26,1.26,0,0,0,931.5,961.9Zm6.8.7a2.65,2.65,0,0,1-2.7-2.8,2.71,2.71,0,0,1,2.7-2.8,2.34,2.34,0,0,1,2.3,1.4l1.6-1a4.31,4.31,0,0,0-3.9-2.3,4.57,4.57,0,0,0-4.7,4.7,4.63,4.63,0,0,0,4.7,4.7,4.58,4.58,0,0,0,4-2.3l-1.6-.9A2.81,2.81,0,0,1,938.3,962.6Zm14.1-2.7a4.69,4.69,0,0,1-4.7,4.7,4.63,4.63,0,0,1-4.7-4.7,4.69,4.69,0,0,1,4.7-4.7A4.63,4.63,0,0,1,952.4,959.9Zm-1.9,0a2.8,2.8,0,1,0-2.8,2.8A2.73,2.73,0,0,0,950.5,959.9Z"/><path class="cls-4" d="M785.7,676H191.6a24.16,24.16,0,0,1-24.2-24.2h0a24.16,24.16,0,0,1,24.2-24.2H785.7a24.16,24.16,0,0,1,24.2,24.2h0A24.22,24.22,0,0,1,785.7,676Z"/><path class="cls-5" d="M706.3,412.9V361a36,36,0,0,0-36-36h0a36,36,0,0,0-36,36v51.8a60,60,0,0,1-60,60h0v152a23.94,23.94,0,0,0,24,24h144a23.94,23.94,0,0,0,24-24v-152h0A59.83,59.83,0,0,1,706.3,412.9Z"/><rect class="cls-5" x="656.3" y="325" width="16.4" height="8.3"/><path class="cls-6" d="M692.3,412.9V361a36,36,0,0,0-36-36h0a36,36,0,0,0-36,36v51.8a60,60,0,0,1-60,60h0v152a23.94,23.94,0,0,0,24,24h144a23.94,23.94,0,0,0,24-24v-152h0A59.83,59.83,0,0,1,692.3,412.9Z"/><path class="cls-6" d="M752.3,472.9h0A60.11,60.11,0,0,1,699.8,442l-55.5,22.4L616.2,480l66.6,10.4,69.5-13.8Z"/><circle class="cls-7" cx="656.3" cy="361.7" r="12"/><rect class="cls-5" x="311.3" y="325" width="14" height="3.7"/><rect class="cls-7" x="311.3" y="349.7" width="345.1" height="24"/><g class="cls-8"><g class="cls-9"><path class="cls-10" d="M331.5,316.7c1.2,8.3,8.1,53.2,41.3,68.7,4,1.9,20.1,9.4,28.7,2.7,11.3-8.9-3.1-33.2,9.3-48,8-9.6,23.7-11,34-9.3,35.6,5.9,36.3,54.3,70.7,62,21.8,4.9,44.8-9.3,56.7-16.7,24.8-15.3,29.2-31.7,44-32,9.1-.2,22.5,5.6,39.3,35.3"/><path class="cls-10" d="M358.8,336c-3.8,5.8-4.4,13-1.3,18.7a17.29,17.29,0,0,0,10,8c1.8.6,8.3,2.3,14-1.3s8.4-11.1,6.7-18.7"/><path class="cls-10" d="M422.1,376c-.5-1.4-4.9-14.1,2.7-25.3.4-.7,6.9-10.1,15.3-10.7,11.9-.9,26.6,15.9,31.3,43.3"/><path class="cls-10" d="M438.1,358c-3.4,1.7-4,8.6-2,13.3.4.9,2.9,6.6,7.3,6.7s8.2-5.3,8-10C451.2,361.2,442.3,356,438.1,358Z"/><path class="cls-10" d="M495.5,335.4a35.28,35.28,0,0,0,5.3,16,36.23,36.23,0,0,0,17.3,14c2.9,1.2,12.1,4.8,22.7,2,7-1.8,9.8-5.3,27.3-21.3,6.1-5.6,11.1-10,14-12.7"/><path class="cls-10" d="M599.5,380c.9-8.2,6.3-14.8,13.3-16.7.7-.2,9.9-2.5,16,4a16.22,16.22,0,0,1,4,12"/><path class="cls-10" d="M527.5,338c0,9.1,4.4,15.8,9.3,16.7,4.2.7,8.2-3,10-4.7a22.47,22.47,0,0,0,6.7-12.7"/></g></g><rect class="cls-11" x="443.2" y="349.7" width="15.9" height="23.8"/><rect class="cls-11" x="356.4" y="349.7" width="25.1" height="23.8"/><rect class="cls-11" x="552.3" y="349.7" width="22" height="23.8"/><polygon class="cls-12" points="433.5 341.2 433.4 341.2 424.7 317.8 424.7 317.8 424.7 317.8 424.7 317.8 424.7 317.8 431.8 285.2 450.7 285.2 457.9 317.8 457.9 317.8 457.9 317.8 457.9 317.8 457.9 317.8 449.1 341.2 449.1 341.2 449.1 411.5 433.5 411.5 433.5 341.2"/><polygon class="cls-13" points="444.1 341.2 452.9 317.8 452.9 317.8 452.9 317.8 452.9 317.8 445.7 285.2 450.7 285.2 457.9 317.8 457.9 317.8 457.9 317.8 457.9 317.8 449.1 341.2 449.1 341.2 449.1 411.5 444.1 411.5 444.1 341.2"/><path class="cls-14" d="M417.2,556.4V442.3a13.29,13.29,0,0,1,8.1-12.3,2.87,2.87,0,0,0,.6-4.9l-6.7-5.6a7.79,7.79,0,0,1-2.8-6v-5.3a3.59,3.59,0,0,1,3.6-3.6h42.4a3.59,3.59,0,0,1,3.6,3.6v5.3a7.79,7.79,0,0,1-2.8,6l-6.7,5.6a3,3,0,0,0,.6,4.9,13.4,13.4,0,0,1,8.1,12.3V556.4a13.4,13.4,0,0,1-13.4,13.4H430.4A13.3,13.3,0,0,1,417.2,556.4Z"/><path class="cls-15" d="M457.4,556.4V442.3a13.29,13.29,0,0,0-8.1-12.3,2.87,2.87,0,0,1-.6-4.9l6.7-5.6a7.79,7.79,0,0,0,2.8-6v-5.3a3.59,3.59,0,0,0-3.6-3.6h8a3.59,3.59,0,0,1,3.6,3.6v5.3a7.79,7.79,0,0,1-2.8,6l-6.7,5.6a3,3,0,0,0,.6,4.9,13.4,13.4,0,0,1,8.1,12.3V556.4A13.4,13.4,0,0,1,452,569.8h-8A13.34,13.34,0,0,0,457.4,556.4Z"/><path class="cls-16" d="M437,550.3V455a5,5,0,0,0-5-5h0a5,5,0,0,0-5,5v95.3a5,5,0,0,0,5,5h0A5,5,0,0,0,437,550.3Z"/><path class="cls-16" d="M455.5,550.3V455a5,5,0,0,0-5-5h0a5,5,0,0,0-5,5v95.3a5,5,0,0,0,5,5h0A5,5,0,0,0,455.5,550.3Z"/><path class="cls-12" d="M583.4,284.7c-1.6,1.8-4,4.4-6,6.6a6.14,6.14,0,0,1-8.2.8c-5.7-4.1-15.1-11.2-27-12.1-17.2-1.4-28.8,4.7-39.3,12.9-15.5,12.2-25.3,26.8-30.5,35.8,3.9,3.4,5.6,4.4,8.6,6.9,4.9-5.1,14.5-15.8,28.1-19.2a18.11,18.11,0,0,1,10.2,0,15.45,15.45,0,0,1,6.8,4.4c4.3,4.8,4,10.7,4,12v38.8h25.5V334.5c-.5-6.5,2.3-12.5,7.2-15,.4-.2,5.2-2.6,9.9-.8,3.4,1.3,7.6,5.2,10.8,8.3a7,7,0,0,0,2.4,1.5,5.58,5.58,0,0,0,2.2.3c4.6-.1,14-.3,20.5-.6a5.66,5.66,0,0,0,5.5-5.7V288.7a5.74,5.74,0,0,0-5.6-5.7c-6.2-.1-15-.3-20.3-.4A6.66,6.66,0,0,0,583.4,284.7Z"/><path class="cls-17" d="M517.2,314.6a18.63,18.63,0,0,0-7.8-5.1,21,21,0,0,0-11.8,0,51.18,51.18,0,0,0-19.2,9.7c-2.4,3.5-4.4,6.7-6,9.4,3.9,3.4,5.6,4.4,8.6,6.9,4.9-5.1,14.5-15.8,28.1-19.2a18.23,18.23,0,0,1,9.3-.3C518.1,315.7,517.7,315.2,517.2,314.6Z"/><path class="cls-17" d="M612.7,323.2c-7.5.2-18.4.5-23.7.6a7.56,7.56,0,0,1-5.4-2.1c-3.7-3.5-8.6-8-12.5-9.5-5.4-2.1-11,.8-11.4,1-5.6,3-8.8,9.8-8.3,17.4v41.2h4.3V334.7c-.5-6.5,2.3-12.5,7.2-15,.4-.2,5.2-2.6,9.9-.8,3.4,1.3,7.6,5.2,10.8,8.3a7,7,0,0,0,2.4,1.5,5.58,5.58,0,0,0,2.2.3c4.6-.1,14-.3,20.5-.6a5.72,5.72,0,0,0,5.5-5.2A7.52,7.52,0,0,0,612.7,323.2Z"/><path class="cls-18" d="M546,548.7h-4.8c-12.6,0-22.6-12.4-22.2-27.3l4.7-149.7h39.8l4.7,149.7C568.6,536.3,558.6,548.7,546,548.7Z"/><path class="cls-19" d="M568.2,521.4l-4.7-149.7h-9.7l4.7,149.7c.4,13.9-8.3,25.6-19.7,27.1a19.42,19.42,0,0,0,2.4.2H546C558.6,548.7,568.6,536.3,568.2,521.4Z"/><path class="cls-19" d="M568.7,383.8H518.5a6,6,0,0,1-6-6h0a6,6,0,0,1,6-6h50.2a6,6,0,0,1,6,6h0A6,6,0,0,1,568.7,383.8Z"/><polygon class="cls-20" points="521.8 437.5 564.5 408.1 565.4 435.2 521.1 460 521.8 437.5"/><polygon class="cls-12" points="682.2 322.6 416.5 528.4 468.4 595.3 762.7 425.5 682.2 322.6"/><polygon class="cls-21" points="751.1 408.7 455.6 578.7 468.8 595.6 759 427.6 751.1 408.7"/><path class="cls-22" d="M823.4,357.7l-54.7-70.6a24.87,24.87,0,0,0-35-4.4l-5.8,4.5,20.4,26.3h0a12.51,12.51,0,0,1,4.3-.7h1.3a13.73,13.73,0,0,1,2.8.5c.1,0,.3.1.4.1a6.37,6.37,0,0,0,.7.2c.2.1.4.1.6.2a1.42,1.42,0,0,0,.6.2c.2.1.5.2.7.3s.3.1.4.2a3.59,3.59,0,0,1,1,.7,1.38,1.38,0,0,0,.4.3,3,3,0,0,0,.7.5,1.38,1.38,0,0,0,.4.3,4.35,4.35,0,0,0,.7.6l.3.3c.3.3.6.7.9,1l26,33.6c.3.4.5.7.8,1.1.1.1.1.2.2.4a3,3,0,0,1,.4.8c.1.1.1.3.2.4a3,3,0,0,0,.4.8c.1.1.1.3.2.4.1.4.3.8.4,1.2,0,.2.1.3.1.5s.1.5.2.8.1.4.1.6a1.27,1.27,0,0,0,.1.6,1.7,1.7,0,0,0,.1.7v.5a24.58,24.58,0,0,1-.2,2.8v.2c-.1.3-.1.6-.2,1v.1a15.88,15.88,0,0,1-1.8,4h0l21.6,27.9,3.4-2A25.06,25.06,0,0,0,823.4,357.7Z"/><path class="cls-23" d="M784.7,344.5l-26-33.6a9,9,0,0,0-.9-1l-.3-.3a4.35,4.35,0,0,0-.7-.6,1.38,1.38,0,0,0-.4-.3,3,3,0,0,0-.7-.5,1.38,1.38,0,0,0-.4-.3c-.3-.2-.7-.5-1-.7-.1-.1-.3-.1-.4-.2s-.5-.2-.7-.3a1.42,1.42,0,0,0-.6-.2c-.2-.1-.4-.1-.6-.2a1.45,1.45,0,0,0-.7-.2c-.1,0-.3-.1-.4-.1a13.73,13.73,0,0,0-2.8-.5h-1.3a16.1,16.1,0,0,0-4.3.7h0L728,287.1h0l20.4,26.3h0a12.51,12.51,0,0,1,4.3-.7H754a13.73,13.73,0,0,1,2.8.5c.1,0,.3.1.4.1a6.37,6.37,0,0,0,.7.2c.2.1.4.1.6.2a1.42,1.42,0,0,0,.6.2c.2.1.5.2.7.3s.3.1.4.2a3.59,3.59,0,0,1,1,.7,1.38,1.38,0,0,0,.4.3,3,3,0,0,0,.7.5,1.38,1.38,0,0,0,.4.3,4.35,4.35,0,0,0,.7.6l.3.3c.3.3.6.7.9,1l20.7,26.7A.49.49,0,0,1,784.7,344.5Z"/><path class="cls-23" d="M823.4,357.7l-4.9-6.3a25,25,0,0,1-8.1,35.8l-3.4,2-15.8-20.5h0l21.6,27.9,3.4-2A24.91,24.91,0,0,0,823.4,357.7Z"/><path class="cls-24" d="M762.2,316.1Z"/><path class="cls-24" d="M761.1,315.3c-.3-.2-.7-.5-1-.7h0c.3.2.7.5,1,.7Z"/><path class="cls-24" d="M762.5,316.4h0l.6.6A1.7,1.7,0,0,0,762.5,316.4Z"/><path class="cls-24" d="M759.7,314.4c-.2-.1-.5-.2-.7-.3h0a4.88,4.88,0,0,0,.7.3Z"/><path class="cls-24" d="M755.3,312.9Z"/><path class="cls-24" d="M752.8,312.7Z"/><path class="cls-24" d="M793.3,358.9a1.27,1.27,0,0,0,.1.6h0c0-.2-.1-.4-.1-.6Z"/><path class="cls-24" d="M758.4,313.8c-.1,0-.2-.1-.3-.1a.37.37,0,0,0,.3.1Z"/><path class="cls-24" d="M753.9,312.8h0Z"/><path class="cls-24" d="M793.2,358a.37.37,0,0,0,.1.3h0A.37.37,0,0,1,793.2,358Z"/><path class="cls-24" d="M792.6,355.9a1.88,1.88,0,0,1,.2.8c-.1-.3-.1-.6-.2-.8Z"/><path class="cls-24" d="M793.4,360.2h0v.5h0Z"/><path class="cls-24" d="M792.1,354.7c.1.1.1.3.2.4-.1-.2-.2-.3-.2-.4Z"/><path class="cls-24" d="M791.1,368.7h0a14.17,14.17,0,0,1-3.3,3.6l-8.5,6.6a29.17,29.17,0,0,1-41-5.2l-8-10.4a29.17,29.17,0,0,1,5.2-41l8.5-6.6a14.22,14.22,0,0,1,4.4-2.3h0L728,287.1l-53.3,41.3,79.2,102.2,62.3-36-3.4,2Z"/><path class="cls-24" d="M791.4,353.4a.76.76,0,0,1,.2.4c0-.1-.1-.2-.2-.4Z"/><path class="cls-24" d="M790.4,351.9c.3.4.5.7.8,1.1h0A10.47,10.47,0,0,1,790.4,351.9Z"/><path class="cls-24" d="M793.2,363.5Z"/><path class="cls-24" d="M793.4,362.1Z"/><path class="cls-22" d="M725.2,284.1"/><polygon class="cls-25" points="812.7 396.6 753.8 430.6 748.4 423.7 807.1 389.4 812.7 396.6"/><path class="cls-26" d="M738.3,648.9H388.1v-176H752.2v162A13.89,13.89,0,0,1,738.3,648.9Z"/><g class="cls-27"><g class="cls-28"><path class="cls-10" d="M414.1,598.1c9-15.2,40.8,1.6,26.3,18.3-11.3,13.1-34.9-3.7-26.3-18.3C418.7,590.3,410.6,604,414.1,598.1Z"/><path class="cls-29" d="M451,460.3c.1,24.3,8.2,60.9,23.3,73.3,30,24.5,124.7-16,126-55.3C601.9,430.2,463.8,382,445,405c-5.8,7.1-5.3,27.6-1.7,28.7,1.2.4,2.3-2.2,3.7-1.9C451.2,432.4,451,455.2,451,460.3Z"/><path class="cls-10" d="M388.4,481.2c-23.9,66.5,71.3,53.5,89.1,97.4,18.8,46.3-42.4,82.5-78.3,93.1"/><path class="cls-10" d="M391.8,578.7c40.4-27.6,81.9-3.4,57.3,42.1-14.4,26.6-43.5,40.2-72.9,41.9"/><path class="cls-10" d="M689.8,566.6"/><path class="cls-10" d="M677.1,771"/><path class="cls-10" d="M728.3,533.6a36.59,36.59,0,0,0,19,5.6c3.8,0,8.6-.1,12.7-3.4,1.1-.9,4.4-3.6,4.5-7.1.2-6.3-9.5-12.4-18.3-13-7.1-.4-17.1,2.6-19,9.8A12.22,12.22,0,0,0,728.3,533.6Z"/><path class="cls-10" d="M715.2,556.9c9.1,5,18.1,3.6,36,.7,12.1-1.9,18.7-3.1,25.4-8.5,1.9-1.5,11.9-9.6,12.7-21.9,1.1-15.9-13.9-28.9-26.1-33.9-21.2-8.6-40.9,4.1-44.4,6.3-6.1,4-21.1,13.6-21.2,29.6C697.5,541.9,706.6,552.2,715.2,556.9Z"/><path class="cls-10" d="M786.1,576.7c-5.3,4.1-22.7,16.9-46.7,14A60.83,60.83,0,0,1,704.7,574c-15-14.7-17.4-32.4-18-38s-2-19,5.2-33.5c6.1-12.2,15-18.7,20.5-22.6,22.6-16.2,47-13.9,51.5-13.4,8.4.9,21.1,2.3,32.5,12,20,17,17.4,45.4,16.9,50.1C810.7,557.3,790.1,573.7,786.1,576.7Z"/><path class="cls-10" d="M795.7,590A60.81,60.81,0,0,1,780,601c-27.6,13.2-58.5.4-75.7-6.7-17.7-7.3-29.9-15.8-46.7-27.3-29.1-20.1-32.6-28.5-51.3-33.3-6-1.6-25.2-6.2-44.5,2.5-5.8,2.6-10.2,6-14.8,9.8-22.3,18.2-28.5,38.8-48,82-4.5,10-11.2,24.5-20,42"/><path class="cls-10" d="M523,724c15.8,5.1,47.9-66.9,69.5-59.2,12.1,4.3,10.9,30.3,20.5,31.2,10.6.9,21-30,22-33,2.5-7.7,19.4-58.9-9-92-3.9-4.5-12.7-14.5-27.2-17.7,0,0-15.5-3.4-33.8,5.7C516.7,582.7,502.5,717.3,523,724Z"/><path class="cls-10" d="M565,637c5.7,4.2,20.2-5.7,28-15,3.9-4.6,12.1-14.3,8.4-21.8-2.9-5.8-11.8-7.9-18.4-6.2-7.5,1.9-11,8.5-14,14C564.2,616.9,559.4,632.9,565,637Z"/><path class="cls-10" d="M604,438.3c9.8,10.1,20.7,24.5,17.6,38.8-2.3,10.6-11,15.1-9.3,17.9,3.3,5.5,39.9-2.4,64-28a93.4,93.4,0,0,0,21.5-38.6"/><path class="cls-10" d="M507,497c7.6,8.2,22.6,15.4,34,10,11-5.2,13.4-19.6,14-23.3,5-29.8-21.4-65.8-37-62.9C501,423.9,486.6,474.8,507,497Z"/><path class="cls-10" d="M522.2,435.7c5.6.1,10.4,17.3,10.8,31.3.2,7-.5,23.8-5.3,24.7-6,1-19.7-22.8-14-43.1C513.8,448.1,517.4,435.6,522.2,435.7Z"/><path class="cls-10" d="M798.2,632.9c-39,24.1-57.4,23.2-67,16.9-6.9-4.5-9.9-12.3-28.2-26.8-7.7-6.1-13.8-10-21.2-9.2a22.06,22.06,0,0,0-13.4,7.1c-4.7,5-5.7,10.8-7.1,19.8-1.6,10.4-.1,13.3-2.1,23.3a84.52,84.52,0,0,1-3.5,12"/><path class="cls-29" d="M474.3,420.2"/><path class="cls-10" d="M680.8,657.4c-7.3-10.6-8.2-20.9-4-24.7,5-4.4,16.1,1.4,17.3,2,12.4,6.6,15.9,20.4,16.7,24"/><path class="cls-10" d="M501.5,554.2c-7.2,1.2-14.8,8.2-13.3,16,1,5.2,5.9,10.1,10.7,10,9.1-.1,16.7-18.2,12-24C508.3,553,502.7,554,501.5,554.2Z"/><path class="cls-10" d="M548,613c3.9-12.7,9.7-31.5,27-39,2.4-1,14.7-6.4,27.8-.6,13.6,6,17.8,19.6,18.7,22.7,5.7,20.3-9.8,36.4-10.7,37.3-3.1,3.2-5.8,4.6-19.3,10.7-26.3,11.7-39.5,17.5-43.5,15C536.2,651.6,546.7,617.4,548,613Z"/><path class="cls-10" d="M740.8,706.2"/><path class="cls-30" d="M403,487.7c.5,4.3,2.9,22.9,17.4,30.7,4.3,2.3,13.5,5.8,17.4,2,5.1-4.9-3.8-16.8-9.3-40.1-6.6-27.4-1.7-41.7-6-42.7C416.4,436.1,399.7,461.7,403,487.7Z"/><path class="cls-10" d="M761,662c-20.6-11.1-30.3-27.1-27-34s21.7-9.1,43,0"/><path class="cls-10" d="M673,599c-.1-4-9-9.5-14-6-4.1,2.9-4.1,10.5-1,13C662.2,609.4,673.1,603.5,673,599Z"/><path class="cls-31" d="M628,508c-5,2.6-7.4,3.9-8,6-2.1,7.3,12.8,18.5,26,23.5,8,3.1,17.4,6.5,24.3,1.6,8.5-6,8.2-21.5,2.7-30.1a17.92,17.92,0,0,0-7.6-6.9c-2.1-1-4.8-2.2-11.4-1.1C641.3,503.2,635.4,504.1,628,508Z"/><path class="cls-10" d="M650.4,514.8c-6,.6-11.1,5.4-9,9,1.7,2.9,7.6,4.5,12.3,3.4,5.3-1.2,8.8-5.7,6.6-9C658.6,515.6,654.1,514.4,650.4,514.8Z"/><path class="cls-10" d="M489.7,443.7c-2,3.5-17.3,31.8-4,59.3,2.2,4.5,9,18.7,24,24,22,7.8,46.3-9,58-24.7,12.9-17.3,13-36.5,12.7-44"/></g></g><circle class="cls-7" cx="389.5" cy="513.3" r="9"/><path class="cls-5" d="M361.3,412.9V361a36,36,0,0,0-36-36h0a36,36,0,0,0-36,36v51.8a60,60,0,0,1-60,60h0v152a23.94,23.94,0,0,0,24,24h144a23.94,23.94,0,0,0,24-24v-152h0A59.83,59.83,0,0,1,361.3,412.9Z"/><polygon class="cls-5" points="742.4 648.9 398.9 648.9 413.9 634.9 755.4 634.9 742.4 648.9"/><path class="cls-5" d="M752.3,472.9V608.3h0v16.5a10,10,0,0,1-10,10H697.9v14h44.5a23.94,23.94,0,0,0,24-24v-152H752.3Z"/><path class="cls-32" d="M347.3,412.9V361a36,36,0,0,0-36-36h0a36,36,0,0,0-36,36v51.8a60,60,0,0,1-60,60h0v152a23.94,23.94,0,0,0,24,24h144a23.94,23.94,0,0,0,24-24v-152h0A59.83,59.83,0,0,1,347.3,412.9Z"/><path class="cls-33" d="M217.4,634.9a23.9,23.9,0,0,0,21.8,14h144a23.9,23.9,0,0,0,21.8-14Z"/><g class="cls-34"><path class="cls-35" d="M252.1,678.7c-18.3-25.6-6.3-74,23.3-89.3,13.8-7.1,27.2-4.9,31.1-4.3,37.2,6.6,69.2,55.1,56.7,84C349,702,276.1,712.1,252.1,678.7Z"/><path class="cls-35" d="M216.1,650.7c-8-22.4,10.7-56.1,35.7-72,46.7-29.8,98.2,13.2,134-16,29.9-24.5,18.6-74.8,25-75,9.7-.3,58.1,115.1,0,176C354.1,723.1,231.4,693.6,216.1,650.7Z"/><path class="cls-35" d="M277.8,656.7c-9.2-10-14-27.4-5.7-40,6.2-9.4,17.2-11.4,20.7-12,15.9-3,41.4,3.1,46,22.7,3.9,16.5-9,34.7-26,39.3A35.43,35.43,0,0,1,277.8,656.7Z"/><path class="cls-36" d="M379.5,625.7c5.3-2.4,5.9-19.5-2.5-25.8-2.9-2.2-8.3-4.1-11.9-1.6-3.9,2.6-3.4,8.8-3.3,9.8C362.7,618.4,374.5,628,379.5,625.7Z"/><path class="cls-35" d="M212.1,527.4c7.3-2.6,17.6,2.2,21.3,9.3,8.9,17.1-20.1,48.8-29.3,45.3C194.7,578.5,195.4,533.4,212.1,527.4Z"/><path class="cls-35" d="M207.8,499.7a118.09,118.09,0,0,0,79.7,29c15.6-3.9,24.2-10.7,29.3-17,26.1-31.9,5.6-103.7-54-177"/><path class="cls-35" d="M219.4,470c8,19.7,33.8,35.9,52.4,28.7,13-5,18-19.6,19.6-24.2,11-32-8.1-76.9-29.6-78.8C239.4,393.8,206.3,437.9,219.4,470Z"/><path class="cls-35" d="M403.8,377.7c-5.9-20-23.1-47.3-38.9-44.9-18.2,2.8-23.5,43.8-25.1,48.9-11.6,37.3,7.3,84.7,26,87,13.9,1.7,27-22.6,31-30C400,432.8,412.7,407.6,403.8,377.7Z"/><path class="cls-35" d="M352.9,490.3c-3,1.6-7.1,4.5-25.1,40.4-8.7,17.3-9.6,20.3-8,23,4.8,8.2,29.6,6.4,46.6-4.9,20.3-13.6,33.8-43.1,24-55.5C383.3,484.2,364.8,483.9,352.9,490.3Z"/><path class="cls-35" d="M363.4,505.3c-11.1,7.8-21.3,22.8-17.6,27.4,4.2,5.2,27.7-1.1,32.5-15.2,1.9-5.7,1.2-14.1-3-16.2C371.7,499.6,366.8,502.9,363.4,505.3Z"/><path class="cls-35" d="M296.8,628.7c-10.9,5.8-7.5,36.6,1.3,39.3,7.7,2.4,26.9-14.8,21.3-28.7C316,630.6,303.4,625.2,296.8,628.7Z"/><path class="cls-35" d="M244.8,548.7c-.5,3.3,8.9,7.9,16.7,8.7,2.7.3,7.4.7,9.3-2,1.6-2.2.9-5.8-.7-8C264.9,540.2,245.5,544.2,244.8,548.7Z"/><path class="cls-35" d="M232.1,454.7c1,16,18.6,31.5,27.7,28,8.2-3.2,12.3-22.9,3.7-34.7-6-8.2-18.9-13.6-26-8.7C231.4,443.5,232,453.3,232.1,454.7Z"/><path class="cls-35" d="M305.8,349.7c-3.7,2.5-3.3,13.9,4,20,8.2,6.8,20.6,3.3,22-1C334,362,311.8,345.6,305.8,349.7Z"/><path class="cls-36" d="M452.8,570.7c-14.2-5.1-40.3-8.1-53,8-14.3,18.1-.2,45.8,2,50,1.6,3,14.8,26.9,43,31,16.7,2.4,41.4-1.8,50-18C506.8,619,482.7,581.5,452.8,570.7Z"/></g><circle class="cls-5" cx="389.5" cy="560.9" r="9"/><circle class="cls-5" cx="389.5" cy="513.3" r="9"/><circle class="cls-5" cx="389.5" cy="608.4" r="9"/><circle class="cls-5" cx="232.1" cy="513.3" r="9"/><circle class="cls-5" cx="232.1" cy="560.9" r="9"/><circle class="cls-5" cx="232.1" cy="608.4" r="9"/><circle class="cls-5" cx="311.3" cy="361.7" r="12"/><rect class="cls-2" x="39" y="910" width="926" height="71"/></svg>